<?xml version="1.0" encoding="UTF-8"?>
<svg id="Layer_1" data-name="Layer 1" xmlns="http://www.w3.org/2000/svg" viewBox="0 0 60 60">
  <path d="m54.75,24.31c-1.9-4.51-4.95-8.08-9.13-10.62-6.01-3.64-12.41-4.26-19.1-2.25-2.34-5.42-7.75-8.21-13.23-7.25-5.14.9-9.08,5.05-9.73,10.41-.66,5.41,2.44,10.67,8.03,12.72-2.74,11.03,2.59,21,10.83,25.71,8.46,4.83,19.1,3.71,26.55-2.88,7.2-6.36,9.57-16.87,5.79-25.84Zm-44.46,1c-.61-.44-1.19-.78-1.68-1.21-3.37-3-4.61-6.75-3.37-11.07,1.26-4.37,4.33-6.96,8.84-7.61,6.62-.96,12.48,4.65,11.95,11.31-.12,1.5-.5,2.91-1.23,4.22-.38.67-.36,1.31.07,1.9.62.84,1.3,1.63,1.95,2.43.12.15.25.31.42.52-2.28.58-4.41-.14-6.62-.43v-5.89c.48.11.98.24,1.18-.35.17-.52-.22-.75-.62-.92,1.53-3.16.19-5.88-1.86-7.54-.2-.16-.39-.33-.6-.48-.43-.33-.9-.64-1.3-1-.49-.44-.95-.9-1.38-1.39-.38-.43-.77-.44-1.14-.04-.52.56-1.06,1.1-1.63,1.6-.55.48-1.15.9-1.72,1.36-2.11,1.7-3.3,4.47-1.81,7.51-.46.15-.81.43-.61.96.21.55.69.41,1.16.29v5.84Zm.46-8.07c-.63-1.48-.49-2.92.44-4.2.48-.67,1.14-1.23,1.77-1.78.8-.69,1.65-1.32,2.52-1.99,1.18.97,2.41,1.89,3.54,2.93,1.27,1.17,1.76,2.65,1.38,4.38-.03.14-.08.28-.13.42-.33.82-.42.85-1.29.7-2.4-.42-4.8-.44-7.18.05-.53.11-.82-.02-1.03-.5Zm.9,8.36c-.02-2.15-.02-4.3-.02-6.5,2.55-.55,5.07-.55,7.63,0v5.84c0,.94,0,.95-.89,1.21-2.12.6-4.24.57-6.33-.14-.16-.06-.39-.26-.39-.4Zm12.54,26.87c-9.79-4.86-13.79-15.58-11.28-24.81,2.21.44,4.4.4,6.47-.46,1.09-.45,2.08-.42,3.17-.18,1.82.4,3.65.47,5.48-.04.91-.25,1.14-.81.58-1.57-.44-.6-.97-1.14-1.45-1.72-.39-.48-.8-.96-1.13-1.47-.11-.17-.12-.51-.03-.69,1.39-2.74,1.72-5.59.99-8.56-.01-.05-.01-.11-.02-.16,5.7-2.24,15.61-1.74,22.57,5.79,7.02,7.6,7.59,19.29,1.36,27.51-6.41,8.45-17.63,10.88-26.71,6.36Z"/>
  <path d="m40.52,32.66c-1.3,0-2.59-.03-3.89-.02-.33,0-.52-.06-.64-.42-.21-.61-.65-1.07-1.24-1.31-.33-.14-.41-.32-.41-.66.01-2.3,0-4.6,0-6.9,0-.82,0-1.64,0-2.47,0-.38-.22-.62-.61-.64-.39-.02-.61.2-.67.58-.03.16-.02.33-.02.49,0,1.44,0,2.89,0,4.33,0,1.53,0,3.07,0,4.6,0,.32-.05.51-.39.67-1.06.48-1.57,1.49-1.41,2.65.14.98.97,1.85,1.97,2.04,1.08.21,2.14-.28,2.67-1.28.17-.32.36-.39.68-.38,1.31.02,2.63.02,3.94.03.57,0,.9-.24.9-.65,0-.42-.31-.66-.89-.66Zm-6.81,1.66c-.67,0-1.18-.5-1.18-1.16,0-.67.51-1.17,1.18-1.17.64,0,1.14.5,1.16,1.14.01.66-.5,1.19-1.15,1.19Z"/>
  <path d="m52.45,32.51c-.95,0-1.89,0-2.84,0-.44,0-.76.18-.76.66,0,.48.34.65.77.65.47,0,.95,0,1.42,0,.47,0,.95,0,1.42,0,.44,0,.77-.2.76-.67,0-.47-.33-.65-.78-.65Z"/>
  <path d="m33.72,48.32c-.42-.02-.67.23-.68.63-.02,1.04-.02,2.07,0,3.11,0,.4.27.66.67.64.4-.02.62-.28.62-.69,0-.49,0-.98,0-1.47,0-.51,0-1.02,0-1.53,0-.4-.2-.67-.62-.69Z"/>
  <path d="m33.71,18c.42-.02.62-.27.62-.68,0-.49,0-.98,0-1.47,0-.51,0-1.02,0-1.53,0-.41-.21-.67-.61-.7-.4-.02-.67.23-.68.63-.02,1.04-.02,2.07,0,3.11,0,.39.25.65.67.63Z"/>
  <path d="m18.53,33.15c-.01-.46-.31-.63-.73-.63-.96,0-1.93,0-2.89,0-.44,0-.76.19-.76.67,0,.44.32.63.73.64.47.01.95,0,1.42,0,.51,0,1.02.01,1.53,0,.41-.01.71-.21.7-.67Z"/>
  <path d="m25.14,47.78c-.18-.07-.54-.02-.63.11-.34.47-.64.97-.87,1.5-.07.16.09.51.25.64.14.12.55.15.63.05.42-.52.78-1.1,1.19-1.72-.24-.26-.37-.51-.57-.59Z"/>
  <path d="m43.36,16.22c-.22-.05-.58.03-.71.19-.31.39-.57.85-.76,1.31-.08.19.03.56.18.71.13.13.58.18.67.08.43-.52.78-1.1,1.19-1.72-.24-.26-.38-.53-.57-.58Z"/>
  <path d="m48.89,41.16c-.25.23-.51.36-.58.55-.07.18-.02.54.11.63.46.34.97.64,1.5.87.16.07.52-.08.64-.24.12-.16.15-.59.03-.68-.52-.41-1.09-.74-1.7-1.13Z"/>
  <path d="m42.27,47.77c-.21.05-.36.34-.6.58.41.63.75,1.2,1.17,1.71.09.11.55.07.67-.06.16-.18.27-.55.19-.76-.17-.45-.43-.89-.73-1.27-.13-.16-.49-.27-.7-.22Z"/>
  <path d="m48.91,25.15c.6-.38,1.16-.7,1.66-1.1.12-.09.1-.52,0-.68-.11-.17-.48-.33-.63-.26-.53.22-1.04.52-1.5.86-.14.1-.18.48-.11.68.07.19.34.31.59.51Z"/>
  <path d="m18.48,41.16c-.61.4-1.18.74-1.69,1.15-.11.09-.08.53.05.67.15.16.51.29.7.21.48-.19.95-.46,1.36-.78.16-.12.22-.5.16-.71-.05-.19-.33-.32-.58-.54Z"/>
</svg>