<?xml version="1.0" encoding="UTF-8"?>
<svg id="Layer_1" data-name="Layer 1" xmlns="http://www.w3.org/2000/svg" viewBox="0 0 60 60">
  <defs>
    <style>
      .cls-1, .cls-2 {
        fill: #232f3e;
      }

      .cls-2 {
        opacity: .5;
      }
    </style>
  </defs>
  <path class="cls-1" d="m33.06,5.27l.36.41c1.32,1.7,1.2,4.16-.36,5.72L14.46,30l18.6,18.6.36.41c1.32,1.7,1.2,4.16-.36,5.72-1.69,1.69-4.44,1.69-6.13,0L5.27,33.06l-.36-.41c-1.32-1.7-1.2-4.16.36-5.72L26.94,5.27l.41-.36c1.7-1.32,4.16-1.2,5.72.36Z"/>
  <path class="cls-2" d="m54.73,5.27l.36.41c1.32,1.7,1.2,4.16-.36,5.72l-18.6,18.6,18.6,18.6.36.41c1.32,1.7,1.2,4.16-.36,5.72-1.69,1.69-4.44,1.69-6.13,0l-21.67-21.67-.36-.41c-1.32-1.7-1.2-4.16.36-5.72L48.6,5.27l.41-.36c1.7-1.32,4.16-1.2,5.72.36Z"/>
</svg>