<?xml version="1.0" encoding="UTF-8"?>
<svg id="Layer_1" data-name="Layer 1" xmlns="http://www.w3.org/2000/svg" viewBox="0 0 80 80">
  <defs>
    <style>
      .cls-1 {
        fill: #000;
        stroke-width: 0px;
      }
    </style>
  </defs>
  <path class="cls-1" d="M73.56,29.54c-2.51-1.74-5.19-1.99-8.03-.86-.29.12-.76.17-.99.02-3.25-2.03-6.54-1.78-9.39.75-3.9,3.45-7.8,6.9-11.69,10.36-.38.33-.66.41-1.19.24-1.21-.4-2.47-.63-3.19-.8-4.5.36-8.43.65-12.36,1.01-1.73.16-3.5.27-5.17.71-6.33,1.67-10.84,6.81-11.51,13.31-.48,4.63-1.75,8.92-4.28,12.84-.58.9-.42,1.4.54,1.98,5.23,3.17,10.47,6.33,15.7,9.49,1.26.76,1.87.47,2.22-.98,1.68-6.87,5.71-11.85,12.24-14.56,2.6-1.08,5.43-1.65,8.2-2.24,4.09-.87,7.7-2.53,10.43-5.76,6.31-7.46,12.58-14.95,18.86-22.44.98-1.17.86-2.21-.38-3.07ZM57.18,30.67c1.64-1.42,4.07-1.46,5.81-.23-5.28,4.75-10.56,9.49-15.8,14.21-.78-1.06-1.51-2.07-2.3-3.15,4.08-3.61,8.16-7.25,12.3-10.83ZM70.02,33.81c-5.19,6.19-10.45,12.32-15.55,18.58-2.8,3.44-6.28,5.45-10.59,6.32-2.85.58-5.75,1.21-8.42,2.33-6.53,2.73-10.8,7.66-12.99,14.39-.07.2-.13.4-.23.69-4.76-2.88-9.44-5.7-14-8.46.89-2.07,1.82-4.03,2.58-6.05.91-2.4,1.12-4.95,1.44-7.48.71-5.56,5.19-10.31,10.71-11.22,2.72-.45,5.49-.57,8.24-.81,2.38-.21,4.76-.41,7.14-.55,2.93-.18,5.7,1.57,6.68,4.25-1.3.21-2.58.42-3.86.62-4.16.65-8.32,1.29-12.48,1.94-.84.13-1.25.65-1.11,1.36.13.65.69.96,1.5.83,5.67-.88,11.34-1.75,17.01-2.67.57-.09,1.19-.36,1.62-.75,5.59-4.98,11.15-10,16.71-15.02,1.13-1.02,2.36-1.77,3.9-1.89,1.35-.1,2.6.21,3.82,1.03-.73.87-1.43,1.7-2.13,2.54Z"/>
  <path class="cls-1" d="M26.77,33.8c.93.71,1.22.73,2.13,0,1.67-1.35,3.3-2.74,4.98-4.14.84.65,1.75,1.36,2.67,2.05.83.62,1.16.61,2-.01.6-.45,1.21-.9,1.78-1.38,4.06-3.35,7.78-7.01,10.41-11.63,1.7-2.99,2.76-6.15,2.32-9.68-.63-5.01-5.66-8.74-10.64-7.88-1.88.32-3.48,1.19-4.88,2.49-.13-.1-.24-.17-.33-.26-5.27-4.74-13.22-1.85-14.96,4.55-.15.55-.35.81-.96.93-3.71.73-6.23,3.79-6.32,7.58-.05,2.46.73,4.7,1.93,6.8,2.46,4.3,5.97,7.62,9.86,10.59ZM24.56,7.92c1.84-5.09,8.25-6.3,11.81-2.23.84.96,1.46.98,2.24.08,1.99-2.3,4.82-3.11,7.55-2.14,2.8.99,4.73,3.66,4.79,6.63.05,2.46-.71,4.7-1.86,6.83-2.13,3.93-5.15,7.11-8.46,10.04-.98.87-2.02,1.68-3.07,2.56-.74-.59-1.45-1.15-2.19-1.74.46-.57.89-1.08,1.3-1.6,1.87-2.42,3.38-5.02,3.92-8.09.87-4.96-2.41-9.26-7.32-9.57-1.82-.11-3.34.44-5.31,1.91-1.21-.66-2.33-1.26-3.57-1.93.04-.15.08-.45.19-.74ZM17.28,15.59c.38-2.26,1.72-3.79,3.92-4.44,2.12-.63,3.96-.03,5.46,1.59.93,1,1.41,1,2.36-.02,1.56-1.66,3.45-2.26,5.62-1.52,2.19.75,3.49,2.34,3.77,4.66.23,1.87-.28,3.62-1.09,5.28-1.75,3.59-4.48,6.38-7.43,8.99-.66.58-1.36,1.12-2.06,1.7-3.66-2.9-7-6.02-9.23-10.14-1.02-1.89-1.69-3.91-1.33-6.09Z"/>
</svg>