<?xml version="1.0" encoding="UTF-8"?>
<svg id="Layer_1" data-name="Layer 1" xmlns="http://www.w3.org/2000/svg" viewBox="0 0 60 60">
  <defs>
    <style>
      .cls-1, .cls-2 {
        fill: #232f3e;
      }

      .cls-2 {
        opacity: .5;
      }
    </style>
  </defs>
  <path class="cls-1" d="m26.94,5.27l-.36.41c-1.32,1.7-1.2,4.16.36,5.72l18.6,18.6-18.6,18.6-.36.41c-1.32,1.7-1.2,4.16.36,5.72,1.69,1.69,4.44,1.69,6.13,0l21.67-21.67.36-.41c1.32-1.7,1.2-4.16-.36-5.72L33.06,5.27l-.41-.36c-1.7-1.32-4.16-1.2-5.72.36Z"/>
  <path class="cls-2" d="m5.27,5.27l-.36.41c-1.32,1.7-1.2,4.16.36,5.72l18.6,18.6L5.27,48.6l-.36.41c-1.32,1.7-1.2,4.16.36,5.72,1.69,1.69,4.44,1.69,6.13,0l21.67-21.67.36-.41c1.32-1.7,1.2-4.16-.36-5.72L11.4,5.27l-.41-.36c-1.7-1.32-4.16-1.2-5.72.36Z"/>
</svg>