<?xml version="1.0" encoding="UTF-8"?>
<svg id="Layer_1" data-name="Layer 1" xmlns="http://www.w3.org/2000/svg" viewBox="0 0 60 60">
  <defs>
    <style>
      .cls-1 {
        fill: #001c64;
      }

      .cls-1, .cls-2, .cls-3 {
        stroke-width: 0px;
      }

      .cls-2 {
        fill: #003087;
      }

      .cls-3 {
        fill: #0070e0;
      }
    </style>
  </defs>
  <path class="cls-1" d="M24.87,12.6c-.82,0-1.52.6-1.65,1.41l-2.74,17.4-2.52,15.99h0s0,0,0,0l2.52-15.99c.13-.81.83-1.41,1.65-1.41h8.04c8.09,0,14.96-5.9,16.21-13.9.1-.61.15-1.21.16-1.8h0s0,0,0,0c-2.06-1.08-4.47-1.69-7.12-1.69h-14.55Z"/>
  <path class="cls-3" d="M46.54,14.3c-.01.59-.06,1.2-.16,1.8-1.25,8-8.12,13.9-16.21,13.9h-8.04c-.82,0-1.52.6-1.65,1.41l-2.52,15.99-1.58,10.03c-.12.74.39,1.44,1.13,1.55.07.01.14.02.21.02h8.73c.82,0,1.52-.6,1.65-1.41l2.3-14.58c.13-.81.83-1.41,1.65-1.41h5.14c8.09,0,14.96-5.9,16.21-13.9.89-5.68-1.97-10.84-6.85-13.4h0Z"/>
  <path class="cls-2" d="M14.96,1c-.82,0-1.52.6-1.65,1.41l-6.85,43.42c-.12.74.39,1.44,1.13,1.55.07.01.14.02.21.02h10.15l2.52-15.99,2.74-17.4c.13-.81.83-1.41,1.65-1.41h14.55c2.65,0,5.06.62,7.12,1.69.14-7.28-5.87-13.29-14.13-13.29H14.96Z"/>
</svg>