<?xml version="1.0" encoding="UTF-8"?>
<svg id="Layer_1" data-name="Layer 1" xmlns="http://www.w3.org/2000/svg" viewBox="0 0 60 60">
  <defs>
    <style>
      .cls-1 {
        fill: #00c3f7;
        stroke-width: 0px;
      }
    </style>
  </defs>
  <path class="cls-1" d="M53.02,1H3.93c-1.65,0-3.05,1.4-3.05,3.11v5.56c0,1.71,1.4,3.11,3.05,3.11h49.09c1.71,0,3.05-1.4,3.11-3.11v-5.49c0-1.77-1.4-3.17-3.11-3.17h0ZM53.02,31.83H3.93c-.79,0-1.59.31-2.14.92-.61.61-.92,1.34-.92,2.2v5.56c0,1.71,1.4,3.11,3.05,3.11h49.09c1.71,0,3.05-1.34,3.11-3.11v-5.56c-.06-1.77-1.4-3.11-3.11-3.11ZM31.59,47.22H3.93c-.79,0-1.59.31-2.14.92s-.92,1.34-.92,2.2v5.56c0,1.71,1.4,3.11,3.05,3.11h27.6c1.71,0,3.05-1.4,3.05-3.05v-5.56c.06-1.83-1.28-3.24-2.99-3.17ZM56.13,16.39H3.93c-.79,0-1.59.31-2.14.92s-.92,1.34-.92,2.2v5.56c0,1.71,1.4,3.11,3.05,3.11h52.14c1.71,0,3.05-1.4,3.05-3.11v-5.56c.06-1.71-1.34-3.05-2.99-3.11Z"/>
</svg>