<?xml version="1.0" encoding="UTF-8"?>
<svg id="Layer_1" data-name="Layer 1" xmlns="http://www.w3.org/2000/svg" viewBox="0 0 80 80">
  <path d="m18.99,7.5c-6.35,0-11.49,5.14-11.49,11.49v42.02c0,6.35,5.14,11.49,11.49,11.49h42.02c6.35,0,11.49-5.14,11.49-11.49V18.99c0-6.35-5.14-11.49-11.49-11.49H18.99Zm0,2.24h42.02c5.14,0,9.25,4.11,9.25,9.25v42.02c0,5.14-4.11,9.25-9.25,9.25H18.99c-5.14,0-9.25-4.11-9.25-9.25V18.99c0-5.14,4.11-9.25,9.25-9.25Zm43.54,11.33c-.3,0-.58.13-.79.35l-9.94,10.38-5.18-5.4c-.43-.44-1.13-.46-1.58-.04-.45.43-.46,1.14-.04,1.58,0,0,0,0,0,0l5.98,6.25c.43.45,1.14.46,1.58.04.01-.01.03-.02.04-.04l10.75-11.23c.42-.45.4-1.15-.04-1.58-.21-.21-.5-.32-.79-.32h0Zm-45.08,6.88c-.62,0-1.12.5-1.13,1.12h0c0,.62.5,1.12,1.12,1.13,0,0,0,0,0,0h18.55c.62,0,1.12-.5,1.12-1.12h0c0-.62-.5-1.12-1.12-1.12h-18.55Zm43.17,13.92c-.3,0-.58.12-.79.33l-6.61,6.61-6.61-6.61c-.44-.43-1.14-.43-1.58,0-.44.44-.44,1.15,0,1.58,0,0,0,0,0,0l6.61,6.61-6.61,6.61c-.43.44-.43,1.14,0,1.58.44.43,1.14.43,1.58,0l6.61-6.61,6.61,6.61c.44.44,1.15.44,1.58,0h0c.43-.44.43-1.14,0-1.58l-6.61-6.61,6.61-6.61c.44-.44.44-1.15,0-1.58,0,0,0,0,0,0-.21-.21-.5-.33-.79-.33Zm-43.17,7.4c-.62,0-1.12.5-1.13,1.12,0,0,0,0,0,0,0,.62.51,1.12,1.13,1.12h18.55c.62,0,1.12-.5,1.12-1.12,0-.62-.5-1.12-1.12-1.13,0,0,0,0,0,0h-18.55Z"/>
</svg>