<?xml version="1.0" encoding="UTF-8"?>
<svg id="Layer_1" data-name="Layer 1" xmlns="http://www.w3.org/2000/svg" viewBox="0 0 60 60">
  <defs>
    <style>
      .cls-1 {
        fill: #6772e5;
        fill-rule: evenodd;
        stroke-width: 0px;
      }
    </style>
  </defs>
  <path class="cls-1" d="M25.89,18.25c0-2.48,2.07-3.44,5.4-3.44,5.53.12,10.95,1.52,15.84,4.1V3.91c-5.04-1.98-10.42-2.97-15.84-2.91-12.87,0-21.5,6.74-21.5,18,0,17.61,24.18,14.75,24.18,22.34,0,2.97-2.54,3.89-6.11,3.89-5.27,0-12.07-2.18-17.4-5.08v15.18c5.49,2.39,11.41,3.64,17.4,3.66,13.23,0,22.34-6.53,22.34-17.99,0-19.01-24.32-15.61-24.32-22.76h0Z"/>
</svg>