<?xml version="1.0" encoding="UTF-8"?>
<svg id="Layer_1" data-name="Layer 1" xmlns="http://www.w3.org/2000/svg" viewBox="0 0 60 60">
  <defs>
    <style>
      .cls-1 {
        fill: #232f3e;
        fill-rule: evenodd;
      }
    </style>
  </defs>
  <path class="cls-1" d="m53.75,45.72c0,.84-.02,1.67-.04,2.51-.02.77-.12,1.35-.31,1.75-.46.96-1.33,1.44-2.61,1.44-2.31,0-14.57.14-17.03.14-.08,0-.14.05-.17.12-.46,1.26-1.28,1.96-2.46,2.09-.87.1-2.14.19-2.92-.21-.78-.39-1.33-1.03-1.63-1.91-.02-.06-.08-.11-.15-.11-2.53.01-14.92.01-17.43,0-.91,0-1.69-.45-2.34-1.33-.39-.65-.33-1.33-.34-1.97-.03-4.25-.05-33.16-.07-37.57,0-.41.04-.74.12-.99.64-1.92,4.45-2.71,6.15-2.99,7.45-1.21,14.38-.08,17.09,1.65.17.11.26.26.41.38.05.04.1.04.15,0,3.67-2.49,12.57-3.13,17.97-2.1,1.67.32,3.19.73,4.52,1.62.39.27.69.61.88,1.02.14.3.21.72.21,1.27v35.18Zm-3.33,2.59c-3.12-1.57-13.97-2.03-18.12.41,0,0-.06.03-.17.08-.08.04-.14.1-.17.17,0,.01,0,.03,0,.04,0,.07.05.12.12.12.22,0,.45.01.67.01,2.63.03,15.08-.08,17.6-.08.25,0,.49-.05.72-.11.02,0,.03-.01.05-.02.07-.05.1-.15.05-.22,0-.01-.02-.03-.03-.04-.21-.17-.47-.25-.71-.37Zm.91-38.04c-3.2-2.36-14.24-2.45-19.92.23-.13.06-.19.22-.19.37-.15,3.67-.06,31.95-.07,35.79h0c0,.07.06.12.12.12.03,0,.06,0,.08-.03.29-.23.59-.41.89-.54,4.84-2.02,15.74-1.91,19.19.12.06.03.09.02.09-.05.01-.33.02-.63.03-.9.02-3.58.02-31.51,0-34.65,0-.19-.05-.35-.21-.46Zm-16.56,23.51c-.53.19-1.3.44-1.66-.07-.45-.64-.1-1.28.58-1.45,6.17-1.57,10.63-1.45,15.49-.19.53.14,1.46.64,1.2,1.31-.2.52-.72.7-1.2.5-3.46-1.42-9.84-1.72-14.4-.1Zm0-12.7c-.53.19-1.3.44-1.66-.07-.45-.64-.1-1.28.58-1.45,6.17-1.57,10.63-1.45,15.49-.19.53.14,1.46.64,1.2,1.31-.2.52-.72.7-1.2.5-3.46-1.42-9.84-1.72-14.4-.1Zm0,19.06c-.53.19-1.3.44-1.66-.07-.45-.64-.1-1.28.58-1.45,6.17-1.57,10.63-1.45,15.49-.19.53.14,1.46.64,1.2,1.31-.2.52-.72.7-1.2.5-3.46-1.42-9.84-1.72-14.4-.1Zm0-12.7c-.53.19-1.3.44-1.66-.07-.45-.64-.1-1.28.58-1.45,6.17-1.57,10.63-1.45,15.49-.19.53.14,1.46.64,1.2,1.31-.2.52-.72.7-1.2.5-3.46-1.42-9.84-1.72-14.4-.1Zm-6.75,21.47c-3.14-1.81-14.84-2.43-19.15-.08-.08.04-.12.11-.13.2,0,0,0,0,0,.01,0,.07.05.12.12.13.62.04,1.22.06,1.82.06,2.41,0,14.72-.03,17.18-.1.1,0,.15-.02.17-.04.06-.07.05-.13-.02-.18Zm-19.52-2.38c8.18-3.03,18.7-.81,20.25.27,0,0,.01,0,.02,0,.03.01.07,0,.08-.04,0,0,0-.01,0-.02.03-.41.04-.77.04-1.09.02-3.29.02-31.18-.01-34.52,0-.28-.1-.49-.32-.66-2.86-2.29-15.86-2.53-19.49-.38-.22.13-.39.29-.54.46-.04.04-.06.09-.06.15-.01.34-.02.68-.02,1.02-.01,3.4-.02,31.37-.02,34.76,0,.05.02.05.06.04Zm16.83-20.54c-4.56-1.62-10.94-1.32-14.4.1-.48.2-1,.02-1.2-.5-.26-.67.67-1.17,1.2-1.31,4.86-1.26,9.32-1.38,15.49.19.67.17,1.03.81.58,1.45-.36.51-1.13.26-1.66.07Zm0,6.35c-4.56-1.62-10.94-1.32-14.4.1-.48.2-1,.02-1.2-.5-.26-.67.67-1.17,1.2-1.31,4.86-1.26,9.32-1.38,15.49.19.67.17,1.03.81.58,1.45-.36.51-1.13.26-1.66.07Zm0,6.35c-4.56-1.62-10.94-1.32-14.4.1-.48.2-1,.02-1.2-.5-.26-.67.67-1.17,1.2-1.31,4.86-1.26,9.32-1.38,15.49.19.67.17,1.03.81.58,1.45-.36.51-1.13.26-1.66.07Zm0-19.06c-4.56-1.62-10.94-1.32-14.4.1-.48.2-1,.02-1.2-.5-.26-.67.67-1.17,1.2-1.31,4.86-1.26,9.32-1.38,15.49.19.67.17,1.03.81.58,1.45-.36.51-1.13.26-1.66.07Zm5.92,31.52c0-.11-.56-.21-1.25-.2-.69,0-1.25.1-1.25.21,0,.11.56.21,1.25.2.69,0,1.25-.1,1.25-.21Z"/>
</svg>