<?xml version="1.0" encoding="UTF-8"?>
<svg id="Layer_1" data-name="Layer 1" xmlns="http://www.w3.org/2000/svg" viewBox="0 0 80 80">
  <path d="m63.88,40.91c1.88-1.81,3.06-4.34,3.06-7.15,0-5.47-4.45-9.92-9.92-9.92s-9.92,4.45-9.92,9.92c0,2.83,1.2,5.38,3.11,7.19-2.1,1.05-3.95,2.56-5.39,4.45-1.67-1.47-3.57-2.7-5.64-3.62,3.18-2.64,5.21-6.62,5.21-11.07,0-7.92-6.45-14.37-14.37-14.37s-14.37,6.45-14.37,14.37c0,4.45,2.03,8.43,5.22,11.07-7.99,3.57-13.38,11.63-13.38,20.51,0,.75.61,1.37,1.37,1.37s1.37-.61,1.37-1.37c0-8.43,5.52-16.01,13.49-18.69,1.91.94,4.04,1.48,6.3,1.48s4.4-.54,6.31-1.48c7.94,2.65,13.44,10.24,13.44,18.69,0,.75.61,1.37,1.37,1.37s1.37-.61,1.37-1.37c0-5.62-2.14-10.91-5.73-14.95,1.54-2.12,3.68-3.72,6.14-4.57,1.25.57,2.64.9,4.1.9s2.89-.34,4.15-.92c5.07,1.71,8.59,6.58,8.59,11.99,0,.75.61,1.37,1.37,1.37s1.37-.61,1.37-1.37c0-5.91-3.44-11.29-8.62-13.84Zm-39,.22c-.19-.19-.44-.33-.7-.38-3.46-2.02-5.79-5.76-5.79-10.04,0-6.41,5.22-11.63,11.63-11.63s11.63,5.22,11.63,11.63c0,4.31-2.36,8.07-5.85,10.08-.19.05-.36.15-.51.28-1.58.81-3.37,1.28-5.27,1.28-1.85,0-3.59-.44-5.14-1.21Zm28.82-1.01s-.08-.04-.12-.06c-2.23-1.22-3.74-3.59-3.74-6.3,0-3.96,3.22-7.18,7.18-7.18s7.18,3.22,7.18,7.18-3.22,7.18-7.18,7.18c-1.2,0-2.33-.3-3.32-.82Z"/>
</svg>