<?xml version="1.0" encoding="UTF-8"?>
<svg id="Layer_1" data-name="Layer 1" xmlns="http://www.w3.org/2000/svg" viewBox="0 0 1440 1024">
  <defs>
    <style>
      .cls-1 {
        fill: #334456;
      }

      .cls-2 {
        fill: #fff;
      }

      .cls-3 {
        fill: #fafafa;
      }

      .cls-4 {
        fill: #232f3e;
      }

      .cls-5 {
        fill: #ffbd5c;
      }

      .cls-6 {
        fill: #e1e1e1;
      }

      .cls-7 {
        opacity: .4;
      }

      .cls-8 {
        opacity: .3;
      }

      .cls-9 {
        fill: #ececec;
      }
    </style>
  </defs>
  <g>
    <path class="cls-6" d="m976.18,360.68c-5.21.91-10.35-.95-13.76-5-3.42-4.06-4.39-9.46-2.58-14.45l28.75-79.56c1.8-4.99,6-8.53,11.22-9.46.02,0,.03,0,.05,0,5.21-.91,10.35.95,13.76,5l54.53,64.68c3.42,4.06,4.39,9.46,2.58,14.45-1.8,4.99-6,8.53-11.22,9.46l-83.28,14.88s-.03,0-.05,0Zm24.43-104.16s-.02,0-.03,0c-3.66.65-6.61,3.14-7.87,6.64l-28.75,79.56c-1.26,3.5-.59,7.29,1.81,10.14,2.39,2.84,6,4.15,9.65,3.5.01,0,.02,0,.03,0l83.28-14.88c3.66-.65,6.61-3.14,7.87-6.64,1.26-3.5.59-7.29-1.81-10.14l-54.53-64.68c-2.39-2.84-6-4.15-9.65-3.5Z"/>
    <path class="cls-6" d="m1007.75,331.02c-.54-2.96,1.37-5.73,4.61-6.33,3.17-.58,5.87,1.35,6.41,4.31.54,2.96-1.29,5.79-4.46,6.37-3.24.59-6.02-1.39-6.56-4.36Zm-7.44-43.44l10.2-1.86,4.17,32.57-6.82,1.25-7.55-31.95Z"/>
  </g>
  <g>
    <path class="cls-9" d="m976.02,657.96c-16.49-23.44-11.11-53.9-.9-79.33,1.7-4.24,2.88-8.95,6.29-11.98,3.41-3.03,9.12-3.87,12.31-.67,2.65,2.66,2.69,6.88,3.36,10.59.89,4.95,3.21,9.61,6.59,13.28,2.22,2.41,5.29,4.51,8.53,4,4.45-.7,6.74-5.66,8.27-9.95,2.84-7.98,5.68-15.97,8.52-23.95,1.52-4.28,3.09-8.65,5.9-12.23,2.8-3.57,7.11-6.28,11.58-5.94,4.48.34,8.66,4.5,8,9-.27,1.87-1.28,3.55-1.81,5.37-.53,1.82-.41,4.08,1.1,5.19,1.52,1.12,3.67.53,5.41-.26,5.98-2.71,10.99-7.19,15.79-11.7,4.8-4.51,9.57-9.19,15.28-12.44,5.71-3.26,12.6-4.98,18.85-3.1,6.25,1.87,11.4,8.02,10.77,14.59-.63,6.59-6.37,11.43-11.96,14.92-8.3,5.18-17.34,9.14-26.73,11.73-1.69.47-3.53.97-4.62,2.37-1.96,2.51-.29,6.32,2.18,8.28,2.8,2.22,6.38,3.14,9.57,4.74,3.19,1.6,6.27,4.38,6.39,7.99.17,5-5.15,8.26-9.83,9.95-9.38,3.39-19.32,5.16-29.25,5.19-3.56,0-7.24-.18-10.57,1.11-3.34,1.29-6.26,4.58-5.82,8.14.44,3.57,4.02,5.96,7.54,6.54,3.51.58,7.11-.13,10.68-.18,6.68-.09,14.12,3.07,16.04,9.51,1.26,4.23-.21,8.96-2.9,12.48-2.69,3.52-6.47,6.03-10.31,8.21-13.42,7.63-28.7,12.15-44.04,11.93-15.34-.22-28.43-3.52-40.17-13.38"/>
    <path class="cls-6" d="m988.52,644.23c8.5-11.62,18.88-23.58,30.16-35.72,2.83-3.02,5.63-6.01,8.39-8.96,2.76-2.93,5.5-5.84,8.35-8.52,5.68-5.39,11.56-10.13,17.27-14.46,5.72-4.33,11.3-8.24,16.55-11.85,5.26-3.6,10.22-6.87,14.87-9.65,9.29-5.6,17.3-9.23,22.9-11.49,2.8-1.14,5-1.95,6.5-2.49.72-.25,1.28-.45,1.71-.59.39-.13.59-.19.59-.17,0,.01-.19.1-.56.26-.42.17-.97.39-1.68.67-1.48.58-3.66,1.44-6.44,2.63-5.55,2.35-13.5,6.05-22.72,11.7-4.62,2.81-9.55,6.09-14.78,9.72-5.23,3.64-10.79,7.55-16.48,11.89-5.69,4.34-11.53,9.08-17.17,14.44-2.83,2.67-5.54,5.56-8.31,8.5-2.76,2.94-5.55,5.93-8.38,8.95-11.27,12.13-21.64,24.05-30.15,35.61"/>
    <path class="cls-6" d="m1035.65,591.08c-.06-.01.03-.71.24-1.97.2-1.26.56-3.08,1.03-5.32.94-4.47,2.45-10.61,4.14-17.37,1.69-6.76,3.11-12.9,3.98-17.38.44-2.24.78-4.05,1-5.31.22-1.26.38-1.95.43-1.94.06,0,.01.71-.11,1.99-.12,1.27-.37,3.11-.74,5.37-.72,4.52-2.05,10.71-3.74,17.47-1.68,6.67-3.21,12.69-4.37,17.3-.51,2.08-.94,3.84-1.29,5.25-.31,1.24-.51,1.92-.56,1.91Z"/>
    <path class="cls-6" d="m1094.33,600.74c-.02.05-.83-.14-2.29-.53-1.46-.39-3.56-.96-6.18-1.58-5.23-1.28-12.52-2.8-20.63-4.13-8.12-1.31-15.51-2.18-20.88-2.66-2.68-.26-4.86-.41-6.36-.52-1.5-.11-2.34-.19-2.34-.25,0-.06.84-.08,2.35-.08,1.51.01,3.7.07,6.4.25,5.4.33,12.83,1.11,20.97,2.42,8.14,1.33,15.43,2.95,20.64,4.38,2.61.7,4.7,1.36,6.13,1.84,1.43.49,2.21.79,2.19.85Z"/>
    <path class="cls-6" d="m989.56,643.46s-.07-.27-.13-.81c-.06-.63-.13-1.4-.22-2.33-.18-2.02-.37-4.96-.55-8.59-.37-7.26-.56-17.3-.62-28.38-.06-11.09-.16-21.12-.38-28.37-.11-3.53-.21-6.43-.28-8.59-.03-.94-.05-1.71-.06-2.34,0-.53,0-.82.04-.82.03,0,.07.28.13.81.06.63.13,1.4.22,2.33.18,2.02.37,4.96.55,8.59.37,7.26.56,17.3.62,28.38.06,11.08.16,21.11.38,28.37.12,3.53.21,6.43.28,8.59.03.94.05,1.71.06,2.34,0,.54,0,.82-.04.82Z"/>
    <path class="cls-6" d="m1071.12,646.42s-.29.04-.83.04c-.64-.02-1.43-.04-2.38-.06-2.19-.08-5.14-.18-8.74-.3-7.38-.25-17.58-.49-28.84-.73-11.27-.24-21.47-.57-28.85-.98-3.69-.2-6.67-.4-8.73-.57-.95-.09-1.73-.16-2.37-.22-.54-.06-.82-.1-.82-.13,0-.03.29-.04.83-.04.64.02,1.42.04,2.38.06,2.19.08,5.14.18,8.74.3,7.38.25,17.58.49,28.85.73,11.27.24,21.47.57,28.85.98,3.69.2,6.67.4,8.73.57.95.09,1.73.16,2.37.22.54.06.82.1.82.13Z"/>
  </g>
  <g>
    <path class="cls-9" d="m340.71,314.51s-11.13,4.51,1.71,28.14c12.84,23.63,21.61,35.27,21.61,35.27,0,0,2.31,5.5-2.35,6.49-4.66.99-15.01-.39-16.94,5.39-2.01,6,2.45,11.49,11.33,16.18,8.87,4.69,27.94,15.67,29.66,16.67,1.69.98,3.42,3.53.36,4.71-3.07,1.18-26.18,4.2-24.09,15.08,2.09,10.88,28.96,19.88,31.88,20.92,2.92,1.04,3.64,2.25,3.45,3.84-.19,1.59-8.06,1.87-14.6,3-6.54,1.13-13.93,3.58-12.19,9.76,1.73,6.18,17.84,18.84,56.22,21.6l17.87.11,9.33-15.34c17.96-34.04,15.73-54.4,11.41-59.14-4.33-4.74-10.32.23-14.73,5.19s-8.82,11.48-10.27,10.8c-1.45-.68-2.1-1.93-1.44-4.96.66-3.03,7.23-30.59-.9-38.12-8.13-7.53-22.92,10.49-25.54,12.47-2.62,1.98-3.86-.84-3.8-2.79.06-1.99.82-23.98,1.54-33.99.71-10.01-1.59-16.7-7.74-18.17-5.93-1.41-10.24,8.1-13.53,11.53-3.3,3.43-6.75-1.44-6.75-1.44,0,0-5.24-13.6-18.5-37-13.27-23.4-23.19-16.11-23.19-16.11"/>
    <path class="cls-6" d="m445.65,505.86c-9.68-17.22-26.36-48.12-40.82-74.57-14.46-26.44-27.57-50.37-37.15-67.64-4.79-8.61-8.68-15.59-11.38-20.44-1.33-2.4-2.37-4.27-3.09-5.56-.34-.62-.6-1.11-.79-1.45-.18-.33-.25-.5-.25-.5,0,0,.11.16.3.48.2.34.48.81.84,1.43.74,1.28,1.81,3.13,3.18,5.51,2.76,4.79,6.7,11.74,11.53,20.35,9.68,17.22,22.84,41.12,37.3,67.56,14.46,26.45,31.09,57.37,40.68,74.64"/>
    <path class="cls-6" d="m359.14,392.31s.46.08,1.25.31c.8.23,1.94.61,3.35,1.08,2.81.95,6.67,2.36,10.89,4,4.16,1.63,7.92,3.1,10.79,4.22,1.3.5,2.4.92,3.28,1.26.78.29,1.2.47,1.19.51-.01.04-.46-.07-1.26-.31-.8-.24-1.94-.61-3.34-1.1-2.8-.98-6.64-2.44-10.86-4.07-4.17-1.6-7.94-3.04-10.82-4.14-1.3-.49-2.4-.91-3.29-1.24-.77-.3-1.2-.48-1.18-.52Z"/>
    <path class="cls-6" d="m391.08,402.52c-.15-.05,2.41-8.12,5.72-18.02,3.3-9.91,6.1-17.9,6.24-17.85.15.05-2.41,8.12-5.72,18.02-3.3,9.9-6.1,17.9-6.24,17.85Z"/>
    <path class="cls-6" d="m411.45,444.13s.22-.42.7-1.12c.55-.79,1.23-1.78,2.04-2.95,1.72-2.49,4.08-5.94,6.54-9.85,2.47-3.9,4.59-7.51,6.1-10.13.71-1.23,1.31-2.27,1.79-3.11.43-.73.68-1.13.71-1.11.03.02-.15.45-.52,1.21-.37.76-.92,1.86-1.64,3.19-1.42,2.68-3.49,6.33-5.97,10.24-2.47,3.91-4.89,7.34-6.69,9.78-.91,1.22-1.65,2.19-2.19,2.85-.53.66-.84,1.02-.87.99Z"/>
    <path class="cls-6" d="m380.53,441.26s.44-.04,1.22-.01c.9.05,2.01.11,3.31.18,2.79.17,6.65.45,10.91.79,4.26.34,8.11.68,10.9.95,1.3.14,2.4.26,3.3.35.78.1,1.21.17,1.2.2,0,.04-.44.04-1.22.01-.9-.05-2.01-.11-3.31-.18-2.79-.17-6.65-.45-10.91-.79-4.26-.34-8.11-.68-10.89-.95-1.3-.14-2.4-.26-3.3-.35-.78-.1-1.21-.17-1.2-.2Z"/>
    <path class="cls-6" d="m393.84,480.28s.56-.04,1.56,0c1.11.05,2.53.13,4.24.21,3.58.2,8.53.52,13.99.9,5.46.38,10.4.76,13.98,1.07,1.71.16,3.13.29,4.23.39,1,.1,1.55.18,1.55.22,0,.04-.56.04-1.56,0-1.11-.05-2.53-.13-4.24-.21-3.58-.2-8.53-.52-13.99-.9-5.46-.38-10.4-.76-13.98-1.07-1.71-.16-3.13-.29-4.23-.39-1-.1-1.55-.18-1.55-.22Z"/>
    <path class="cls-6" d="m432.47,482.73s.27-.53.85-1.44c.63-.99,1.46-2.28,2.45-3.83,2.07-3.24,4.9-7.72,7.9-12.76,3-5.03,5.6-9.66,7.45-13.02.89-1.61,1.63-2.95,2.2-3.98.52-.94.83-1.45.86-1.43.03.02-.21.56-.67,1.53-.46.97-1.16,2.36-2.05,4.07-1.77,3.41-4.32,8.08-7.32,13.12-3,5.05-5.89,9.5-8.04,12.69-1.08,1.59-1.97,2.87-2.6,3.74-.63.87-.99,1.34-1.03,1.32Z"/>
  </g>
  <g>
    <g>
      <g>
        <g>
          <path class="cls-4" d="m965.8,334.41h-503.08c-8.67,0-15.7,7.03-15.7,15.7v355.34c0,8.67,7.03,15.7,15.7,15.7h193.08s12.28,37.98-25.79,57.63h180.54s-42.99-14.74-31.93-57.63h187.19c8.67,0,15.7-7.03,15.7-15.7v-355.34c0-8.67-7.03-15.7-15.7-15.7Z"/>
          <path class="cls-1" d="m720.98,682.9c6.84,9.78-3.87,20.49-13.65,13.65-.32-.23-.62-.52-.84-.84-6.82-9.78,3.87-20.48,13.65-13.65.32.23.62.52.84.84Z"/>
        </g>
        <path class="cls-2" d="m465.38,340.03h497.77c5.35,0,9.7,4.35,9.7,9.7v305.53H455.68v-305.53c0-5.35,4.35-9.7,9.7-9.7Z"/>
      </g>
      <path class="cls-9" d="m464.83,340.03h500.5c4.15,0,7.52,3.37,7.52,7.52v18.68H455.68v-17.04c0-5.05,4.1-9.15,9.15-9.15Z"/>
      <g>
        <circle class="cls-1" cx="472.15" cy="353.68" r="3.63"/>
        <circle class="cls-1" cx="482.98" cy="353.68" r="3.63"/>
        <path class="cls-1" d="m496.91,353.68c0,2.01-1.63,3.63-3.63,3.63s-3.63-1.63-3.63-3.63,1.63-3.63,3.63-3.63,3.63,1.63,3.63,3.63Z"/>
      </g>
    </g>
    <path class="cls-1" d="m875.86,720.32c0,.17-71.59.3-159.88.3s-159.89-.14-159.89-.3,71.57-.3,159.89-.3,159.88.14,159.88.3Z"/>
  </g>
  <path class="cls-6" d="m958.18,548.15c-4.29,27-13.65,46.61-28.07,58.84-14.42,12.23-32.09,16.68-53,13.35-21.01-3.34-36.52-13.07-46.53-29.19-10.01-16.11-12.87-37.67-8.57-64.67l7.55-47.48c4.28-26.9,13.64-46.51,28.07-58.84,14.44-12.32,32.16-16.81,53.17-13.47,20.91,3.33,36.37,13.1,46.36,29.31,9.99,16.21,12.85,37.77,8.57,64.67l-7.55,47.48Zm-26.25-58.32c2.7-17,1.85-30.04-2.55-39.11-4.4-9.07-12.07-14.48-23-16.22-10.93-1.74-19.88,1.03-26.83,8.29-6.96,7.27-11.79,19.4-14.49,36.4l-9.18,57.7c-2.72,17.1-1.86,30.21,2.59,39.34,4.44,9.13,12.13,14.56,23.06,16.3,10.93,1.74,19.85-1.03,26.76-8.3,6.91-7.28,11.73-19.51,14.46-36.7l9.18-57.7Z"/>
  <g>
    <path class="cls-5" d="m972.6,539.14c-4.29,27-13.65,46.61-28.07,58.84-14.42,12.23-32.09,16.68-53,13.35-21.01-3.34-36.52-13.07-46.53-29.19-10.01-16.11-12.87-37.67-8.57-64.67l7.55-47.48c4.28-26.9,13.64-46.51,28.07-58.84,14.44-12.32,32.16-16.81,53.17-13.47,20.91,3.33,36.37,13.1,46.36,29.31,9.99,16.21,12.85,37.77,8.57,64.67l-7.55,47.48Zm-26.25-58.32c2.7-17,1.85-30.04-2.55-39.11-4.4-9.08-12.07-14.48-23-16.22-10.93-1.74-19.88,1.03-26.83,8.29-6.96,7.27-11.79,19.4-14.49,36.4l-9.18,57.7c-2.72,17.1-1.86,30.21,2.59,39.34,4.44,9.13,12.13,14.56,23.06,16.3,10.93,1.74,19.85-1.03,26.76-8.3,6.91-7.28,11.73-19.51,14.46-36.7l9.18-57.7Z"/>
    <g class="cls-7">
      <path d="m972.6,539.14c-4.29,27-13.65,46.61-28.07,58.84-14.42,12.23-32.09,16.68-53,13.35-21.01-3.34-36.52-13.07-46.53-29.19-10.01-16.11-12.87-37.67-8.57-64.67l7.55-47.48c4.28-26.9,13.64-46.51,28.07-58.84,14.44-12.32,32.16-16.81,53.17-13.47,20.91,3.33,36.37,13.1,46.36,29.31,9.99,16.21,12.85,37.77,8.57,64.67l-7.55,47.48Zm-26.25-58.32c2.7-17,1.85-30.04-2.55-39.11-4.4-9.08-12.07-14.48-23-16.22-10.93-1.74-19.88,1.03-26.83,8.29-6.96,7.27-11.79,19.4-14.49,36.4l-9.18,57.7c-2.72,17.1-1.86,30.21,2.59,39.34,4.44,9.13,12.13,14.56,23.06,16.3,10.93,1.74,19.85-1.03,26.76-8.3,6.91-7.28,11.73-19.51,14.46-36.7l9.18-57.7Z"/>
    </g>
    <path class="cls-5" d="m992.56,542.32c-4.29,27-13.65,46.61-28.07,58.84-14.42,12.23-32.09,16.68-53,13.35-21.01-3.34-36.52-13.07-46.53-29.19-10.01-16.11-12.87-37.67-8.57-64.67l7.55-47.48c4.28-26.9,13.64-46.51,28.07-58.84,14.44-12.32,32.16-16.81,53.17-13.47,20.91,3.33,36.37,13.1,46.36,29.3,9.99,16.21,12.85,37.77,8.57,64.67l-7.55,47.48Zm-26.25-58.32c2.7-17,1.85-30.04-2.55-39.11-4.4-9.08-12.07-14.48-23-16.22-10.93-1.74-19.88,1.03-26.83,8.29-6.96,7.27-11.79,19.4-14.49,36.4l-9.18,57.7c-2.72,17.1-1.86,30.21,2.59,39.34,4.44,9.13,12.13,14.56,23.06,16.3,10.93,1.74,19.85-1.03,26.76-8.3,6.91-7.28,11.73-19.51,14.46-36.7l9.18-57.7Z"/>
    <path class="cls-5" d="m863.61,476.01c.03.14-4.91,1.23-11.02,2.41-6.11,1.19-11.09,2.04-11.12,1.89-.03-.14,4.9-1.23,11.02-2.41,6.11-1.19,11.09-2.04,11.12-1.89Z"/>
    <path class="cls-5" d="m861.59,494.94c.03.14-4.91,1.23-11.02,2.41-6.11,1.19-11.09,2.04-11.12,1.89-.03-.14,4.9-1.23,11.02-2.41,6.11-1.19,11.09-2.04,11.12-1.89Z"/>
    <path class="cls-5" d="m859.58,513.87c.03.14-4.91,1.23-11.02,2.41-6.11,1.19-11.09,2.04-11.12,1.89-.03-.14,4.9-1.23,11.02-2.41,6.11-1.19,11.09-2.04,11.12-1.89Z"/>
    <path class="cls-5" d="m857.56,532.79c.03.14-4.91,1.23-11.02,2.41-6.11,1.19-11.09,2.04-11.12,1.89-.03-.14,4.9-1.23,11.02-2.41,6.11-1.19,11.09-2.04,11.12-1.89Z"/>
    <path class="cls-5" d="m855.55,551.72c.01.07-1.1.36-2.92.76s-4.33.92-7.11,1.46c-2.78.54-5.31,1-7.14,1.31-1.83.31-2.97.46-2.99.39-.01-.07,1.1-.36,2.92-.76s4.33-.92,7.11-1.46c2.78-.54,5.31-1,7.14-1.31,1.83-.31,2.97-.46,2.99-.39Z"/>
    <path class="cls-5" d="m858,569.76c.01.07-.96.33-2.54.69-1.58.36-3.77.81-6.2,1.29-2.43.47-4.63.87-6.23,1.13-1.6.26-2.6.39-2.61.32-.01-.07.96-.33,2.54-.69,1.58-.36,3.77-.81,6.2-1.29,2.43-.47,4.63-.87,6.23-1.13,1.6-.26,2.6-.39,2.61-.32Z"/>
    <path class="cls-5" d="m866.8,587.42c.01.07-.85.31-2.26.63-1.41.32-3.36.73-5.52,1.15-2.16.42-4.12.77-5.55,1-1.43.23-2.31.33-2.33.26-.01-.07.85-.31,2.26-.63,1.41-.32,3.36-.73,5.52-1.15,2.16-.42,4.12-.77,5.55-1,1.43-.23,2.31-.33,2.33-.26Z"/>
    <path class="cls-5" d="m884.08,600.94c.01.07-.85.31-2.26.63-1.41.32-3.36.73-5.52,1.15-2.16.42-4.12.77-5.55,1-1.43.23-2.31.33-2.33.26-.01-.07.85-.31,2.26-.63,1.41-.32,3.36-.73,5.52-1.15,2.16-.42,4.12-.77,5.55-1,1.43-.23,2.31-.33,2.33-.26Z"/>
    <path class="cls-5" d="m948.24,570.66c.04.14-6.37,1.94-14.3,4.01-7.94,2.07-14.4,3.63-14.44,3.49-.04-.14,6.37-1.94,14.3-4.01,7.93-2.07,14.4-3.63,14.44-3.49Z"/>
    <path class="cls-5" d="m954.85,555.27c.04.14-5.25,1.65-11.81,3.36-6.56,1.71-11.91,2.98-11.95,2.84-.04-.14,5.25-1.64,11.81-3.36,6.56-1.71,11.91-2.98,11.94-2.84Z"/>
    <path class="cls-5" d="m959.69,537.54c.04.14-5.25,1.65-11.81,3.36-6.56,1.71-11.91,2.98-11.95,2.84-.04-.14,5.25-1.64,11.81-3.36,6.56-1.71,11.91-2.98,11.94-2.84Z"/>
    <path class="cls-5" d="m964.53,519.81c.04.14-5.25,1.65-11.81,3.36-6.56,1.71-11.91,2.98-11.95,2.84-.04-.14,5.25-1.64,11.81-3.36,6.56-1.71,11.91-2.98,11.94-2.84Z"/>
    <path class="cls-5" d="m969.37,502.09c.04.14-5.25,1.65-11.81,3.36-6.56,1.71-11.91,2.98-11.95,2.84-.04-.14,5.25-1.64,11.81-3.36,6.56-1.71,11.91-2.98,11.94-2.84Z"/>
    <path class="cls-5" d="m968.49,485.43c.04.14-5.25,1.65-11.81,3.36-6.56,1.71-11.91,2.98-11.95,2.84-.04-.14,5.25-1.64,11.81-3.36,6.56-1.71,11.91-2.98,11.94-2.84Z"/>
    <path class="cls-5" d="m971.41,468.14c.04.14-5.25,1.65-11.81,3.36-6.56,1.71-11.91,2.98-11.95,2.84-.04-.14,5.25-1.64,11.81-3.36,6.56-1.71,11.91-2.98,11.94-2.84Z"/>
    <path class="cls-5" d="m972.37,451.56c.04.14-5.25,1.65-11.81,3.36-6.56,1.71-11.91,2.98-11.95,2.84-.04-.14,5.25-1.64,11.81-3.36,6.56-1.71,11.91-2.98,11.94-2.84Z"/>
    <path class="cls-5" d="m958.82,437.61c.04.14-3.17,1.1-7.16,2.14-3.99,1.04-7.26,1.77-7.29,1.63-.04-.14,3.17-1.1,7.16-2.14,3.99-1.04,7.25-1.77,7.29-1.63Z"/>
    <path class="cls-5" d="m951.73,429.27c.04.14-3.17,1.1-7.16,2.14-3.99,1.04-7.26,1.77-7.29,1.63-.04-.14,3.17-1.1,7.16-2.14,3.99-1.04,7.25-1.77,7.29-1.63Z"/>
    <path class="cls-5" d="m868.33,453.46c.03.14-4.91,1.23-11.02,2.41-6.11,1.19-11.09,2.04-11.12,1.89-.03-.14,4.9-1.23,11.02-2.41,6.11-1.19,11.09-2.04,11.12-1.89Z"/>
    <path class="cls-5" d="m878.04,431.07c.03.14-5.32,1.31-11.95,2.59-6.63,1.29-12.02,2.22-12.05,2.07-.03-.14,5.32-1.31,11.95-2.6,6.62-1.29,12.02-2.22,12.05-2.07Z"/>
    <path class="cls-5" d="m896.99,410.49c.03.14-6.75,1.58-15.14,3.22-8.39,1.63-15.22,2.84-15.24,2.69-.03-.14,6.75-1.58,15.14-3.22,8.39-1.63,15.21-2.84,15.24-2.69Z"/>
  </g>
  <g>
    <path class="cls-6" d="m772.38,531.17c-.66,27.33-7.33,48.01-19.99,62.05-12.67,14.04-29.59,20.8-50.75,20.29-21.27-.52-37.93-8.09-50-22.73-12.06-14.64-17.76-35.62-17.1-62.95l1.17-48.07c.66-27.23,7.33-47.92,19.99-62.05,12.67-14.13,29.63-20.94,50.9-20.43,21.17.51,37.79,8.14,49.85,22.88,12.06,14.74,17.76,35.72,17.1,62.95l-1.17,48.07Zm-33.78-54.3c.42-17.21-2.16-30.02-7.73-38.43-5.57-8.41-13.89-12.75-24.96-13.02-11.07-.27-19.56,3.66-25.49,11.79-5.93,8.13-9.1,20.8-9.52,38.01l-1.42,58.4c-.42,17.31,2.18,30.19,7.8,38.65,5.62,8.46,13.96,12.82,25.03,13.09,11.06.27,19.54-3.66,25.42-11.79,5.88-8.13,9.03-20.9,9.45-38.3l1.42-58.4Z"/>
    <g>
      <path class="cls-5" d="m785.47,520.33c-.66,27.33-7.33,48.01-19.99,62.05-12.67,14.04-29.59,20.8-50.75,20.29-21.27-.52-37.93-8.09-50-22.73-12.06-14.64-17.76-35.62-17.1-62.95l1.17-48.07c.66-27.23,7.33-47.92,19.99-62.05,12.67-14.13,29.63-20.94,50.9-20.43,21.17.51,37.79,8.14,49.85,22.88,12.06,14.74,17.76,35.72,17.1,62.95l-1.17,48.07Zm-33.78-54.3c.42-17.21-2.16-30.02-7.73-38.43-5.57-8.41-13.89-12.75-24.96-13.02-11.07-.27-19.56,3.66-25.49,11.79-5.93,8.13-9.1,20.8-9.52,38.01l-1.42,58.4c-.42,17.31,2.18,30.19,7.8,38.65,5.62,8.46,13.96,12.82,25.03,13.09,11.06.27,19.54-3.66,25.42-11.79,5.88-8.13,9.03-20.9,9.45-38.3l1.42-58.4Z"/>
      <g class="cls-7">
        <path d="m785.47,520.33c-.66,27.33-7.33,48.01-19.99,62.05-12.67,14.04-29.59,20.8-50.75,20.29-21.27-.52-37.93-8.09-50-22.73-12.06-14.64-17.76-35.62-17.1-62.95l1.17-48.07c.66-27.23,7.33-47.92,19.99-62.05,12.67-14.13,29.63-20.94,50.9-20.43,21.17.51,37.79,8.14,49.85,22.88,12.06,14.74,17.76,35.72,17.1,62.95l-1.17,48.07Zm-33.78-54.3c.42-17.21-2.16-30.02-7.73-38.43-5.57-8.41-13.89-12.75-24.96-13.02-11.07-.27-19.56,3.66-25.49,11.79-5.93,8.13-9.1,20.8-9.52,38.01l-1.42,58.4c-.42,17.31,2.18,30.19,7.8,38.65,5.62,8.46,13.96,12.82,25.03,13.09,11.06.27,19.54-3.66,25.42-11.79,5.88-8.13,9.03-20.9,9.45-38.3l1.42-58.4Z"/>
      </g>
      <path class="cls-5" d="m805.67,520.82c-.66,27.33-7.33,48.01-19.99,62.05-12.67,14.04-29.59,20.8-50.75,20.29-21.27-.52-37.93-8.09-50-22.73-12.06-14.64-17.76-35.62-17.1-62.95l1.17-48.07c.66-27.23,7.33-47.92,19.99-62.05,12.67-14.13,29.63-20.94,50.9-20.43,21.17.51,37.79,8.14,49.85,22.88,12.06,14.74,17.76,35.72,17.1,62.95l-1.17,48.07Zm-33.78-54.3c.42-17.21-2.16-30.02-7.73-38.43-5.57-8.41-13.89-12.75-24.96-13.02-11.07-.27-19.56,3.66-25.49,11.79-5.93,8.13-9.1,20.8-9.52,38.01l-1.42,58.4c-.42,17.31,2.18,30.19,7.8,38.64,5.62,8.46,13.96,12.82,25.03,13.09,11.06.27,19.54-3.66,25.42-11.79,5.88-8.13,9.03-20.9,9.45-38.3l1.42-58.4Z"/>
      <path class="cls-5" d="m669.05,472.26c.05.14-4.7,1.87-10.6,3.86-5.9,1.99-10.72,3.49-10.77,3.35-.05-.14,4.7-1.87,10.6-3.86,5.9-1.99,10.72-3.49,10.77-3.35Z"/>
      <path class="cls-5" d="m669.57,491.29c.05.14-4.7,1.87-10.6,3.86-5.9,1.99-10.72,3.49-10.77,3.35-.05-.14,4.7-1.87,10.6-3.86,5.9-1.99,10.72-3.49,10.77-3.35Z"/>
      <path class="cls-5" d="m670.09,510.31c.05.14-4.7,1.87-10.6,3.86-5.9,1.99-10.72,3.49-10.77,3.35-.05-.14,4.7-1.87,10.6-3.86,5.9-1.99,10.72-3.49,10.77-3.35Z"/>
      <path class="cls-5" d="m670.61,529.34c.05.14-4.7,1.87-10.6,3.86-5.9,1.99-10.72,3.49-10.77,3.35-.05-.14,4.7-1.87,10.6-3.86,5.9-1.99,10.72-3.49,10.77-3.35Z"/>
      <path class="cls-5" d="m671.13,548.37c.02.07-1.04.5-2.79,1.14s-4.17,1.49-6.85,2.4c-2.69.91-5.13,1.7-6.9,2.25-1.78.55-2.89.85-2.91.78-.02-.07,1.04-.5,2.79-1.14s4.17-1.49,6.85-2.4c2.69-.91,5.13-1.7,6.9-2.25,1.78-.55,2.89-.85,2.91-.78Z"/>
      <path class="cls-5" d="m675.97,565.92c.02.07-.9.45-2.42,1.02-1.52.56-3.63,1.31-5.97,2.1-2.34.79-4.47,1.48-6.02,1.95-1.55.47-2.52.73-2.54.66-.02-.07.9-.45,2.42-1.02,1.52-.56,3.63-1.31,5.97-2.1,2.34-.79,4.47-1.48,6.02-1.95,1.55-.47,2.52-.73,2.54-.66Z"/>
      <path class="cls-5" d="m687.03,582.25c.02.07-.8.42-2.15.93-1.35.51-3.23,1.17-5.32,1.88-2.09.7-3.99,1.31-5.37,1.73-1.38.42-2.25.64-2.27.57-.02-.07.8-.42,2.15-.93,1.35-.51,3.23-1.17,5.32-1.88,2.09-.7,3.98-1.31,5.37-1.73,1.38-.42,2.25-.64,2.27-.57Z"/>
      <path class="cls-5" d="m705.96,593.35c.02.07-.8.42-2.15.93-1.35.51-3.23,1.17-5.32,1.88-2.09.7-3.99,1.31-5.37,1.73-1.38.42-2.25.64-2.27.57-.02-.07.8-.42,2.15-.93,1.35-.51,3.23-1.17,5.32-1.88,2.09-.7,3.98-1.31,5.37-1.73,1.38-.42,2.25-.64,2.27-.57Z"/>
      <path class="cls-5" d="m765.52,554.81c.06.14-6.05,2.77-13.64,5.87-7.59,3.11-13.79,5.52-13.84,5.38-.06-.14,6.05-2.77,13.64-5.87,7.59-3.11,13.79-5.52,13.84-5.38Z"/>
      <path class="cls-5" d="m770.02,538.67c.06.14-4.99,2.33-11.26,4.9-6.28,2.57-11.41,4.54-11.46,4.4-.06-.14,4.98-2.33,11.26-4.9,6.27-2.57,11.4-4.54,11.46-4.4Z"/>
      <path class="cls-5" d="m772.46,520.46c.06.14-4.99,2.33-11.26,4.9-6.28,2.57-11.41,4.54-11.46,4.4-.06-.14,4.98-2.33,11.26-4.9,6.27-2.57,11.4-4.54,11.46-4.4Z"/>
      <path class="cls-5" d="m774.9,502.25c.06.14-4.99,2.33-11.26,4.9-6.28,2.57-11.41,4.54-11.46,4.4-.06-.14,4.98-2.33,11.26-4.9,6.27-2.57,11.4-4.54,11.46-4.4Z"/>
      <path class="cls-5" d="m777.33,484.03c.06.14-4.99,2.33-11.26,4.9-6.28,2.57-11.41,4.54-11.46,4.4-.06-.14,4.98-2.33,11.26-4.9,6.27-2.57,11.4-4.54,11.46-4.4Z"/>
      <path class="cls-5" d="m774.25,467.63c.06.14-4.99,2.33-11.26,4.9-6.28,2.57-11.41,4.54-11.46,4.4-.06-.14,4.98-2.33,11.26-4.9,6.27-2.57,11.4-4.54,11.46-4.4Z"/>
      <path class="cls-5" d="m774.84,450.12c.06.14-4.99,2.33-11.26,4.9-6.28,2.57-11.41,4.54-11.46,4.4-.06-.14,4.98-2.33,11.26-4.9,6.27-2.57,11.4-4.54,11.46-4.4Z"/>
      <path class="cls-5" d="m773.59,433.56c.06.14-4.99,2.33-11.26,4.9-6.28,2.57-11.41,4.54-11.46,4.4-.06-.14,4.98-2.33,11.26-4.9,6.27-2.57,11.4-4.54,11.46-4.4Z"/>
      <path class="cls-5" d="m758.3,421.53c.06.14-2.99,1.51-6.81,3.08-3.82,1.56-6.96,2.72-7.01,2.58-.06-.14,2.99-1.51,6.81-3.08,3.82-1.56,6.95-2.72,7.01-2.58Z"/>
      <path class="cls-5" d="m750.16,414.21c.06.14-2.99,1.51-6.81,3.08-3.82,1.56-6.96,2.72-7.01,2.58-.06-.14,2.99-1.51,6.81-3.08,3.82-1.56,6.95-2.72,7.01-2.58Z"/>
      <path class="cls-5" d="m670.73,449.28c.05.14-4.7,1.87-10.6,3.86-5.9,1.99-10.72,3.49-10.77,3.35-.05-.14,4.7-1.87,10.6-3.86,5.9-1.99,10.72-3.49,10.77-3.35Z"/>
      <path class="cls-5" d="m677.37,425.8c.05.14-5.1,2-11.49,4.16-6.4,2.16-11.62,3.8-11.67,3.66-.05-.14,5.1-2,11.49-4.16,6.39-2.16,11.62-3.8,11.66-3.66Z"/>
      <path class="cls-5" d="m693.42,402.88c.05.14-6.48,2.47-14.58,5.2-8.1,2.73-14.7,4.84-14.75,4.7-.05-.14,6.48-2.47,14.58-5.2,8.1-2.73,14.7-4.84,14.75-4.7Z"/>
    </g>
  </g>
  <path class="cls-6" d="m592.54,539.28l26.49-2.06,2.18,28.07-26.49,2.06,3.63,46.64-34.84,2.71-3.63-46.64-72.98,5.67.06-30.83,59.1-137.71,35.99-2.8,10.48,134.88Zm-91.12,7.08l56.28-4.37-6.61-85.07-.89-.22-2.4,6.41-46.39,83.26Z"/>
  <g>
    <path class="cls-5" d="m576.32,525.69l26.49-2.06,2.18,28.07-26.49,2.06,3.63,46.64-34.84,2.71-3.63-46.64-89.97,6.99-2.52-21.27,78.67-148.58,35.99-2.8,10.48,134.88Zm-91.12,7.08l56.28-4.37-6.61-85.07-.89-.22-2.4,6.41-46.39,83.26Z"/>
    <g class="cls-7">
      <path d="m576.32,525.69l26.49-2.06,2.18,28.07-26.49,2.06,3.63,46.64-34.84,2.71-3.63-46.64-89.97,6.99-2.52-21.27,78.67-148.58,35.99-2.8,10.48,134.88Zm-91.12,7.08l56.28-4.37-6.61-85.07-.89-.22-2.4,6.41-46.39,83.26Z"/>
    </g>
    <path class="cls-5" d="m553.25,527.38l26.49-2.06,2.18,28.07-26.49,2.06,3.63,46.64-34.84,2.71-3.63-46.64-89.97,6.99-2.52-21.27,78.67-148.58,35.99-2.8,10.48,134.88Zm-91.12,7.08l56.28-4.37-6.61-85.07-.89-.22-2.4,6.41-46.39,83.26Z"/>
    <g>
      <path class="cls-5" d="m496.12,514.42s-.39.25-1.12.64c-.73.38-1.8.92-3.12,1.57-2.64,1.3-6.32,3.04-10.41,4.91-4.09,1.86-7.81,3.5-10.52,4.64-1.35.57-2.46,1.02-3.22,1.32-.77.3-1.19.45-1.2.42,0-.03.4-.23,1.15-.57.81-.37,1.88-.85,3.17-1.44,2.74-1.24,6.41-2.91,10.47-4.75,4.05-1.86,7.72-3.54,10.45-4.79,1.29-.59,2.36-1.08,3.17-1.45.75-.34,1.17-.52,1.18-.49Z"/>
      <path class="cls-5" d="m508.65,491.74s-.4.25-1.14.62c-.74.37-1.82.89-3.17,1.52-2.68,1.26-6.41,2.93-10.55,4.72-4.14,1.79-7.91,3.36-10.65,4.46-1.37.55-2.48.98-3.26,1.26-.77.28-1.21.43-1.21.4,0-.03.41-.22,1.17-.55.82-.35,1.9-.82,3.21-1.38,2.77-1.19,6.49-2.79,10.61-4.57,4.11-1.79,7.83-3.41,10.59-4.61,1.31-.57,2.39-1.04,3.21-1.4.76-.33,1.18-.5,1.19-.47Z"/>
      <path class="cls-5" d="m574.49,511.7s-.28.22-.81.55c-.54.33-1.32.79-2.3,1.35-1.95,1.12-4.67,2.63-7.72,4.22-3.04,1.59-5.83,2.97-7.87,3.94-1.02.48-1.84.86-2.42,1.12-.58.25-.9.38-.91.36-.01-.03.29-.2.84-.5.63-.33,1.42-.74,2.36-1.24,2.08-1.08,4.8-2.48,7.8-4.04,2.99-1.58,5.7-3.02,7.77-4.11.94-.49,1.73-.91,2.36-1.24.56-.29.88-.43.89-.41Z"/>
      <path class="cls-5" d="m602.75,527.5s-.28.22-.81.55c-.54.33-1.32.79-2.3,1.35-1.95,1.12-4.67,2.63-7.72,4.22-3.04,1.59-5.83,2.97-7.87,3.94-1.02.48-1.84.86-2.42,1.12-.58.25-.9.38-.91.36-.01-.03.29-.2.84-.5.63-.33,1.42-.74,2.36-1.24,2.08-1.08,4.8-2.48,7.8-4.04,2.99-1.58,5.7-3.02,7.77-4.11.94-.49,1.73-.91,2.36-1.24.56-.29.88-.43.89-.41Z"/>
      <path class="cls-5" d="m603.97,541.62s-.28.22-.81.55c-.54.33-1.32.79-2.3,1.35-1.95,1.12-4.67,2.63-7.72,4.22-3.04,1.59-5.83,2.97-7.87,3.94-1.02.48-1.84.86-2.42,1.12-.58.25-.9.38-.91.36-.01-.03.29-.2.84-.5.63-.33,1.42-.74,2.36-1.24,2.08-1.08,4.8-2.48,7.8-4.04,2.99-1.58,5.7-3.02,7.77-4.11.94-.49,1.73-.91,2.36-1.24.56-.29.88-.43.89-.41Z"/>
      <path class="cls-5" d="m578.43,554.25s-.27.22-.78.54c-.52.33-1.28.79-2.22,1.34-1.89,1.11-4.52,2.61-7.47,4.2-2.95,1.58-5.65,2.96-7.62,3.92-.99.48-1.79.86-2.35,1.11-.56.25-.87.38-.89.35-.01-.03.28-.2.81-.5.62-.33,1.38-.74,2.29-1.23,2.01-1.07,4.65-2.47,7.56-4.02,2.9-1.57,5.51-3,7.52-4.09.91-.49,1.67-.9,2.29-1.23.54-.28.85-.43.86-.4Z"/>
      <path class="cls-5" d="m579.55,569.5s-.27.22-.78.54c-.52.33-1.28.79-2.22,1.34-1.89,1.11-4.52,2.61-7.47,4.2-2.95,1.58-5.65,2.96-7.62,3.92-.99.48-1.79.86-2.35,1.11-.56.25-.87.38-.89.35-.01-.03.28-.2.81-.5.62-.33,1.38-.74,2.29-1.23,2.01-1.07,4.65-2.47,7.56-4.02,2.9-1.57,5.51-3,7.52-4.09.91-.49,1.67-.9,2.29-1.23.54-.28.85-.43.86-.4Z"/>
      <path class="cls-5" d="m580.68,584.75s-.27.22-.78.54c-.52.33-1.28.79-2.22,1.34-1.89,1.11-4.52,2.61-7.47,4.2-2.95,1.58-5.65,2.96-7.62,3.92-.99.48-1.79.86-2.35,1.11-.56.25-.87.38-.89.35-.01-.03.28-.2.81-.5.62-.33,1.38-.74,2.29-1.23,2.01-1.07,4.65-2.47,7.56-4.02,2.9-1.57,5.51-3,7.52-4.09.91-.49,1.67-.9,2.29-1.23.54-.28.85-.43.86-.4Z"/>
      <path class="cls-5" d="m573.33,495.59s-.28.22-.81.55c-.54.33-1.32.79-2.3,1.35-1.95,1.12-4.67,2.63-7.72,4.22-3.04,1.59-5.83,2.97-7.87,3.94-1.02.48-1.84.86-2.42,1.12-.58.25-.9.38-.91.36-.01-.03.29-.2.84-.5.63-.33,1.42-.74,2.36-1.24,2.08-1.08,4.8-2.48,7.8-4.04,2.99-1.58,5.7-3.02,7.77-4.11.94-.49,1.73-.91,2.36-1.24.56-.29.88-.43.89-.41Z"/>
      <path class="cls-5" d="m572.16,479.48s-.28.22-.81.55c-.54.33-1.32.79-2.3,1.35-1.95,1.12-4.67,2.63-7.72,4.22-3.04,1.59-5.83,2.97-7.87,3.94-1.02.48-1.84.86-2.42,1.12-.58.25-.9.38-.91.36-.01-.03.29-.2.84-.5.63-.33,1.42-.74,2.36-1.24,2.08-1.08,4.8-2.48,7.8-4.04,2.99-1.58,5.7-3.02,7.77-4.11.94-.49,1.73-.91,2.36-1.24.56-.29.88-.43.89-.41Z"/>
      <path class="cls-5" d="m570.4,460.68s-.26.21-.77.53c-.51.32-1.26.76-2.19,1.29-1.86,1.07-4.45,2.51-7.35,4.03-2.9,1.52-5.56,2.83-7.5,3.74-.97.46-1.76.82-2.31,1.06-.55.24-.86.36-.87.34-.01-.03.27-.2.8-.48.61-.32,1.36-.71,2.25-1.18,1.99-1.03,4.57-2.37,7.44-3.85,2.85-1.51,5.42-2.87,7.4-3.92.89-.47,1.64-.86,2.25-1.18.53-.27.84-.41.85-.39Z"/>
      <path class="cls-5" d="m569.36,441.06s-.26.21-.77.53c-.51.32-1.26.76-2.19,1.29-1.86,1.07-4.45,2.51-7.35,4.03-2.9,1.52-5.56,2.83-7.5,3.74-.97.46-1.76.82-2.31,1.06-.55.24-.86.36-.87.34-.01-.03.27-.2.8-.48.61-.32,1.36-.71,2.25-1.18,1.99-1.03,4.57-2.37,7.44-3.85,2.85-1.51,5.42-2.87,7.4-3.92.89-.47,1.64-.86,2.25-1.18.53-.27.84-.41.85-.39Z"/>
      <path class="cls-5" d="m568.05,420.95s-.27.23-.81.57c-.54.35-1.32.83-2.3,1.42-1.95,1.18-4.67,2.77-7.72,4.46-3.05,1.69-5.86,3.15-7.9,4.18-1.02.51-1.85.92-2.43,1.2-.58.27-.91.41-.92.39-.01-.02.29-.21.84-.53.64-.35,1.43-.79,2.37-1.31,2.09-1.14,4.82-2.63,7.83-4.28,3-1.67,5.7-3.19,7.78-4.35.94-.52,1.73-.95,2.37-1.31.56-.3.88-.46.9-.43Z"/>
      <path class="cls-5" d="m567.29,401.82s-.29.21-.84.53c-.56.32-1.37.77-2.38,1.31-2.02,1.09-4.85,2.55-8,4.09-3.16,1.54-6.06,2.87-8.17,3.81-1.06.47-1.91.84-2.51,1.08-.6.25-.94.37-.95.34s.3-.2.87-.49c.66-.32,1.48-.72,2.45-1.2,2.16-1.04,4.98-2.41,8.1-3.91,3.1-1.53,5.9-2.92,8.06-3.98.97-.47,1.79-.87,2.45-1.2.58-.28.91-.42.93-.39Z"/>
      <path class="cls-5" d="m514.39,470.88c.07.13-5.22,2.89-11.8,6.15-6.59,3.27-11.98,5.81-12.04,5.68-.07-.13,5.22-2.89,11.81-6.15,6.58-3.27,11.98-5.81,12.04-5.68Z"/>
      <path class="cls-5" d="m512.35,454.48c.08.12-1.62,1.37-3.95,2.53-2.32,1.17-4.34,1.78-4.39,1.65-.05-.14,1.86-.97,4.15-2.13,2.29-1.14,4.1-2.18,4.19-2.05Z"/>
    </g>
  </g>
  <g>
    <g>
      <path class="cls-3" d="m668.36,347.85l-11.53-20.33c5.1-8.28,8.05-18.03,8.05-28.48,0-30.03-24.34-54.37-54.37-54.37s-54.37,24.34-54.37,54.37,24.34,54.37,54.37,54.37c12.54,0,24.08-4.26,33.28-11.39l-.02.02,24.6,5.79Z"/>
      <path class="cls-4" d="m668.36,347.85c-1.06-.24-8.91-2.04-24.63-5.65-.08-.02-.13-.1-.11-.18,0-.02.02-.04.03-.06l.02-.02.21.21c-3.1,2.4-6.82,4.77-11.18,6.74-4.37,1.94-9.38,3.52-14.91,4.25-2.76.35-5.64.58-8.61.43-1.48-.08-2.99-.12-4.51-.25-1.51-.23-3.04-.46-4.59-.69-6.16-1.22-12.45-3.55-18.32-7.2-5.87-3.63-11.3-8.56-15.65-14.62-4.35-6.05-7.64-13.21-9.19-21-1.53-7.78-1.4-16.11.64-24.18,2.06-8.04,5.9-15.89,11.65-22.36l2.22-2.44c.73-.82,1.6-1.5,2.39-2.25.83-.71,1.57-1.52,2.46-2.15.87-.65,1.74-1.3,2.61-1.95.84-.68,1.78-1.23,2.7-1.79.92-.56,1.84-1.12,2.76-1.67.96-.47,1.93-.94,2.89-1.4.97-.45,1.9-.97,2.91-1.3,7.9-3.14,16.32-4.33,24.37-3.75,8.05.58,15.76,2.89,22.37,6.61,6.63,3.69,12.22,8.62,16.54,14.12,4.33,5.51,7.38,11.58,9.27,17.63,1.88,6.08,2.39,12.1,2.37,17.68-.16,5.59-1.18,10.75-2.66,15.27-1.49,4.53-3.44,8.42-5.45,11.7v-.15c7.31,13.07,10.9,19.49,11.41,20.4-.52-.9-4.19-7.28-11.66-20.26-.03-.05-.02-.1,0-.15,1.98-3.27,3.9-7.15,5.36-11.66,1.45-4.5,2.44-9.62,2.58-15.17,0-5.54-.52-11.51-2.4-17.53-1.89-5.99-4.93-12-9.23-17.45-4.29-5.44-9.83-10.31-16.4-13.96-6.55-3.67-14.17-5.95-22.14-6.51-7.97-.57-16.29.62-24.1,3.72-1,.32-1.92.84-2.88,1.28-.95.46-1.9.92-2.85,1.39-.91.55-1.82,1.1-2.73,1.66-.92.55-1.84,1.09-2.67,1.77-.86.64-1.72,1.28-2.58,1.93-.88.62-1.62,1.42-2.44,2.13-.78.75-1.64,1.41-2.36,2.23l-2.2,2.42c-5.69,6.39-9.49,14.16-11.53,22.11-2.02,7.98-2.16,16.23-.65,23.92,1.52,7.71,4.77,14.8,9.07,20.79,4.3,6,9.67,10.89,15.47,14.5,5.81,3.62,12.04,5.95,18.13,7.17,1.54.24,3.06.47,4.55.7,1.51.13,3,.17,4.47.26,2.94.15,5.8-.06,8.54-.4,5.49-.71,10.47-2.26,14.82-4.17,4.35-1.94,8.05-4.27,11.15-6.64.07-.05.16-.04.21.03.04.06.04.13,0,.19l-.02.02-.09-.24c15.67,3.79,23.51,5.68,24.56,5.94Z"/>
    </g>
    <g>
      <rect class="cls-5" x="605.09" y="278.44" width="9.36" height="41.94" transform="translate(398.55 -346.23) rotate(45.73)"/>
      <rect class="cls-5" x="605.09" y="278.44" width="9.36" height="41.94" transform="translate(-35.87 510.62) rotate(-44.27)"/>
    </g>
  </g>
  <path class="cls-4" d="m1118.46,779.25c0,.17-178.73.31-399.16.31s-399.2-.14-399.2-.31,178.69-.31,399.2-.31,399.16.14,399.16.31Z"/>
  <g>
    <g>
      <path class="cls-5" d="m376.66,708.94v-13.26c-16.56,0-13.79-10.23-13.79-44.29,0-23.39.73-35.8-8.62-35.8-8.63,0-10.7,6.06-10.7,32.67,0,49.28,6.58,60.68,33.11,60.68Z"/>
      <path class="cls-5" d="m393.92,750.01v-13.26c16.56,0,13.79-10.23,13.79-44.29,0-23.39-.73-35.8,8.62-35.8,8.63,0,10.7,6.06,10.7,32.67,0,49.28-6.58,60.68-33.11,60.68Z"/>
      <g class="cls-8">
        <polygon points="399.72 736.12 402.31 749.52 397.8 749.92 397.13 736.59 399.72 736.12"/>
      </g>
      <path class="cls-5" d="m385.74,573.57c-13.11,0-12.14,17.15-12.14,38.15v167.02h24.27v-167.02c0-21,.97-38.15-12.14-38.15Z"/>
      <path class="cls-5" d="m385.74,573.57c-13.11,0-12.14,17.15-12.14,38.15v167.02h24.27v-167.02c0-21,.97-38.15-12.14-38.15Z"/>
      <path class="cls-4" d="m378.69,779.27s-.02-.18-.03-.53c0-.38,0-.9-.01-1.57,0-1.41,0-3.43,0-6.02.03-5.26.08-12.82.14-22.16.18-18.73.42-44.56.69-73.09.34-28.54.65-54.37.87-73.1.06-4.68.12-8.91.39-12.63.28-3.71.75-6.9,1.35-9.45.6-2.55,1.27-4.48,1.79-5.76.25-.64.49-1.11.63-1.44.15-.32.24-.48.24-.48,0,0-.05.17-.18.5-.12.33-.34.81-.57,1.46-.48,1.29-1.11,3.22-1.67,5.77-.57,2.55-1,5.72-1.24,9.42-.24,3.7-.27,7.93-.3,12.61-.18,18.73-.42,44.56-.69,73.1-.34,28.53-.65,54.36-.87,73.09-.14,9.33-.25,16.89-.33,22.15-.05,2.59-.09,4.62-.12,6.02-.02.67-.04,1.19-.05,1.57-.01.35-.04.53-.04.53Z"/>
      <path class="cls-4" d="m389.65,779.02s-.02-.18-.03-.53c0-.38,0-.9-.02-1.56,0-1.4,0-3.42,0-6,.02-5.24.06-12.77.1-22.06.14-18.65.34-44.37.56-72.78.29-28.42.55-54.14.74-72.79.06-4.66.1-8.87-.06-12.56-.14-3.69-.47-6.86-.87-9.43-.4-2.57-.88-4.53-1.22-5.86-.18-.64-.32-1.14-.42-1.5-.09-.34-.13-.52-.13-.52,0,0,1.11,2.69,2,7.84.44,2.57.81,5.75.98,9.45.19,3.7.18,7.92.15,12.58-.14,18.65-.34,44.38-.56,72.79-.29,28.41-.55,54.13-.74,72.78-.12,9.29-.23,16.82-.3,22.06-.05,2.58-.09,4.6-.11,6-.02.66-.03,1.18-.04,1.56-.01.35-.04.53-.04.53Z"/>
      <path class="cls-4" d="m398.13,749.79c-.17,0-.41-3.02-.54-6.76-.13-3.74-.1-6.78.07-6.78s.41,3.02.54,6.76c.13,3.74.1,6.78-.07,6.78Z"/>
      <path class="cls-4" d="m416.98,656.8s.04.33.06.96c.02.68.04,1.6.07,2.74.03,2.45.07,5.88.13,10.09.05,8.57.11,20.32.18,33.29.04,6.49-.01,12.75-1.16,18.32-1.07,5.57-3.39,10.32-6.17,13.6-2.75,3.31-5.79,5.23-8.02,6.09-2.23.89-3.58.98-3.58.98-.02-.08,1.31-.25,3.48-1.2,2.17-.92,5.11-2.85,7.77-6.15,2.69-3.26,4.92-7.92,5.95-13.43,1.11-5.5,1.14-11.71,1.1-18.2,0-12.97,0-24.71,0-33.29.03-4.21.05-7.64.07-10.09.02-1.15.04-2.06.05-2.74.02-.63.04-.96.06-.96Z"/>
      <path class="cls-4" d="m373.59,695.18c.17,0,.31,3.41.31,7.62s-.14,7.62-.31,7.62-.31-3.41-.31-7.62.14-7.62.31-7.62Z"/>
      <path class="cls-4" d="m353.61,615.6s.03.34.03.97c-.01.69-.03,1.62-.04,2.79-.07,2.48-.17,5.97-.29,10.26-.26,8.66-.75,20.62-.58,33.83.15,6.6.1,12.93,1.47,18.48,1.29,5.53,3.54,10.3,6.39,13.51,2.83,3.25,6,4.96,8.28,5.7,2.29.74,3.67.7,3.65.79,0,0-1.37.12-3.73-.56-2.33-.67-5.6-2.36-8.53-5.64-2.96-3.24-5.28-8.07-6.62-13.67-1.42-5.63-1.38-12.01-1.53-18.6-.17-13.23.4-25.2.76-33.85.21-4.28.37-7.77.49-10.25.07-1.16.12-2.09.16-2.79.04-.64.08-.97.1-.97Z"/>
      <g class="cls-8">
        <path d="m370.3,708.68l.49-13.63,2.82.48-.03,13.36s-2.8-.16-3.29-.21Z"/>
      </g>
      <path class="cls-4" d="m346.18,660.67c.03.17-1.27.5-2.89.74-1.62.24-2.95.3-2.98.13-.03-.17,1.27-.5,2.89-.74,1.62-.24,2.95-.3,2.98-.13Z"/>
      <path class="cls-4" d="m345.89,647.48c-.03.17-1.37.04-2.99-.28-1.62-.32-2.91-.72-2.87-.89.03-.17,1.37-.04,2.99.28,1.62.32,2.9.72,2.87.89Z"/>
      <path class="cls-4" d="m340.61,626.37c.06-.15,1.47.28,2.96,1.28,1.5.99,2.44,2.13,2.32,2.24-.12.13-1.22-.77-2.66-1.73-1.44-.96-2.69-1.63-2.62-1.79Z"/>
      <path class="cls-4" d="m349.11,612.88c.16-.06.81,1.2,1.46,2.82.65,1.62,1.04,2.98.89,3.05-.16.06-.81-1.2-1.46-2.82-.65-1.62-1.04-2.98-.89-3.05Z"/>
      <path class="cls-4" d="m361.17,613.78c.15.08-.58,1.72-1.64,3.66-1.05,1.94-2.03,3.45-2.18,3.37-.15-.08.58-1.72,1.64-3.67,1.05-1.94,2.03-3.45,2.18-3.37Z"/>
      <path class="cls-4" d="m365.24,629.59c.05.16-1.1.63-2.56,1.03-1.46.4-2.68.6-2.72.44-.05-.16,1.1-.63,2.56-1.03,1.46-.4,2.68-.6,2.72-.44Z"/>
      <path class="cls-4" d="m358.5,646.6c-.13.11-.88-.51-1.69-1.41-.81-.89-1.36-1.71-1.24-1.82.13-.11.88.51,1.69,1.41.81.89,1.36,1.71,1.24,1.82Z"/>
      <path class="cls-4" d="m364.03,663.64c-.12.12-1.19-.7-2.4-1.83-1.21-1.14-2.1-2.16-1.98-2.28.12-.12,1.19.7,2.4,1.83,1.21,1.14,2.1,2.16,1.98,2.28Z"/>
      <path class="cls-4" d="m347.65,670.93c.12.12-.84,1.21-2.13,2.42-1.3,1.21-2.44,2.1-2.56,1.97-.12-.12.84-1.21,2.13-2.42,1.3-1.21,2.44-2.1,2.56-1.97Z"/>
      <path class="cls-4" d="m349.7,685.89c-.16-.05.04-1.08.44-2.3.4-1.21.86-2.16,1.03-2.1s-.04,1.08-.44,2.3c-.4,1.21-.86,2.16-1.03,2.1Z"/>
      <path class="cls-4" d="m351.21,703.2c-.16-.07.44-1.71,1.32-3.65.88-1.95,1.73-3.47,1.88-3.4.15.07-.44,1.7-1.32,3.65-.88,1.95-1.73,3.47-1.88,3.4Z"/>
      <path class="cls-4" d="m361.2,711.11c-.17-.03-.04-1.56.29-3.42.33-1.86.73-3.35.9-3.32.17.03.04,1.56-.3,3.42-.33,1.86-.73,3.35-.9,3.32Z"/>
      <path class="cls-4" d="m366.43,684.94c-.04.17-1.31.03-2.85-.31-1.54-.34-2.75-.75-2.71-.92.04-.17,1.31-.03,2.85.31,1.53.34,2.75.75,2.71.92Z"/>
      <path class="cls-4" d="m365.24,674.75c-.03.17-1.11.11-2.4-.14-1.3-.24-2.32-.58-2.29-.74.03-.17,1.11-.11,2.4.14,1.3.24,2.32.58,2.29.74Z"/>
      <g class="cls-8">
        <path d="m353.58,616.32c.42,0,.67,5.27.33,13.73-.16,4.23-.45,9.26-.78,14.82-.32,5.57-.71,11.68-.84,18.07-.16,6.38.27,12.36,1.5,17.68.62,2.66,1.3,5.18,2.19,7.38.89,2.21,1.97,4.16,3.15,5.79,2.36,3.28,5.16,5.14,7.2,6.12,2.06.99,3.35,1.31,3.3,1.56-.02.17-1.39.26-3.74-.44-2.32-.69-5.65-2.45-8.48-5.9-1.42-1.7-2.71-3.77-3.78-6.12-1.08-2.37-1.88-4.97-2.6-7.72-1.46-5.54-2-11.9-1.82-18.4.14-6.5.61-12.64,1.09-18.22.49-5.57,1-10.57,1.44-14.77.89-8.39,1.41-13.58,1.85-13.57Z"/>
      </g>
      <path class="cls-4" d="m410.23,717.54c0,.17-1.2.31-2.67.31s-2.67-.14-2.67-.31,1.2-.31,2.67-.31,2.67.14,2.67.31Z"/>
      <path class="cls-4" d="m410.08,704.65c-.04.17-1.19.05-2.58-.25-1.39-.3-2.48-.68-2.45-.85.04-.17,1.19-.05,2.58.25,1.39.3,2.48.68,2.45.85Z"/>
      <path class="cls-4" d="m410.7,690.24c-.01.17-1.4.19-3.09.05-1.69-.14-3.05-.39-3.04-.56.01-.17,1.4-.19,3.09-.05,1.69.14,3.05.39,3.04.56Z"/>
      <path class="cls-4" d="m408.66,677.47c-.07.16-1.15-.18-2.4-.74-1.26-.56-2.22-1.15-2.15-1.3.07-.16,1.15.18,2.4.74,1.26.56,2.22,1.15,2.15,1.3Z"/>
      <path class="cls-4" d="m409.92,666.63c-.09.14-1.28-.46-2.51-1.52-1.24-1.06-2.01-2.14-1.89-2.25.13-.12,1.08.76,2.29,1.78,1.2,1.03,2.21,1.84,2.11,1.99Z"/>
      <path class="cls-4" d="m413.68,658.63c-.15.07-.77-.89-1.38-2.14-.61-1.26-.98-2.34-.82-2.41.15-.07.77.89,1.38,2.14.61,1.26.98,2.34.82,2.41Z"/>
      <path class="cls-4" d="m424.39,655.8c.13.11-.46,1.04-1.15,2.19-.7,1.14-1.26,2.09-1.42,2.02-.15-.06.17-1.16.89-2.35.72-1.19,1.55-1.97,1.68-1.86Z"/>
      <path class="cls-4" d="m429.4,669.93c.04.16-1.24.57-2.87.7-1.63.13-2.95-.06-2.94-.23,0-.17,1.31-.26,2.89-.39,1.59-.13,2.88-.25,2.92-.08Z"/>
      <path class="cls-4" d="m429.25,680.15c.08.15-1.02.9-2.45,1.67-1.44.78-2.66,1.28-2.75,1.13-.08-.15,1.02-.9,2.45-1.67,1.43-.77,2.66-1.28,2.74-1.13Z"/>
      <path class="cls-4" d="m429.54,696.84c-.07.15-1.08-.18-2.26-.74-1.17-.56-2.06-1.14-1.99-1.3.07-.15,1.08.18,2.26.74,1.17.56,2.06,1.14,1.99,1.3Z"/>
      <path class="cls-4" d="m428.61,706.05c.07.15-.75.7-1.83,1.22-1.08.52-2.02.82-2.1.67-.07-.15.75-.7,1.83-1.22,1.08-.52,2.02-.82,2.1-.67Z"/>
      <path class="cls-4" d="m426.12,725.54c-.13.11-.93-.57-1.8-1.52-.87-.96-1.47-1.82-1.34-1.94s.93.57,1.8,1.52c.87.95,1.47,1.82,1.34,1.94Z"/>
      <path class="cls-4" d="m419.82,742.52c-.18.02-.42-1.38-.86-3.05-.42-1.67-.88-3.01-.72-3.08.15-.07.87,1.2,1.31,2.93.45,1.73.42,3.19.26,3.2Z"/>
      <path class="cls-4" d="m408.39,751.32c-.17-.01-.21-1.36-.09-3.01.12-1.65.35-2.98.52-2.96.17.01.21,1.36.09,3.01-.12,1.65-.35,2.98-.52,2.96Z"/>
      <path class="cls-4" d="m407.71,731.54c-.09.14-1.19-.41-2.45-1.24-1.26-.82-2.2-1.61-2.11-1.75.09-.14,1.19.41,2.45,1.24,1.26.82,2.2,1.61,2.11,1.75Z"/>
      <path class="cls-4" d="m422.32,700.9c-.11.13-.94-.4-1.85-1.18-.91-.78-1.56-1.52-1.45-1.65.11-.13.94.4,1.85,1.18.91.78,1.56,1.52,1.45,1.65Z"/>
      <path class="cls-4" d="m414.19,680.02c.12.12-.63,1.06-1.68,2.09-1.05,1.04-1.99,1.78-2.11,1.66-.12-.12.63-1.06,1.68-2.09,1.05-1.04,1.99-1.78,2.11-1.66Z"/>
      <path class="cls-4" d="m423.1,663.62c.08.15-.64.72-1.61,1.28-.98.56-1.84.89-1.92.74-.08-.15.64-.72,1.61-1.28.98-.56,1.84-.89,1.92-.74Z"/>
      <path class="cls-4" d="m413.79,739.64c-.16.07-.62-.67-1.04-1.65-.42-.98-.63-1.83-.48-1.9.16-.07.62.67,1.04,1.65.42.98.63,1.83.48,1.9Z"/>
      <path class="cls-4" d="m376.46,629.16c0,.17-1.49.23-3.32.13-1.82-.1-3.29-.31-3.28-.48,0-.17,1.49-.23,3.32-.13,1.82.1,3.29.31,3.28.48Z"/>
      <path class="cls-4" d="m375.42,610.11c-.06.16-1.44-.26-3.07-.93-1.63-.67-2.9-1.34-2.84-1.5.06-.16,1.44.26,3.07.93,1.63.67,2.9,1.34,2.84,1.5Z"/>
      <path class="cls-4" d="m377.15,586.48c-.02.16-1.61.02-3.31-.89-1.71-.9-2.72-2.13-2.6-2.24.13-.13,1.27.85,2.88,1.69,1.61.86,3.06,1.26,3.02,1.43Z"/>
      <path class="cls-4" d="m381.52,575.44c-.15.08-.95-1.11-1.79-2.65-.84-1.55-1.4-2.87-1.25-2.95.15-.08.95,1.11,1.79,2.66.84,1.55,1.4,2.87,1.25,2.95Z"/>
      <path class="cls-4" d="m396.58,572.21c.13.11-.72,1.35-1.89,2.77-1.18,1.42-2.24,2.48-2.37,2.37-.13-.11.72-1.35,1.89-2.77,1.18-1.42,2.23-2.48,2.37-2.37Z"/>
      <path class="cls-4" d="m400.41,588.53c.1.14-.91,1.03-2.26,1.98-1.35.96-2.52,1.62-2.62,1.48-.1-.14.91-1.03,2.26-1.98,1.35-.96,2.52-1.62,2.62-1.48Z"/>
      <path class="cls-4" d="m402.17,611.15c.04.16-1.09.61-2.53.99-1.44.38-2.64.56-2.69.4-.04-.16,1.09-.61,2.53-.99,1.44-.38,2.64-.56,2.69-.4Z"/>
      <path class="cls-4" d="m401.13,630.32c0,.17-1.42.23-3.14.14-1.73-.09-3.12-.3-3.11-.47s1.42-.23,3.14-.14c1.73.09,3.12.3,3.11.47Z"/>
      <path class="cls-4" d="m401.48,649.72c.08.15-1.25,1.05-2.98,2.01-1.73.96-3.19,1.62-3.28,1.47s1.25-1.05,2.98-2.01c1.73-.96,3.19-1.62,3.28-1.47Z"/>
      <path class="cls-4" d="m374.71,659.15c-.04.17-1.54-.01-3.36-.4-1.82-.39-3.27-.84-3.24-1,.04-.17,1.54.01,3.36.4,1.82.39,3.27.84,3.24,1Z"/>
      <path class="cls-4" d="m375.35,676.05c.11.13-1.04,1.26-2.57,2.52-1.53,1.26-2.85,2.17-2.96,2.04-.11-.13,1.04-1.26,2.57-2.52,1.52-1.26,2.85-2.17,2.96-2.04Z"/>
      <path class="cls-4" d="m375.75,726.53c-.11.13-1.6-.93-3.33-2.37-1.73-1.44-3.04-2.71-2.93-2.84.11-.13,1.6.93,3.33,2.37,1.73,1.44,3.04,2.71,2.93,2.84Z"/>
      <path class="cls-4" d="m375.07,740.76c.11.13-.81,1.09-2.06,2.15-1.25,1.06-2.35,1.81-2.46,1.68-.11-.13.81-1.09,2.06-2.15,1.25-1.06,2.35-1.81,2.46-1.68Z"/>
      <path class="cls-4" d="m400.05,709.09c.1.14-1.06,1.18-2.6,2.33-1.54,1.15-2.87,1.97-2.97,1.83-.1-.14,1.06-1.18,2.6-2.33,1.54-1.15,2.87-1.97,2.97-1.83Z"/>
      <path class="cls-4" d="m400.43,684.81c.1.12-1.06,1.21-2.86,1.9-1.8.71-3.39.69-3.39.53-.02-.18,1.47-.43,3.17-1.11,1.71-.66,2.98-1.47,3.08-1.33Z"/>
      <path class="cls-4" d="m400.79,667.07c-.06.16-1.28-.18-2.72-.75-1.44-.57-2.56-1.17-2.49-1.33.06-.16,1.28.18,2.72.75,1.44.57,2.56,1.17,2.49,1.33Z"/>
      <path class="cls-4" d="m402.14,757.02c.07.15-1.35.98-3.17,1.84-1.83.86-3.36,1.43-3.44,1.28-.07-.15,1.35-.98,3.17-1.84,1.82-.86,3.36-1.43,3.44-1.28Z"/>
      <path class="cls-4" d="m375.08,644.49c-.11.13-1.6-1.02-3.33-2.55-1.73-1.54-3.03-2.89-2.92-3.01.11-.13,1.6,1.02,3.33,2.55,1.73,1.54,3.03,2.89,2.92,3.01Z"/>
      <path class="cls-4" d="m402.87,635.47c.09.14-1.15,1.11-2.79,2.17-1.63,1.06-3.03,1.8-3.12,1.65-.09-.14,1.15-1.11,2.79-2.17,1.63-1.06,3.03-1.8,3.12-1.65Z"/>
      <path class="cls-4" d="m374.37,597.6c-.02.17-1.13.15-2.48-.04-1.34-.19-2.41-.48-2.39-.65.02-.17,1.13-.15,2.48.04,1.34.19,2.41.48,2.39.65Z"/>
      <path class="cls-4" d="m400.78,598.99c.06.16-.99.68-2.33,1.16-1.34.48-2.48.74-2.54.58-.06-.16.99-.68,2.33-1.16,1.34-.48,2.48-.74,2.54-.58Z"/>
      <path class="cls-4" d="m386.91,640.36c.13.11-.7,1.36-1.85,2.8-1.15,1.44-2.2,2.52-2.33,2.41-.13-.11.69-1.36,1.85-2.8,1.15-1.44,2.2-2.52,2.33-2.41Z"/>
      <path class="cls-4" d="m386.88,622.27c-.09.13-1.23-.54-2.13-1.86-.92-1.31-1.15-2.62-.99-2.65.17-.05.65,1.08,1.5,2.3.84,1.23,1.74,2.07,1.63,2.21Z"/>
      <path class="cls-4" d="m386.54,596.56c.11.14-.85,1.07-1.79,2.39-.95,1.32-1.51,2.53-1.68,2.47-.15-.05.17-1.43,1.18-2.83,1-1.41,2.2-2.17,2.29-2.03Z"/>
      <path class="cls-4" d="m384.45,666.4c-.16-.06.1-1.19.58-2.54.48-1.34,1-2.39,1.16-2.33.16.06-.1,1.19-.58,2.54-.48,1.34-1,2.39-1.16,2.33Z"/>
      <path class="cls-4" d="m380.55,703.62c-.15.07-1.14-1.65-2.21-3.85-1.07-2.2-1.81-4.05-1.65-4.12.15-.07,1.14,1.65,2.21,3.85,1.07,2.2,1.81,4.05,1.65,4.12Z"/>
      <path class="cls-4" d="m387.5,709.45c.15.08-.75,2.08-2,4.48-1.26,2.39-2.4,4.27-2.55,4.19-.15-.08.74-2.08,2-4.48,1.26-2.39,2.4-4.27,2.55-4.19Z"/>
      <path class="cls-4" d="m387.17,749.13c-.15.08-1.14-1.57-2.2-3.67-1.06-2.11-1.8-3.88-1.65-3.95.15-.08,1.14,1.57,2.2,3.68,1.06,2.11,1.8,3.88,1.65,3.95Z"/>
      <path class="cls-4" d="m384.8,761.26c.14.09-.52,1.34-1.48,2.78-.96,1.44-1.85,2.53-1.99,2.44-.14-.09.52-1.34,1.48-2.78.96-1.44,1.85-2.53,1.99-2.43Z"/>
    </g>
    <g class="cls-8">
      <path d="m390.33,577.23c.85,0,1.54,44.98,1.54,100.46s-.69,100.47-1.54,100.47-1.54-44.97-1.54-100.47.69-100.46,1.54-100.46Z"/>
    </g>
    <g class="cls-8">
      <path d="m418.21,658.33c.42,0,.92,5.13,1.17,13.45.27,8.33.21,19.78.44,32.44.07,6.39-.29,12.57-1.55,18.09-.64,2.76-1.51,5.34-2.62,7.64-1.11,2.24-2.16,4.25-3.37,6.07-1.17,1.82-2.62,3.32-4.11,4.29-1.48.98-2.91,1.47-4.06,1.79-2.31.61-3.63.61-3.67.43-.06-.23,1.18-.64,3.26-1.56,1.03-.47,2.27-1.08,3.45-2.05,1.19-.96,2.3-2.3,3.27-4.05.98-1.71,1.94-3.8,2.89-5.98.92-2.15,1.64-4.57,2.17-7.18,1.05-5.23,1.32-11.19,1.25-17.46-.23-12.69.18-24.19.47-32.48.31-8.3.58-13.43,1.01-13.44Z"/>
    </g>
  </g>
  <g>
    <path class="cls-5" d="m1053.5,683.68c-3.68-1.57-6.71-4.6-8.29-8.27-.66-1.52-.67-3.88.95-4.23,1-.21,1.9.57,2.62,1.28,2.41,2.39,4.83,4.79,7.24,7.18-1.42-3.77-1.24-8.12.5-11.76.62-1.3,1.91-2.69,3.26-2.2,1.07.39,1.41,1.71,1.6,2.83.58,3.46,1.16,6.92,1.74,10.37.95-4.02,2.93-7.8,5.69-10.87,1.01-1.12,2.62-2.22,3.89-1.42,1.12.71,1.07,2.34.83,3.64-.6,3.24-1.51,6.43-2.71,9.5,3.08-2.73,7.14-4.34,11.25-4.46,1.21-.04,2.58.13,3.33,1.08,1.12,1.42.14,3.51-1.06,4.87-3.55,4.02-11.87,5.05-17.21,4.7"/>
    <path class="cls-1" d="m1085.53,692.22c-12.96-10.21-35.75-11.65-50.75-4.78-16.94,7.75-28.03,25.79-29.68,43.07-1.57,16.42,6.34,33.08,13.07,48.14l65.46.3c7.86-12.97,16.03-27.49,16.57-42.65.54-15.16-2.75-34.69-14.67-44.07Z"/>
    <path class="cls-4" d="m1056.16,683.21s-.1.04-.29.09c-.23.05-.51.12-.86.2-.39.09-.85.19-1.39.3-.55.1-1.19.25-1.88.49-2.82.75-6.78,2.37-11.09,5.31-4.32,2.92-8.73,7.44-12.63,13.12-1.91,2.87-3.69,6.04-5.29,9.43-1.55,3.42-2.95,7.06-4.07,10.88-2.23,7.65-2.26,15.41-1.11,22.19,1.12,6.82,3.14,12.75,4.94,17.65,1.82,4.91,3.43,8.83,4.5,11.56.52,1.33.92,2.38,1.22,3.15.12.33.22.6.3.82.06.19.09.28.08.29,0,0-.06-.09-.14-.27-.1-.21-.21-.48-.36-.8-.32-.75-.77-1.79-1.33-3.1-1.14-2.7-2.82-6.6-4.69-11.5-1.85-4.9-3.93-10.84-5.09-17.71-1.2-6.84-1.19-14.7,1.07-22.46,1.13-3.85,2.54-7.52,4.11-10.96,1.63-3.42,3.43-6.6,5.37-9.49,3.96-5.72,8.45-10.25,12.85-13.16,4.38-2.93,8.42-4.5,11.27-5.18.7-.23,1.34-.35,1.9-.44.54-.1,1.01-.18,1.41-.25.35-.06.64-.1.87-.14.2-.03.3-.04.3-.03Z"/>
    <path class="cls-4" d="m1075.23,778.42s.08-.34.3-.98c.24-.68.57-1.6.98-2.76.86-2.4,2.12-5.86,3.58-10.16,1.46-4.31,3.12-9.47,4.55-15.3,1.44-5.83,2.59-12.35,2.91-19.27.27-6.91-.49-13.52-2-19.32-1.53-5.79-3.73-10.78-6.15-14.61-2.41-3.84-4.85-6.62-6.69-8.36-.87-.92-1.68-1.5-2.16-1.97-.5-.44-.76-.69-.74-.7.01-.02.3.19.82.61.51.44,1.34.99,2.25,1.89,1.91,1.69,4.42,4.45,6.9,8.3,2.49,3.84,4.76,8.86,6.33,14.7,1.55,5.84,2.34,12.52,2.07,19.49-.32,6.97-1.5,13.53-2.97,19.38-1.47,5.85-3.17,11.01-4.69,15.31-1.52,4.29-2.84,7.73-3.77,10.11-.46,1.14-.82,2.05-1.09,2.72-.26.62-.4.94-.42.93Z"/>
    <path class="cls-4" d="m1062.59,683.59s-.07.34-.26.96c-.21.67-.49,1.58-.85,2.71-.38,1.17-.84,2.61-1.33,4.29-.5,1.68-1.1,3.58-1.67,5.71-1.22,4.24-2.51,9.33-3.81,15.01-1.25,5.69-2.47,11.98-3.47,18.63-.97,6.66-1.61,13.03-2.01,18.85-.14,2.91-.34,5.67-.36,8.26-.03,1.29-.06,2.54-.08,3.75,0,1.2.01,2.36.02,3.46-.02,2.2.09,4.2.14,5.95.04,1.75.13,3.26.22,4.49.07,1.19.13,2.13.17,2.84.03.65.04.99.02.99s-.07-.34-.14-.98c-.07-.7-.16-1.64-.28-2.83-.13-1.23-.25-2.73-.33-4.49-.09-1.75-.23-3.75-.24-5.96-.02-1.11-.04-2.26-.06-3.47.02-1.21.03-2.46.05-3.76,0-2.6.18-5.37.31-8.29.38-5.83,1-12.23,1.97-18.9,1-6.67,2.24-12.97,3.52-18.67,1.33-5.69,2.66-10.77,3.94-15,.6-2.12,1.23-4.02,1.76-5.69.52-1.67,1.01-3.1,1.43-4.26.4-1.12.72-2.01.96-2.68.23-.61.35-.93.37-.92Z"/>
    <path class="cls-4" d="m1007.18,735.73c.07.15-1.93,1.22-4.47,2.38-2.54,1.16-4.66,1.97-4.73,1.81-.07-.15,1.93-1.22,4.47-2.38,2.54-1.16,4.66-1.97,4.73-1.81Z"/>
    <path class="cls-4" d="m1009.26,716.91c-.09.15-2.29-.97-4.91-2.49-2.63-1.52-4.69-2.87-4.6-3.02.09-.15,2.28.97,4.91,2.49,2.63,1.52,4.69,2.87,4.6,3.02Z"/>
    <path class="cls-4" d="m1021.2,701.38c-.15.07-1.12-1.65-2.16-3.84-1.04-2.2-1.76-4.04-1.61-4.11.15-.07,1.12,1.65,2.17,3.84,1.04,2.2,1.76,4.04,1.61,4.11Z"/>
    <path class="cls-4" d="m1037.61,686.71c-.14.1-1.2-1.1-2.38-2.68-1.18-1.58-2.02-2.95-1.88-3.05.14-.1,1.2,1.1,2.38,2.68,1.18,1.58,2.02,2.95,1.88,3.05Z"/>
    <path class="cls-4" d="m1014.6,758.7c.08.15-1.97,1.42-4.58,2.83-2.61,1.41-4.8,2.44-4.88,2.29-.08-.15,1.97-1.42,4.58-2.83,2.61-1.41,4.8-2.44,4.88-2.29Z"/>
    <path class="cls-4" d="m1034.15,747.26c-.08.15-1.96-.74-4.18-1.99-2.23-1.25-3.97-2.38-3.88-2.53.08-.15,1.96.74,4.18,1.99,2.23,1.25,3.96,2.38,3.88,2.53Z"/>
    <path class="cls-4" d="m1039.6,721.12c.08.14-1.67,1.23-4.03,2.15-2.36.92-4.38,1.31-4.42,1.15-.05-.17,1.88-.81,4.2-1.72,2.32-.9,4.17-1.73,4.25-1.57Z"/>
    <path class="cls-4" d="m1045.81,701.41c-.14.08-1.04-1.29-1.7-3.19-.66-1.9-.81-3.54-.64-3.56.17-.03.58,1.51,1.23,3.36.64,1.85,1.27,3.31,1.11,3.4Z"/>
    <path class="cls-4" d="m1031.93,772.91c-.15-.07.63-2.04,1.76-4.4,1.12-2.36,2.16-4.2,2.31-4.13.15.07-.63,2.04-1.76,4.4-1.12,2.35-2.16,4.2-2.31,4.13Z"/>
    <path class="cls-4" d="m1064.93,765.89c-.1.13-1.97-1.25-3.82-3.42-1.86-2.16-2.93-4.22-2.79-4.3.15-.09,1.44,1.78,3.26,3.9,1.81,2.13,3.47,3.69,3.35,3.82Z"/>
    <path class="cls-4" d="m1076.36,737.12c.08.15-1.96,1.48-4.56,2.97-2.61,1.49-4.79,2.58-4.87,2.44-.08-.15,1.96-1.48,4.56-2.97,2.61-1.49,4.79-2.58,4.87-2.44Z"/>
    <path class="cls-4" d="m1068.67,719.41c-.12-.12,1.47-1.81,3.54-3.76,2.07-1.95,3.84-3.44,3.96-3.31.12.12-1.47,1.81-3.54,3.76-2.07,1.95-3.84,3.44-3.96,3.31Z"/>
    <path class="cls-4" d="m1069.02,700.63c-.11.13-1.72-1-3.61-2.53-1.89-1.53-3.33-2.88-3.22-3.01.11-.13,1.72,1,3.61,2.53,1.89,1.53,3.33,2.88,3.22,3.01Z"/>
    <path class="cls-4" d="m1090.84,688.2c.09.14-1.51,1.35-3.59,2.7-2.07,1.35-3.83,2.33-3.92,2.19s1.51-1.35,3.59-2.7c2.07-1.35,3.83-2.33,3.92-2.19Z"/>
    <path class="cls-4" d="m1099.24,705.42c.01.17-1.66.43-3.74.57-2.08.15-3.77.13-3.78-.04-.01-.17,1.66-.43,3.74-.57,2.08-.15,3.77-.13,3.78.04Z"/>
    <path class="cls-4" d="m1104.72,725.77c-.02.17-2.15.1-4.77-.15-2.62-.25-4.73-.59-4.71-.76.02-.17,2.15-.1,4.77.15,2.62.25,4.72.59,4.71.76Z"/>
    <path class="cls-4" d="m1102.01,752.02c-.12.12-2.08-1.67-4.39-4-2.3-2.33-4.07-4.31-3.95-4.43.12-.12,2.08,1.67,4.39,4,2.3,2.33,4.07,4.31,3.95,4.43Z"/>
    <path class="cls-4" d="m1094.85,772.24c-.11.12-2.24-1.66-4.43-4.28-2.19-2.62-3.56-5.04-3.42-5.12.15-.1,1.73,2.14,3.9,4.73,2.16,2.59,4.08,4.55,3.96,4.68Z"/>
    <g class="cls-8">
      <path d="m1069.81,684.99c.11-.16,1.4.47,3.56,1.93,2.11,1.51,5.04,3.99,7.9,7.74,2.86,3.74,5.55,8.79,7.23,14.79,1.75,5.98,2.5,12.82,2.44,19.92-.08,7.14-1.15,13.89-2.67,19.84-1.52,5.96-3.41,11.16-5.23,15.41-3.65,8.5-6.73,13.33-7.06,13.16-.43-.21,1.95-5.38,5.03-13.95,3.02-8.54,6.69-20.72,6.84-34.49.05-6.88-.58-13.43-2.1-19.14-1.44-5.74-3.78-10.57-6.26-14.27-2.48-3.72-5.06-6.33-6.88-8.08-1.87-1.7-2.93-2.67-2.8-2.86Z"/>
    </g>
    <g class="cls-8">
      <path d="m1062.11,682.62c.42.09-.42,5.49-2.04,14.15-1.6,8.66-3.97,20.58-6.01,33.8-1,6.62-1.78,12.94-2.37,18.7-.25,2.88-.53,5.62-.68,8.19-.21,2.57-.32,4.96-.42,7.15-.39,8.76-.3,14.21-.78,14.24-.37.03-1.23-5.4-1.4-14.27-.04-2.22-.05-4.64.04-7.25.04-2.61.23-5.38.4-8.31.44-5.84,1.14-12.25,2.15-18.93,2.06-13.35,4.78-25.25,6.92-33.81,2.16-8.55,3.76-13.78,4.17-13.69Z"/>
    </g>
    <g class="cls-8">
      <path d="m1054.43,681.94c.07.22-1.45.81-4.08,2.01-2.62,1.2-6.38,3.06-10.54,6.05-4.16,2.97-8.7,7.11-12.61,12.58-3.89,5.46-7.14,12.25-8.78,19.81-.84,3.78-1.17,7.55-1.23,11.21-.01,3.66.3,7.2.8,10.55.99,6.71,2.75,12.63,4.31,17.56,1.6,4.93,3.08,8.87,4.05,11.63.97,2.75,1.45,4.31,1.25,4.39-.19.08-1.04-1.31-2.35-3.92-1.31-2.62-3.11-6.46-5-11.37-1.85-4.91-3.87-10.9-5.06-17.83-.59-3.46-.99-7.15-1.01-11.01.02-3.85.35-7.86,1.24-11.86,1.74-8.02,5.26-15.17,9.5-20.83,4.26-5.68,9.2-9.85,13.68-12.7,4.49-2.88,8.51-4.48,11.33-5.36,2.83-.87,4.46-1.07,4.51-.88Z"/>
    </g>
  </g>
</svg>