<?xml version="1.0" encoding="UTF-8"?>
<svg id="Layer_1" data-name="Layer 1" xmlns="http://www.w3.org/2000/svg" viewBox="0 0 1440 1024">
  <defs>
    <style>
      .cls-1 {
        fill: #fff;
      }

      .cls-2 {
        fill: #fafafa;
      }

      .cls-3 {
        fill: #f5f5f5;
      }

      .cls-4 {
        fill: #232f3e;
      }

      .cls-5 {
        fill: #ffbd5c;
      }

      .cls-6 {
        fill: #e1e1e1;
      }

      .cls-7 {
        opacity: .3;
      }

      .cls-8 {
        fill: #2d3c4c;
      }

      .cls-9 {
        fill: #ececec;
      }
    </style>
  </defs>
  <g>
    <g>
      <circle class="cls-1" cx="1056.6" cy="320.53" r="84.33"/>
      <path class="cls-9" d="m1056.6,405.82c-47.03,0-85.29-38.26-85.29-85.29s38.26-85.29,85.29-85.29,85.29,38.26,85.29,85.29-38.26,85.29-85.29,85.29Zm0-168.67c-45.97,0-83.38,37.4-83.38,83.38s37.4,83.38,83.38,83.38,83.37-37.4,83.37-83.38-37.4-83.38-83.37-83.38Z"/>
    </g>
    <path class="cls-9" d="m1096.51,314.5c-1.57-3.47-6.94-4.25-9.44-1.36-1.36,1.57-2.28,3.59-3.12,5.54-2.12,4.93-4.05,9.94-6.13,14.89-.22.53-.91.87-1.38,1.3-.3-.56-.83-1.11-.85-1.68-.13-2.95-.18-5.9-.18-8.85,0-5.79.08-11.59.09-17.38.01-9.74.02-19.47-.05-29.21,0-1.05-.4-2.25-1-3.11-1.35-1.93-4.05-2.56-6.41-1.77-1.99.66-3.39,2.74-3.4,5.18-.02,10.33-.01,20.66-.02,30.99,0,.48.11,1.03-.06,1.43-.16.37-.65.84-1,.84-.34,0-.84-.46-1-.83-.18-.41-.08-.95-.08-1.43,0-12,0-24,0-35.99,0-.75.03-1.51-.06-2.26-.26-2.18-1.33-3.39-3.44-3.95-4.32-1.15-7.49,1.26-7.5,5.75-.01,11.84,0,23.67,0,35.51,0,.7.06,1.42-.1,2.09-.09.35-.59.84-.9.84-.35,0-.9-.42-1.01-.77-.19-.59-.13-1.27-.13-1.91,0-9.47.02-18.94-.02-28.41-.02-3.29-2.15-5.25-5.44-5.24-3.28.02-5.4,2.03-5.41,5.27-.03,10.06-.01,20.12-.01,30.18,0,.59.13,1.23-.04,1.76-.17.53-.66.95-1.01,1.42-.39-.48-1.1-.96-1.11-1.45-.07-3.65,0-7.31.02-10.97.01-3.87.05-7.75-.02-11.62-.05-3-2.4-5.02-5.6-4.98-2.86.04-4.74,1.97-4.82,4.91-.21,7.58-.43,15.16-.65,22.74-.07,0,.07,0,0,0,0,4.62-.06,9.25-.25,13.87-.39,9.27.4,18.38,3.57,27.14,2.99,8.24,8.7,13.92,17.2,16.32,9.18,2.59,18.14,1.44,26.6-2.82,5.69-2.86,10.14-7.21,12.35-13.27,4.13-11.34,8.04-22.77,11.9-34.21.46-1.36.51-3.24-.07-4.51Z"/>
  </g>
  <path class="cls-9" d="m468.09,204.2l-2.43-11.49c-4.69-20.72-25.36-33.77-46.08-29.08-20.72,4.69-33.77,25.36-29.1,46.02l2.48,11.7c-9.8,3.79-15.62,14.27-13.23,24.83l15.28,67.56c2.63,11.61,14.17,18.9,25.78,16.27l70.14-15.86c11.61-2.63,18.9-14.17,16.27-25.78l-15.28-67.56c-2.48-10.97-12.91-18.06-23.84-16.61Zm-11.19,77.87l-18.35,4.15-.13-13.9c-3.62-1.25-6.54-4.29-7.45-8.3-1.4-6.18,2.48-12.32,8.66-13.71,6.18-1.4,12.32,2.48,13.71,8.66.87,3.87-.32,7.72-2.85,10.41,2.46,4.84,6.4,12.7,6.4,12.7Zm3.07-76.14l-58.96,13.33-2.41-11.39c-3.68-16.26,6.56-32.47,22.82-36.15,16.26-3.68,32.47,6.56,36.14,22.76l2.42,11.45Z"/>
  <path class="cls-3" d="m585.99,131.18l2.37-7.15c4.11-12.98-3.11-26.89-16.1-31-12.98-4.11-26.89,3.11-30.99,16.06l-2.42,7.28c-6.65-1.07-13.26,2.85-15.35,9.46l-13.4,42.33c-2.3,7.28,1.73,15.04,9.01,17.35l43.95,13.91c7.28,2.3,15.04-1.73,17.35-9.01l13.4-42.33c2.17-6.87-1.3-14.17-7.82-16.9Zm-31.38,39.48l-11.5-3.64,4.42-7.73c-1.6-1.87-2.23-4.49-1.44-7,1.22-3.87,5.36-6.02,9.23-4.79,3.87,1.22,6.02,5.36,4.79,9.23-.77,2.42-2.67,4.17-4.94,4.84-.21,3.48-.56,9.1-.56,9.1Zm26.33-41.15l-36.95-11.69,2.35-7.09c3.22-10.19,14.13-15.85,24.32-12.63,10.19,3.22,15.85,14.13,12.64,24.28l-2.36,7.12Z"/>
  <g>
    <path class="cls-9" d="m1056.91,827.21c3.77,4.91,4.87,11.52,3.88,17.63-.99,6.11-3.91,11.76-7.51,16.8-6.95,9.75-18.69,16.97-29.67,21.74-4.52-12.5.87-26.96,4.06-34.12,5.05-11.32,21.04-28.71,29.23-22.05"/>
    <path class="cls-9" d="m1024.26,906.2c1.86-6.66,7.89-11.75,14.63-13.26,6.74-1.52,13.99.28,19.76,4.09,2.67,1.76,5.23,4.24,5.55,7.42.3,2.97-1.53,5.87-4.02,7.52-2.5,1.64-5.55,2.21-8.53,2.37-10.23.55-20.23-.8-27.39-8.14"/>
    <path class="cls-6" d="m1000.55,924.5c-.12-.11,1.69-2.52,4.97-6.16,1.64-1.82,3.89-3.8,6.57-5.62,2.68-1.8,5.59-3.85,8.98-5.54,6.72-3.45,13.65-4.73,18.58-4.53,2.48.07,4.45.46,5.78.78,1.33.38,2.03.65,2.01.73-.05.24-2.98-.63-7.8-.56-4.79.06-11.43,1.43-17.98,4.78-3.27,1.63-6.2,3.64-8.89,5.37-2.68,1.75-4.88,3.55-6.59,5.26-3.41,3.43-5.49,5.64-5.65,5.5Z"/>
    <path class="cls-6" d="m1045.9,841.53c.08.04-.49,1.35-1.59,3.68-1.1,2.33-2.73,5.68-4.79,9.79-4.11,8.23-9.93,19.55-16.65,31.88-6.73,12.34-13.13,23.33-17.93,31.19-2.4,3.93-4.38,7.08-5.79,9.24-1.41,2.16-2.22,3.33-2.3,3.28-.08-.05.59-1.31,1.86-3.55,1.4-2.44,3.22-5.62,5.42-9.45,4.59-7.97,10.85-19.03,17.57-31.35,6.58-12.26,12.53-23.36,16.98-31.67,2.09-3.89,3.83-7.12,5.17-9.59,1.24-2.25,1.97-3.48,2.05-3.44Z"/>
    <path class="cls-3" d="m1008.83,902.86c3.06-14.25-1.29-29.88-11.28-40.49-2.54-2.7-6.24-5.26-9.71-3.93-3.47,1.33-4.51,5.73-4.5,9.45.04,15.47,10.42,30.39,24.91,35.8"/>
    <path class="cls-6" d="m995.93,873.12c.08-.05.57.51,1.4,1.58.85,1.06,1.96,2.66,3.29,4.68,2.54,4.08,5.99,10.01,7.45,17.39.72,3.68.77,7.29.33,10.51-.42,3.23-1.43,6-2.38,8.24-1.03,2.21-1.99,3.93-2.79,5.03-.77,1.12-1.23,1.71-1.31,1.66-.23-.14,1.46-2.63,3.22-7.05.81-2.23,1.69-4.93,2.03-8.04.35-3.1.27-6.55-.42-10.09-1.4-7.11-4.64-13-6.95-17.16-2.41-4.14-4.06-6.63-3.88-6.75Z"/>
  </g>
  <g>
    <path class="cls-5" d="m413.98,900.27c1.13-4.38-1.74-8.77-4.96-11.95-3.22-3.18-7.06-6.02-8.74-10.22-2.71-6.8.93-15.61-3.69-21.29-2.72-3.34-7.6-4.46-10.02-8.02-1.27-1.87-1.68-4.17-2.18-6.37-2.54-11.24-8.17-21.77-16.1-30.13-.55,10.01,1.66,20.16,6.32,29.04,1.87,3.57,4.18,7.05,4.8,11.03,1.01,6.47-2.6,13.13-1.01,19.48,1.82,7.26,9.97,12.12,10.36,19.6.33,6.32-5.18,11.87-4.77,18.18.17,2.69,1.42,5.19,2.81,7.49,4.89,8.12,12.07,13.72,22.95,13.54l13.33.47-9.09-30.85Z"/>
    <g class="cls-7">
      <path d="m413.98,900.27c1.13-4.38-1.74-8.77-4.96-11.95-3.22-3.18-7.06-6.02-8.74-10.22-2.71-6.8.93-15.61-3.69-21.29-2.72-3.34-7.6-4.46-10.02-8.02-1.27-1.87-1.68-4.17-2.18-6.37-2.54-11.24-8.17-21.77-16.1-30.13-.55,10.01,1.66,20.16,6.32,29.04,1.87,3.57,4.18,7.05,4.8,11.03,1.01,6.47-2.6,13.13-1.01,19.48,1.82,7.26,9.97,12.12,10.36,19.6.33,6.32-5.18,11.87-4.77,18.18.17,2.69,1.42,5.19,2.81,7.49,4.89,8.12,12.07,13.72,22.95,13.54l13.33.47-9.09-30.85Z"/>
    </g>
    <g>
      <g>
        <path class="cls-4" d="m425.77,931.47s1.27.3,3.67-.08c1.19-.17,2.66-.49,4.33-1.09,1.66-.61,3.54-1.47,5.35-2.93.87-.76,1.73-1.69,2.2-2.93.46-1.23.54-2.59.63-3.98.07-1.39.07-2.84.31-4.31.23-1.47.8-2.91,1.63-4.29,1.57-2.76,4.18-5.37,5.02-9.12.91-3.69.26-7.68-.36-11.68-.62-4-1.22-8.36.31-12.52,1.43-4.17,4.35-7.93,5.81-12.63,1.46-4.75.78-9.85,1.08-14.89.14-2.53.63-5.06,1.74-7.4,1.08-2.36,2.57-4.58,3.74-7.07,2.37-5.02,2.78-10.71,3.43-16.29.32-2.81.63-5.65.96-8.52.32-2.88.57-5.75,1.48-8.52.82-2.79,2.01-5.5,3.19-8.25.58-1.38,1.19-2.77,1.55-4.31.26-1.57.34-3.04.43-4.58.15-3.06.02-6.15-.35-9.23-.36-3.08-.92-6.13-1.25-9.21-.02-.18-.04-.36-.06-.53l-.07-.61-.55.27c-2.85,1.43-5.3,3.56-7.17,6.06-1.91,2.48-3.3,5.28-4.41,8.12-2.23,5.73-3.03,11.73-4.15,17.45-1.1,5.73-2.54,11.36-5.48,16.12-1.46,2.37-3.23,4.54-4.77,6.86-1.54,2.3-2.9,4.82-3.31,7.6-.79,5.64,2.32,10.59,1.67,15.58-.23,2.48-1.22,4.8-2.43,6.92-1.21,2.13-2.63,4.1-3.98,6.09-1.35,1.98-2.63,4-3.58,6.15-.96,2.14-1.49,4.44-1.64,6.68-.33,4.49.31,8.76-.02,12.78-.27,4.03-1.69,7.69-3.29,10.95-1.61,3.28-3.41,6.24-4.91,9.12-.76,1.44-1.45,2.84-2.02,4.25-.6,1.41-.9,2.85-1.17,4.21-.44,2.76-.39,5.34-.1,7.61.58,4.57,2.28,7.85,3.81,9.7.35.49.76.84,1.08,1.17.31.34.62.56.87.74.5.37.76.53.76.53.06-.07-1.1-.68-2.58-2.55-1.47-1.86-3.1-5.12-3.62-9.64-.27-2.24-.28-4.78.17-7.5.28-1.34.58-2.75,1.18-4.11.57-1.38,1.27-2.77,2.03-4.19,1.51-2.85,3.33-5.8,4.97-9.1,1.63-3.28,3.11-7.01,3.4-11.15.35-4.11-.27-8.39.07-12.78.15-2.2.67-4.38,1.61-6.46.92-2.08,2.19-4.06,3.54-6.03,1.35-1.97,2.79-3.95,4.03-6.13,1.25-2.16,2.29-4.57,2.54-7.2.64-5.32-2.44-10.3-1.64-15.54.38-2.59,1.67-5.01,3.2-7.27,1.52-2.27,3.3-4.44,4.8-6.87,3.03-4.9,4.5-10.64,5.6-16.39,1.13-5.76,1.94-11.7,4.12-17.31,1.09-2.79,2.45-5.52,4.29-7.91,1.82-2.41,4.15-4.44,6.87-5.81l-.61-.34c.02.17.04.35.06.54.34,3.12.89,6.17,1.25,9.21.37,3.04.5,6.07.35,9.08-.09,1.49-.18,3.04-.41,4.45-.33,1.4-.92,2.78-1.5,4.16-1.17,2.74-2.38,5.49-3.21,8.34-.93,2.84-1.19,5.82-1.5,8.66-.32,2.87-.63,5.71-.95,8.52-.64,5.6-1.05,11.2-3.33,16.05-1.13,2.41-2.62,4.64-3.73,7.08-1.15,2.43-1.65,5.1-1.79,7.67-.29,5.14.38,10.17-1.01,14.73-1.38,4.53-4.29,8.32-5.76,12.62-1.57,4.35-.92,8.85-.29,12.83.64,4.01,1.29,7.92.43,11.46-.77,3.58-3.3,6.17-4.91,9.01-.84,1.41-1.43,2.93-1.65,4.46-.23,1.52-.22,2.98-.28,4.36-.07,1.37-.15,2.72-.57,3.87-.42,1.15-1.23,2.06-2.07,2.8-1.74,1.44-3.59,2.32-5.22,2.94-1.64.62-3.09.96-4.27,1.16-1.18.21-2.1.24-2.71.26-.61-.02-.93-.01-.93-.01Z"/>
        <path class="cls-4" d="m467.88,774.45s-.06.13-.13.4c-.08.32-.17.71-.29,1.2-.26,1.05-.57,2.63-1.08,4.61-.52,1.97-1.73,4.21-2.77,6.96-1.07,2.73-2.16,5.9-3.17,9.45-1.02,3.55-1.92,7.5-2.86,11.73-.97,4.22-1.94,8.75-4.27,13.02-1.09,2.16-2.32,4.36-3.3,6.75-1,2.4-1.54,5.02-1.92,7.65-.64,5.28-1.61,10.64-2.87,16.12-2.67,10.92-5.22,21.33-7.54,30.8-2.37,9.44-4.51,17.95-6.32,25.12-1.75,7.11-3.18,12.88-4.19,16.95-.46,1.95-.83,3.5-1.1,4.62-.11.49-.19.89-.26,1.21-.05.27-.08.41-.06.42.01,0,.06-.13.15-.4.09-.32.21-.71.35-1.19.3-1.11.72-2.64,1.25-4.58,1.07-4.06,2.58-9.81,4.45-16.88,1.85-7.16,4.05-15.65,6.49-25.07,2.34-9.48,4.91-19.88,7.61-30.81,1.26-5.48,2.24-10.94,2.87-16.19.37-2.61.89-5.14,1.85-7.46.94-2.34,2.15-4.52,3.25-6.7,2.34-4.35,3.32-9.01,4.25-13.22.91-4.24,1.78-8.18,2.75-11.72.96-3.55,2-6.71,3.03-9.44.98-2.74,2.15-5,2.64-7.05.46-2.03.72-3.6.92-4.67.09-.49.15-.89.21-1.22.04-.28.06-.42.04-.42Z"/>
      </g>
      <g>
        <path class="cls-5" d="m428.12,931.51c8.71-5.17,11.2-20.88,7.57-30.34-3.63-9.45-9.99-18.09-10.97-28.17-.75-7.75,1.78-15.7-.02-23.27-2.44-10.22-12.41-18.14-12.3-28.64.06-5.89,3.42-11.44,3.15-17.33-.33-7.22-5.87-12.95-9.31-19.32-5.26-9.74-5.6-21.26-7.4-32.18-1.8-10.92-5.96-22.62-15.64-27.98-1.43,9.27-3.87,15.62-3.1,28.18.28,4.51,5.52,13.15,6.23,23.03.43,5.91.72,11.83,1.08,17.74.35,5.75.72,11.61,2.79,17,1.58,4.13,4.12,7.87,5.29,12.13,2.21,8.01-.69,16.69,1.09,24.81,1.51,6.88,6.27,12.8,7.24,19.77,1.37,9.8-4.98,19.98-1.73,29.33,1.61,4.64,5.43,8.36,6.51,13.15.84,3.72-.08,7.65.69,11.38,1.23,6.01,12.7,10.68,18.82,10.31"/>
        <path class="cls-4" d="m385.62,733.48s0,.18.04.52c.05.39.11.89.2,1.52.2,1.34.42,3.31.88,5.85.49,2.56,1.8,5.44,2.86,8.91,1.11,3.46,2.22,7.45,3.19,11.92.99,4.47,1.82,9.41,2.7,14.73.9,5.28,1.82,11.12,4.46,16.66,1.22,2.78,2.59,5.57,3.62,8.54,1.05,2.96,1.54,6.14,1.84,9.41.45,6.57,1.32,13.4,2.55,20.28,2.67,13.74,5.21,26.82,7.52,38.73,2.44,11.86,4.63,22.55,6.48,31.55,1.87,8.93,3.38,16.18,4.44,21.25.53,2.46.95,4.39,1.25,5.77.14.62.26,1.11.35,1.5.08.34.13.51.15.5.01,0,0-.18-.06-.52-.07-.39-.15-.89-.26-1.51-.26-1.38-.63-3.33-1.09-5.8-1-5.09-2.42-12.35-4.17-21.31-1.8-9.01-3.93-19.71-6.3-31.59-2.29-11.91-4.81-24.99-7.45-38.72-1.23-6.89-2.1-13.62-2.56-20.21-.3-3.29-.81-6.56-1.9-9.6-1.06-3.03-2.45-5.83-3.67-8.59-2.62-5.46-3.55-11.16-4.48-16.46-.9-5.31-1.77-10.27-2.81-14.74-1.02-4.48-2.17-8.48-3.33-11.94-1.11-3.48-2.46-6.34-2.99-8.83-.5-2.5-.78-4.48-1.03-5.8-.12-.63-.21-1.12-.28-1.51-.07-.34-.11-.51-.12-.51Z"/>
      </g>
    </g>
  </g>
  <g>
    <path class="cls-6" d="m852.35,873.31h-133.44c-15.81,0-28.63-12.82-28.63-28.63h0c0-15.81,12.82-28.63,28.63-28.63h133.44c15.81,0,28.63,12.82,28.63,28.63h0c0,15.81-12.82,28.63-28.63,28.63Z"/>
    <g>
      <path class="cls-2" d="m749.6,848.28l.5-1.02c.86.89,2.39,1.54,3.97,1.55,2.26.01,3.24-.97,3.25-2.22.01-3.46-7.42-1.37-7.4-6.03,0-1.85,1.39-3.45,4.46-3.43,1.36,0,2.77.43,3.73,1.13l-.44,1.06c-1.03-.71-2.24-1.05-3.3-1.06-2.2-.01-3.19,1.01-3.2,2.27-.01,3.46,7.42,1.4,7.4,5.99,0,1.85-1.43,3.43-4.51,3.42-1.81,0-3.58-.68-4.47-1.66Z"/>
      <path class="cls-2" d="m761.39,837.26h1.27s-.05,12.6-.05,12.6h-1.27s.05-12.6.05-12.6Z"/>
      <path class="cls-2" d="m776.67,837.33l-.05,12.6h-1.05s-7.71-10.26-7.71-10.26l-.04,10.22h-1.27s.05-12.6.05-12.6h1.05s7.73,10.26,7.73,10.26l.04-10.22h1.26Z"/>
      <path class="cls-2" d="m789.07,843.69h1.22s-.02,4.81-.02,4.81c-1.14,1.06-2.76,1.59-4.43,1.58-3.67-.02-6.34-2.75-6.33-6.44.02-3.69,2.71-6.4,6.4-6.38,1.83,0,3.41.63,4.47,1.84l-.8.84c-1.01-1.05-2.22-1.49-3.63-1.49-2.98-.01-5.18,2.19-5.19,5.19-.01,2.99,2.16,5.23,5.13,5.24,1.15,0,2.22-.26,3.16-.96l.02-4.25Z"/>
      <path class="cls-2" d="m798.3,844.65l.03-7.22h1.27s-.03,7.17-.03,7.17c-.01,2.99,1.33,4.36,3.67,4.37,2.36.01,3.71-1.35,3.72-4.34l.03-7.16h1.24s-.03,7.22-.03,7.22c-.01,3.62-1.88,5.48-4.97,5.47-3.08-.01-4.95-1.89-4.94-5.51Z"/>
      <path class="cls-2" d="m821.5,841.86c-.01,2.68-1.88,4.29-4.95,4.28h-3.24s-.02,3.96-.02,3.96h-1.27s.05-12.6.05-12.6l4.51.02c3.07.01,4.92,1.64,4.91,4.34Zm-1.27,0c0-2.02-1.26-3.17-3.67-3.18h-3.2s-.03,6.28-.03,6.28h3.2c2.41.02,3.69-1.12,3.7-3.1Z"/>
    </g>
  </g>
  <g>
    <g>
      <g>
        <rect class="cls-6" x="634.36" y="560.13" width="75.98" height="13.94" transform="translate(2.62 -3.1) rotate(.26)"/>
        <path class="cls-6" d="m931.78,645.84c0-.05.62,0,1.75-.33,1.07-.35,2.8-1.24,3.74-3.35.51-1.04.56-2.3.51-3.74,0-1.44-.01-3-.02-4.69,0-3.4-.01-7.31-.02-11.71,0-4.41,0-9.31,0-14.67v-4.11c.06-1.41-.11-2.72-.86-3.9-.71-1.16-1.86-2.08-3.21-2.49-1.32-.42-2.9-.19-4.46-.26-12.53-.02-26.78-.05-42.53-.08-63.07-.23-150.11-.56-246.25-.91-2.67-.07-5.14,2.11-5.39,4.75-.09,2.81-.05,5.92-.08,8.85-.03,5.94-.05,11.83-.08,17.69-.01,2.93-.03,5.85-.04,8.75.05,1.45-.16,2.97.19,4.12.33,1.22,1.11,2.31,2.16,3.03,1.08.73,2.26,1,3.67.94l4.3.02c2.86.01,5.71.03,8.54.04,22.67.12,44.55.24,65.38.35,41.66.25,79.18.48,110.71.68,31.47.25,56.96.45,74.63.59,8.77.1,15.59.18,20.29.24,2.28.04,4.03.08,5.28.1,1.19.03,1.8.09,1.8.09,0,0-.61.05-1.8.07-1.24.01-3,.03-5.28.05-4.69.01-11.52.03-20.29.05-17.68-.02-43.17-.06-74.64-.1-31.53-.1-69.05-.22-110.71-.35-20.84-.08-42.71-.17-65.38-.26-2.83-.01-5.68-.02-8.54-.04l-4.3-.02c-1.44.08-3.22-.27-4.53-1.21-1.34-.92-2.34-2.31-2.77-3.88-.44-1.66-.18-3.09-.24-4.53.01-2.91.02-5.82.03-8.75.02-5.86.05-11.75.07-17.69.03-3.01-.02-5.86.09-9.02.33-3.4,3.5-6.2,6.93-6.11,96.14.53,183.18,1.01,246.25,1.36,15.75.12,30,.22,42.53.31,1.55.08,3.11-.17,4.71.32,1.54.48,2.85,1.54,3.65,2.86.85,1.3,1.03,2.95.95,4.32-.01,1.4-.02,2.77-.03,4.11-.05,5.36-.09,10.25-.13,14.67-.05,4.4-.09,8.31-.12,11.71-.02,1.69-.04,3.26-.05,4.69.03,1.41-.06,2.81-.61,3.87-1.04,2.19-2.86,3.06-3.98,3.37-1.17.29-1.79.18-1.79.18Z"/>
        <rect class="cls-6" x="633.8" y="692.82" width="75.98" height="13.94" transform="translate(3.22 -3.08) rotate(.26)"/>
        <path class="cls-6" d="m931.22,778.54c0-.05.62,0,1.75-.33,1.08-.35,2.8-1.24,3.74-3.35.5-1.04.56-2.3.51-3.75,0-1.44-.01-3-.02-4.69,0-3.4-.01-7.31-.02-11.71,0-4.41,0-9.31,0-14.67,0-1.34,0-2.71,0-4.11.06-1.41-.11-2.72-.86-3.9-.71-1.16-1.86-2.08-3.21-2.49-1.32-.42-2.9-.19-4.47-.25-12.52-.03-26.78-.05-42.53-.08-63.07-.23-150.11-.56-246.25-.91-2.67-.07-5.14,2.11-5.4,4.75-.09,2.81-.05,5.91-.08,8.85-.03,5.93-.05,11.83-.08,17.69-.01,2.93-.03,5.84-.04,8.75.05,1.45-.16,2.96.18,4.12.33,1.22,1.11,2.31,2.16,3.03,1.08.73,2.26,1,3.67.95l4.3.02c2.86.01,5.71.03,8.54.04,22.67.12,44.54.24,65.38.35,41.66.26,79.18.48,110.71.68,31.47.25,56.96.45,74.63.59,8.77.1,15.6.18,20.29.24,2.28.04,4.03.08,5.28.1,1.19.03,1.8.09,1.8.09,0,0-.61.05-1.8.07-1.25.01-3,.03-5.28.05-4.7.01-11.53.03-20.29.05-17.68-.03-43.16-.06-74.64-.1-31.53-.1-69.05-.22-110.71-.35-20.84-.08-42.71-.17-65.38-.26-2.83-.01-5.68-.03-8.54-.04l-4.3-.02c-1.45.08-3.22-.27-4.53-1.21-1.34-.92-2.34-2.31-2.77-3.88-.44-1.66-.18-3.1-.24-4.54.01-2.91.02-5.82.03-8.75.02-5.86.05-11.75.07-17.69.03-3.01-.02-5.86.09-9.02.33-3.4,3.5-6.2,6.93-6.11,96.14.53,183.18,1.01,246.25,1.36,15.75.12,30,.22,42.53.31,1.55.08,3.11-.17,4.71.32,1.54.48,2.84,1.54,3.65,2.87.85,1.3,1.03,2.95.95,4.32-.01,1.4-.02,2.77-.03,4.11-.05,5.36-.09,10.26-.13,14.67-.05,4.4-.09,8.31-.12,11.71-.02,1.69-.04,3.26-.06,4.69.03,1.41-.06,2.81-.61,3.87-1.04,2.19-2.86,3.06-3.98,3.37-1.17.29-1.8.18-1.8.18Z"/>
        <rect class="cls-6" x="654.75" y="613.9" width="138.99" height="13.03" transform="translate(2.87 -3.34) rotate(.26)"/>
        <path class="cls-6" d="m667.41,754.42c-.02,3.58-2.75,6.47-6.1,6.45-3.36-.02-6.06-2.93-6.05-6.51.02-3.58,2.75-6.47,6.1-6.45,3.36.01,6.06,2.93,6.05,6.51Z"/>
        <path class="cls-6" d="m686.24,754.51c-.02,3.58-2.75,6.47-6.1,6.45-3.36-.01-6.06-2.93-6.05-6.51.01-3.58,2.75-6.47,6.1-6.45,3.36.01,6.06,2.93,6.05,6.51Z"/>
        <path class="cls-6" d="m705.07,754.59c-.01,3.58-2.75,6.47-6.1,6.45-3.36-.01-6.06-2.93-6.05-6.51.02-3.58,2.75-6.47,6.1-6.45,3.36.01,6.06,2.93,6.05,6.51Z"/>
        <path class="cls-6" d="m723.89,754.68c-.01,3.58-2.75,6.47-6.1,6.45-3.36-.01-6.06-2.93-6.05-6.51.01-3.58,2.75-6.47,6.1-6.45,3.36.02,6.06,2.93,6.05,6.51Z"/>
        <path class="cls-6" d="m742.72,754.77c-.01,3.58-2.75,6.47-6.1,6.45-3.36-.01-6.06-2.93-6.05-6.51.02-3.58,2.75-6.47,6.11-6.45,3.36.02,6.06,2.93,6.05,6.51Z"/>
        <path class="cls-6" d="m761.55,754.85c-.01,3.58-2.75,6.47-6.11,6.45-3.36-.01-6.06-2.93-6.05-6.51.01-3.58,2.75-6.47,6.1-6.45,3.36.02,6.06,2.93,6.05,6.51Z"/>
      </g>
      <path class="cls-6" d="m780.38,754.94c-.02,3.58-2.75,6.47-6.11,6.45-3.36-.02-6.06-2.93-6.05-6.51.01-3.58,2.75-6.47,6.1-6.45,3.36.01,6.06,2.93,6.05,6.51Z"/>
      <path class="cls-6" d="m799.2,755.03c-.01,3.58-2.75,6.47-6.1,6.45-3.36-.02-6.06-2.93-6.05-6.51.01-3.58,2.75-6.47,6.1-6.45,3.36.01,6.06,2.93,6.05,6.51Z"/>
      <path class="cls-6" d="m818.03,755.11c-.01,3.58-2.75,6.47-6.1,6.45-3.36-.01-6.06-2.93-6.05-6.51.02-3.58,2.75-6.47,6.11-6.45,3.36.01,6.06,2.93,6.05,6.51Z"/>
    </g>
    <g>
      <circle class="cls-6" cx="799.05" cy="408.1" r="104.2" transform="translate(-54.53 684.54) rotate(-45)"/>
      <path class="cls-1" d="m807.11,409.56c7.91-3.32,13.54-11.48,13.59-21.1.05-12.6-9.48-22.85-21.3-22.91-11.81-.05-21.43,10.11-21.48,22.71-.04,9.71,5.63,17.96,13.63,21.3-32.91,4.96-31.42,40.73-31.42,40.73l77.83.36s1.77-36.16-30.85-41.09Z"/>
    </g>
  </g>
  <g>
    <rect class="cls-4" x="496.04" y="484.89" width="24.68" height="446.74"/>
    <rect class="cls-8" x="489.2" y="484.89" width="24.68" height="446.74"/>
    <g>
      <g>
        <path class="cls-5" d="m630,441.99c0-16.79.04-33.58-.06-50.37,0-1.41-.54-3.2-1.49-4.16-23.82-23.95-47.7-47.84-71.68-71.63-1.23-1.22-3.43-2.07-5.18-2.08-33.16-.12-66.31-.05-99.47-.15-2.67,0-4.44.89-6.25,2.71-23.47,23.56-47.03,47.03-70.47,70.62-1.16,1.17-2,3.24-2,4.89-.11,33.47-.11,66.95,0,100.42,0,1.64.89,3.69,2.06,4.86,23.44,23.59,47,47.07,70.46,70.64,1.85,1.86,3.62,2.68,6.27,2.67,32.95-.09,65.9-.09,98.84,0,2.61,0,4.45-.72,6.32-2.59,23.46-23.57,47.02-47.03,70.45-70.62,1.23-1.23,2.1-3.41,2.12-5.16.16-16.68.09-33.37.1-50.05Z"/>
        <g id="_4MAMg4.tif" data-name="4MAMg4.tif">
          <g>
            <path class="cls-5" d="m354.92,441.69c0-19.21-.05-38.41.08-57.62.01-1.56.75-3.52,1.84-4.62,21.36-21.51,42.82-42.91,64.26-64.34,5.86-5.85,11.62-11.81,17.6-17.53,1.2-1.15,3.19-2.1,4.82-2.1,38.41-.12,76.82-.07,115.23-.13,2.48,0,4.23.71,6.04,2.52,27.09,27.2,54.29,54.29,81.37,81.49,1.09,1.1,1.9,3.04,1.9,4.58.1,38.62.05,77.25.11,115.87,0,2.16-.64,3.68-2.18,5.21-21.25,21.17-42.42,42.4-63.63,63.6-6.08,6.08-12.17,12.15-18.39,18.08-1.07,1.02-2.85,1.81-4.3,1.82-38.83.1-77.66.09-116.49,0-1.37,0-3.09-.69-4.05-1.64-22.69-22.54-45.3-45.17-67.93-67.78-4.75-4.74-9.57-9.41-14.15-14.31-1.14-1.22-2.03-3.21-2.04-4.86-.14-19.42-.09-38.83-.09-58.25Zm146.78-137.73c-18.26,0-36.52-.03-54.78.06-1.31,0-2.98.49-3.87,1.37-25.95,25.81-51.83,51.68-77.64,77.64-1.08,1.09-1.82,3.06-1.82,4.62-.11,36.21-.12,72.41,0,108.62,0,1.65.85,3.71,2.01,4.87,25.59,25.72,51.26,51.37,77.01,76.94,1.1,1.09,3.04,1.88,4.6,1.89,36.1.11,72.2.06,108.3.13,2.29,0,3.9-.67,5.5-2.27,25.4-25.48,50.82-50.93,76.31-76.32,1.72-1.72,2.31-3.46,2.3-5.81-.06-36.1-.02-72.2-.12-108.31,0-1.46-.77-3.28-1.79-4.33-6.71-6.93-13.59-13.7-20.41-20.53-18.53-18.56-37.08-37.1-55.55-55.71-2.06-2.08-4.16-2.96-7.15-2.93-17.63.15-35.26.07-52.89.07Z"/>
            <path class="cls-1" d="m501.7,303.97c17.63,0,35.26.08,52.89-.07,2.99-.02,5.09.86,7.15,2.93,18.47,18.61,37.02,37.15,55.55,55.71,6.82,6.83,13.7,13.59,20.41,20.53,1.02,1.06,1.79,2.87,1.79,4.33.1,36.1.07,72.2.12,108.31,0,2.35-.58,4.09-2.3,5.81-25.49,25.39-50.92,50.84-76.31,76.32-1.6,1.6-3.21,2.28-5.5,2.27-36.1-.07-72.2-.03-108.3-.13-1.55,0-3.5-.79-4.6-1.89-25.74-25.57-51.42-51.21-77.01-76.94-1.16-1.16-2-3.22-2.01-4.87-.11-36.21-.1-72.41,0-108.62,0-1.56.74-3.53,1.82-4.62,25.8-25.95,51.69-51.83,77.64-77.64.89-.88,2.56-1.36,3.87-1.37,18.26-.09,36.52-.06,54.78-.06Zm128.19,138.02c0-16.79.04-33.58-.06-50.37,0-1.41-.54-3.2-1.49-4.16-23.82-23.95-47.7-47.84-71.68-71.63-1.23-1.22-3.43-2.07-5.18-2.08-33.16-.12-66.31-.05-99.47-.15-2.67,0-4.44.89-6.25,2.71-23.47,23.56-47.03,47.03-70.47,70.62-1.16,1.17-2,3.24-2,4.89-.11,33.47-.11,66.95,0,100.42,0,1.64.89,3.69,2.06,4.86,23.44,23.59,47,47.07,70.46,70.64,1.85,1.86,3.62,2.68,6.27,2.67,32.95-.09,65.9-.09,98.84,0,2.61,0,4.45-.72,6.32-2.59,23.46-23.57,47.02-47.03,70.45-70.62,1.23-1.23,2.1-3.41,2.12-5.16.16-16.68.09-33.37.1-50.05Z"/>
          </g>
        </g>
      </g>
      <g>
        <path class="cls-1" d="m479.54,455.87h-10.84v13.97h-15.02v-13.97h-35.84v-10.36l31.37-42.21h16.16l-29.09,40.02h17.87v-12.45h14.55v12.45h10.84v12.55Z"/>
        <path class="cls-1" d="m484.1,436.58c0-21.96,12.17-34.41,28.52-34.41s28.52,12.45,28.52,34.41-12.07,34.41-28.52,34.41-28.52-12.45-28.52-34.41Zm41.54,0c0-15.12-5.32-21.39-13.02-21.39s-12.93,6.27-12.93,21.39,5.32,21.39,12.93,21.39,13.02-6.27,13.02-21.39Z"/>
        <path class="cls-1" d="m573.74,403.3v66.55h-15.4v-54.19h-13.31v-12.36h28.71Z"/>
      </g>
      <g>
        <path class="cls-1" d="m484.88,382.71v2.86h-16.71v-23.02h16.24v2.86h-12.96v7.07h11.54v2.8h-11.54v7.43h13.42Z"/>
        <path class="cls-1" d="m499.14,367.98v3.06c-.26-.03-.49-.03-.72-.03-3.39,0-5.49,2.07-5.49,5.89v8.68h-3.16v-17.43h3.02v2.93c1.12-2.04,3.29-3.09,6.35-3.09Z"/>
        <path class="cls-1" d="m512.4,367.98v3.06c-.26-.03-.49-.03-.72-.03-3.39,0-5.49,2.07-5.49,5.89v8.68h-3.16v-17.43h3.02v2.93c1.12-2.04,3.29-3.09,6.35-3.09Z"/>
        <path class="cls-1" d="m514.51,376.86c0-5.2,3.85-8.88,9.08-8.88s9.05,3.68,9.05,8.88-3.82,8.91-9.05,8.91-9.08-3.72-9.08-8.91Zm14.93,0c0-3.72-2.5-6.12-5.85-6.12s-5.89,2.4-5.89,6.12,2.53,6.15,5.89,6.15,5.85-2.43,5.85-6.15Z"/>
        <path class="cls-1" d="m546.39,367.98v3.06c-.27-.03-.49-.03-.72-.03-3.39,0-5.49,2.07-5.49,5.89v8.68h-3.16v-17.43h3.02v2.93c1.12-2.04,3.29-3.09,6.35-3.09Z"/>
      </g>
      <g>
        <path class="cls-1" d="m416.4,496.9v-10.22h2.57v10.12c0,3.98,1.83,5.78,5.06,5.78s5.09-1.8,5.09-5.78v-10.12h2.49v10.22c0,5.22-2.85,7.97-7.61,7.97s-7.6-2.75-7.6-7.97Z"/>
        <path class="cls-1" d="m449.43,496.83v7.84h-2.47v-7.55c0-2.67-1.33-3.98-3.67-3.98-2.62,0-4.32,1.57-4.32,4.52v7.01h-2.47v-13.62h2.36v2.06c1-1.39,2.75-2.18,4.91-2.18,3.31,0,5.65,1.9,5.65,5.91Z"/>
        <path class="cls-1" d="m464.79,496.44v8.22h-2.34v-1.8c-.82,1.23-2.34,1.95-4.47,1.95-3.08,0-5.04-1.64-5.04-4.01,0-2.18,1.41-3.98,5.47-3.98h3.91v-.49c0-2.08-1.21-3.29-3.65-3.29-1.62,0-3.26.57-4.32,1.46l-1.03-1.85c1.41-1.13,3.44-1.75,5.63-1.75,3.73,0,5.83,1.8,5.83,5.52Zm-2.47,4.06v-1.9h-3.8c-2.44,0-3.13.95-3.13,2.11,0,1.36,1.13,2.21,3.01,2.21s3.31-.85,3.93-2.42Z"/>
        <path class="cls-1" d="m482.05,491.05v13.62h-2.34v-2.05c-1,1.41-2.7,2.21-4.62,2.21-3.52,0-5.86-1.93-5.86-5.93v-7.84h2.47v7.55c0,2.67,1.34,4.01,3.67,4.01,2.57,0,4.21-1.59,4.21-4.52v-7.04h2.47Z"/>
        <path class="cls-1" d="m494.4,503.87c-.75.64-1.88.95-2.98.95-2.75,0-4.32-1.52-4.32-4.27v-7.48h-2.31v-2.03h2.31v-2.98h2.47v2.98h3.9v2.03h-3.9v7.37c0,1.46.77,2.29,2.13,2.29.72,0,1.41-.23,1.93-.64l.77,1.77Z"/>
        <path class="cls-1" d="m510.3,496.83v7.84h-2.47v-7.55c0-2.67-1.33-3.98-3.67-3.98-2.62,0-4.32,1.57-4.32,4.52v7.01h-2.47v-19.06h2.47v7.37c1.03-1.31,2.72-2.06,4.8-2.06,3.31,0,5.65,1.9,5.65,5.91Z"/>
        <path class="cls-1" d="m513.68,497.86c0-4.06,3.01-6.94,7.09-6.94s7.06,2.88,7.06,6.94-2.98,6.96-7.06,6.96-7.09-2.9-7.09-6.96Zm11.66,0c0-2.9-1.95-4.78-4.57-4.78s-4.6,1.88-4.6,4.78,1.98,4.81,4.6,4.81,4.57-1.9,4.57-4.81Z"/>
        <path class="cls-1" d="m538.57,490.92v2.39c-.2-.03-.38-.03-.56-.03-2.65,0-4.29,1.62-4.29,4.6v6.78h-2.47v-13.62h2.36v2.29c.87-1.59,2.57-2.41,4.96-2.41Z"/>
        <path class="cls-1" d="m541.17,486.83c0-.9.72-1.62,1.67-1.62s1.67.69,1.67,1.57c0,.92-.69,1.64-1.67,1.64s-1.67-.69-1.67-1.59Zm.44,4.21h2.47v13.62h-2.47v-13.62Z"/>
        <path class="cls-1" d="m558.86,502.63v2.03h-11.41v-1.59l8.04-9.99h-7.89v-2.03h11.05v1.62l-8.04,9.97h8.25Z"/>
        <path class="cls-1" d="m574.2,498.68h-11.05c.31,2.39,2.23,3.98,4.93,3.98,1.59,0,2.93-.54,3.93-1.64l1.36,1.59c-1.23,1.44-3.11,2.21-5.37,2.21-4.39,0-7.32-2.9-7.32-6.96s2.9-6.94,6.83-6.94,6.73,2.83,6.73,7.01c0,.2-.03.51-.05.74Zm-11.05-1.77h8.74c-.26-2.29-1.98-3.9-4.37-3.9s-4.11,1.59-4.37,3.9Z"/>
        <path class="cls-1" d="m590.51,485.6v19.06h-2.36v-2.16c-1.1,1.54-2.85,2.31-4.86,2.31-3.98,0-6.89-2.8-6.89-6.96s2.9-6.94,6.89-6.94c1.93,0,3.62.72,4.75,2.18v-7.5h2.47Zm-2.44,12.25c0-2.9-1.98-4.78-4.57-4.78s-4.6,1.88-4.6,4.78,1.98,4.81,4.6,4.81,4.57-1.9,4.57-4.81Z"/>
      </g>
    </g>
  </g>
  <path class="cls-4" d="m1169.95,931.62c0,.28-201.47.5-449.93.5s-449.97-.22-449.97-.5,201.42-.5,449.97-.5,449.93.22,449.93.5Z"/>
</svg>