<?xml version="1.0" encoding="UTF-8"?>
<svg xmlns="http://www.w3.org/2000/svg" xmlns:xlink="http://www.w3.org/1999/xlink" viewBox="0 0 1440 1024">
  <defs>
    <style>
      .cls-1 {
        fill: url(#Degradado_sin_nombre_10-3);
      }

      .cls-2 {
        fill: url(#linear-gradient-6);
      }

      .cls-3 {
        isolation: isolate;
      }

      .cls-4 {
        fill: #232f3e;
      }

      .cls-5 {
        fill: #ffbd5c;
      }

      .cls-6 {
        fill: url(#Degradado_sin_nombre_10-2);
      }

      .cls-7 {
        fill: url(#Degradado_sin_nombre_10);
      }

      .cls-8 {
        fill: url(#linear-gradient-5);
      }

      .cls-9 {
        fill: url(#linear-gradient-2);
      }

      .cls-9, .cls-10 {
        mix-blend-mode: darken;
        opacity: .37;
      }

      .cls-11 {
        fill: url(#linear-gradient-7);
      }

      .cls-12 {
        fill: url(#linear-gradient-9);
      }

      .cls-13 {
        fill: url(#linear-gradient-3);
      }

      .cls-10 {
        fill: url(#linear-gradient);
      }

      .cls-14 {
        fill: url(#linear-gradient-4);
        mix-blend-mode: multiply;
        opacity: .5;
      }

      .cls-15 {
        fill: url(#linear-gradient-8);
      }
    </style>
    <linearGradient id="linear-gradient" x1="702.47" y1="741.54" x2="734.18" y2="262.8" gradientUnits="userSpaceOnUse">
      <stop offset="0" stop-color="#ffbd5c"/>
      <stop offset=".22" stop-color="#fcbb5b"/>
      <stop offset=".36" stop-color="#f3b55a"/>
      <stop offset=".48" stop-color="#e4ab58"/>
      <stop offset=".59" stop-color="#cf9e55"/>
      <stop offset=".69" stop-color="#b48c51"/>
      <stop offset=".78" stop-color="#92764d"/>
      <stop offset=".87" stop-color="#6a5d47"/>
      <stop offset=".96" stop-color="#3d3f41"/>
      <stop offset="1" stop-color="#232f3e"/>
    </linearGradient>
    <linearGradient id="linear-gradient-2" x1="728.26" y1="741.54" x2="759.96" y2="262.8" xlink:href="#linear-gradient"/>
    <linearGradient id="linear-gradient-3" x1="390.97" y1="448.39" x2="601.8" y2="718.77" gradientUnits="userSpaceOnUse">
      <stop offset="0" stop-color="#ffbd5c"/>
      <stop offset=".22" stop-color="#fcbb5b"/>
      <stop offset=".36" stop-color="#f3b55a"/>
      <stop offset=".48" stop-color="#e4ab58"/>
      <stop offset=".59" stop-color="#cf9e55"/>
      <stop offset=".69" stop-color="#b48c51"/>
      <stop offset=".78" stop-color="#92764d"/>
      <stop offset=".87" stop-color="#6a5d47"/>
      <stop offset=".96" stop-color="#3d3f41"/>
      <stop offset="1" stop-color="#232f3e"/>
    </linearGradient>
    <linearGradient id="Degradado_sin_nombre_10" data-name="Degradado sin nombre 10" x1="462.07" y1="732.89" x2="459.95" y2="625.1" gradientUnits="userSpaceOnUse">
      <stop offset="0" stop-color="#f9e6d9"/>
      <stop offset=".12" stop-color="#fbf1ea"/>
      <stop offset=".27" stop-color="#fdf9f6"/>
      <stop offset=".48" stop-color="#fefdfd"/>
      <stop offset="1" stop-color="#fff"/>
    </linearGradient>
    <linearGradient id="linear-gradient-4" x1="738.89" y1="867.78" x2="741" y2="721.94" gradientUnits="userSpaceOnUse">
      <stop offset="0" stop-color="#ffbd5c"/>
      <stop offset=".38" stop-color="#fdbb5b"/>
      <stop offset=".52" stop-color="#f6b75a"/>
      <stop offset=".62" stop-color="#eaaf59"/>
      <stop offset=".7" stop-color="#d9a456"/>
      <stop offset=".77" stop-color="#c39653"/>
      <stop offset=".83" stop-color="#a88550"/>
      <stop offset=".88" stop-color="#87704b"/>
      <stop offset=".93" stop-color="#625746"/>
      <stop offset=".98" stop-color="#393d41"/>
      <stop offset="1" stop-color="#232f3e"/>
    </linearGradient>
    <linearGradient id="linear-gradient-5" x1="1081.64" y1="858.42" x2="1081.64" y2="730.02" gradientUnits="userSpaceOnUse">
      <stop offset="0" stop-color="#ffbd5c"/>
      <stop offset=".38" stop-color="#fdbb5b"/>
      <stop offset=".52" stop-color="#f6b75a"/>
      <stop offset=".62" stop-color="#eaaf59"/>
      <stop offset=".7" stop-color="#d9a456"/>
      <stop offset=".77" stop-color="#c39653"/>
      <stop offset=".83" stop-color="#a88550"/>
      <stop offset=".88" stop-color="#87704b"/>
      <stop offset=".93" stop-color="#625746"/>
      <stop offset=".98" stop-color="#393d41"/>
      <stop offset="1" stop-color="#232f3e"/>
    </linearGradient>
    <linearGradient id="linear-gradient-6" x1="448.69" y1="858.42" x2="448.69" y2="730.02" gradientUnits="userSpaceOnUse">
      <stop offset="0" stop-color="#ffbd5c"/>
      <stop offset=".38" stop-color="#fdbb5b"/>
      <stop offset=".52" stop-color="#f6b75a"/>
      <stop offset=".62" stop-color="#eaaf59"/>
      <stop offset=".7" stop-color="#d9a456"/>
      <stop offset=".77" stop-color="#c39653"/>
      <stop offset=".83" stop-color="#a88550"/>
      <stop offset=".88" stop-color="#87704b"/>
      <stop offset=".93" stop-color="#625746"/>
      <stop offset=".98" stop-color="#393d41"/>
      <stop offset="1" stop-color="#232f3e"/>
    </linearGradient>
    <linearGradient id="linear-gradient-7" x1="825.95" y1="502.36" x2="1128.51" y2="722.04" xlink:href="#linear-gradient-3"/>
    <linearGradient id="Degradado_sin_nombre_10-2" data-name="Degradado sin nombre 10" x1="867.32" y1="470.53" x2="1014.58" y2="703.49" xlink:href="#Degradado_sin_nombre_10"/>
    <linearGradient id="linear-gradient-8" x1="622.27" y1="521.77" x2="812.98" y2="737.42" xlink:href="#linear-gradient-3"/>
    <linearGradient id="Degradado_sin_nombre_10-3" data-name="Degradado sin nombre 10" x1="708.07" y1="728.07" x2="705.96" y2="620.27" xlink:href="#Degradado_sin_nombre_10"/>
    <linearGradient id="linear-gradient-9" x1="881" y1="544.29" x2="835.94" y2="392.2" gradientUnits="userSpaceOnUse">
      <stop offset="0" stop-color="#232f3e"/>
      <stop offset="1" stop-color="#ffbd5c"/>
    </linearGradient>
  </defs>
  <g class="cls-3">
    <g id="Layer_1" data-name="Layer 1">
      <g>
        <g>
          <path class="cls-10" d="m342.4,714.08h-100.88c-27-28.04-34.22-72.73-18.09-108.16,15.37-33.77,48.37-56.08,68.37-87.34,42.67-66.7,22.05-166.08,80.03-220,28.99-26.95,70.67-34.75,110.12-37.9s80.23-3.06,116.72-18.4c45-18.91,78.92-59.53,125.26-74.84,52.04-17.19,114.3,4.26,144.71,49.85,19.03,28.53,26.21,64.37,48.71,90.25,36.39,41.84,100.5,45.09,145.89,76.95,31.13,21.85,52.14,57.55,56.16,95.37,4.84,45.67-12.49,97.54,14.89,134.41,13.35,17.98,35,28.11,49.39,45.27,14.34,17.1,18.37,32.68,13.86,54.54H342.4Z"/>
          <path class="cls-9" d="m368.18,714.08h-100.88c-27-28.04-34.22-72.73-18.09-108.16,15.37-33.77,48.37-56.08,68.37-87.34,42.67-66.7,22.05-166.08,80.03-220,28.99-26.95,70.67-34.75,110.12-37.9s80.23-3.06,116.72-18.4c45-18.91,78.92-59.53,125.26-74.84,52.04-17.19,114.3,4.26,144.71,49.85,19.03,28.53,26.21,64.37,48.71,90.25,36.39,41.84,100.5,45.09,145.89,76.95,31.13,21.85,52.14,57.55,56.16,95.37,4.84,45.67-12.49,97.54,14.89,134.41,13.35,17.98,35,28.11,49.39,45.27,14.34,17.1,18.37,32.68,13.86,54.54H368.18Z"/>
        </g>
        <path class="cls-13" d="m591.71,658.74h-31.47v55.32h-76.24v-55.32h-113.97v-56.69l118.86-173.79h71.36v172.82h31.47v57.67Zm-107.72-57.67v-33.23c0-6.26.23-14.69.68-25.32.46-10.62.81-16.19,1.08-16.72h-2.15c-4.43,10.04-9.45,19.42-15.05,28.15l-31.67,47.11h47.11Z"/>
        <path class="cls-7" d="m570.89,658.76h-31.47v55.32h-76.24v-55.32h-113.97v-56.69l118.86-173.79h71.36v172.82h31.47v57.67Zm-107.72-57.67v-33.23c0-6.26.23-14.69.68-25.32.46-10.62.81-16.19,1.08-16.72h-2.15c-4.43,10.04-9.45,19.42-15.05,28.15l-31.67,47.11h47.11Z"/>
        <path class="cls-14" d="m1141.09,714.08H354.81s-42.31,28.09,20.59,32.84c62.9,4.76,161,9.25,158.58,30.65-2.42,21.4-59.22,17.17-59.22,54.95s261.99,29.06,261.99,29.06c0,0,148,1.94,169.08-23.07,21.08-25.01-59.66-47.91-45.01-57.77s121.04,19.73,136.89-4.23c15.85-23.95-3.17-39.1,26.07-42.27s112.38,8.29,117.31-20.16Z"/>
        <ellipse class="cls-8" cx="1081.64" cy="763.84" rx="59.45" ry="16.91"/>
        <ellipse class="cls-2" cx="448.69" cy="778.45" rx="51.96" ry="12.86"/>
        <ellipse class="cls-5" cx="746.53" cy="828.57" rx="59.02" ry="11.36"/>
        <g>
          <path class="cls-11" d="m1031.91,708.14c14.79-12.22,24.64-25.79,29.54-40.72,4.9-14.91,5.68-29.5,2.35-43.75-5.17-22.08-17.58-38.2-37.23-48.38-11.1-5.75-24.07-8.7-38.9-8.86l35.03-57.47-12.08-51.64-185.9,43.49,14.83,63.39,89.13-20.85-28.04,46,12.08,51.64,33.12-7.75c10.68-2.5,18.63-2.79,23.83-.88,5.2,1.92,8.45,5.6,9.72,11.06,1.5,6.41-.4,11.93-5.71,16.55-5.3,4.62-12.71,8.04-22.2,10.27-10.45,2.44-21.89,3.56-34.34,3.34-12.45-.22-24.73-2.16-36.86-5.84l-9.45,46.34h153.05c2.84-1.89,5.52-3.87,8.02-5.93Z"/>
          <path class="cls-6" d="m1027.45,690.15c14.79-12.22,24.64-25.79,29.54-40.72,4.9-14.91,5.68-29.5,2.35-43.75-5.17-22.08-17.58-38.2-37.23-48.38-11.1-5.75-24.07-8.7-38.9-8.86l35.03-57.47-12.08-51.64-185.9,43.49,14.83,63.39,89.13-20.85-28.04,46,12.08,51.64,33.12-7.75c10.68-2.5,18.63-2.79,23.83-.88,5.2,1.92,8.45,5.6,9.72,11.06,1.5,6.41-.4,11.93-5.71,16.55-5.3,4.62-12.71,8.04-22.2,10.27-10.45,2.44-21.89,3.56-34.34,3.34-12.45-.22-24.73-2.16-36.86-5.84l-13.12,64.34h116.72c19.93-5.98,35.95-13.96,48.02-23.93Z"/>
        </g>
        <g>
          <g>
            <path class="cls-15" d="m824.59,562.88c-12.11-27.69-34.82-44.93-68.13-51.73-3.63-.74-7.17-1.33-10.64-1.76-29.39-3.72-53.63,3.29-72.72,21.05-21.36,19.83-37.11,54.65-47.3,104.46-6.23,30.51-7.98,56.9-5.21,79.18h72.82c-.92-13.01,1.65-34.29,7.68-63.8,6.53-31.92,12.99-53.48,19.4-64.68,3.72-6.51,7.94-10.8,12.64-12.87,3.39-1.51,7.05-1.86,10.95-1.06,9.33,1.92,14.7,9.5,16.11,22.75,1.41,13.27-1.06,35.41-7.39,66.43-4.76,23.26-9.54,40.99-14.32,53.24h79.83c3.7-11.46,6.96-24.08,9.76-37.86,1.86-9.11,3.33-17.85,4.39-26.22,4.57-35.66,1.94-64.7-7.86-87.12Z"/>
            <path class="cls-1" d="m804.19,558.72c-10.88-24.87-30.33-41.33-58.37-49.34-3.15-.9-6.41-1.7-9.78-2.39-34.21-7-62-.57-83.36,19.28-21.34,19.85-37.11,54.67-47.28,104.46-2.08,10.13-3.64,19.83-4.72,29.06-2.37,20.28-2.35,38.39.08,54.28h72.72c-.1-.47-.16-.94-.22-1.43-1.53-12.68.94-34.86,7.41-66.53,6.53-31.92,12.99-53.48,19.42-64.66,6.41-11.21,14.27-15.85,23.59-13.93,3.82.78,6.98,2.51,9.44,5.19,3.63,3.88,5.82,9.72,6.66,17.54,1.41,13.27-1.06,35.41-7.39,66.43-5.33,26.02-10.68,45.15-16.05,57.39h80.2c4.23-12.54,7.94-26.53,11.11-41.99,9.78-47.89,8.62-85.67-3.47-113.36Z"/>
          </g>
          <polygon class="cls-4" points="859.77 371.98 859.28 372.36 808.08 412.21 776.12 437.08 749.51 510.72 742.12 508.05 769.54 432.28 854.97 365.79 859.77 371.98"/>
          <path class="cls-12" d="m884.3,537.25c-5.82,6.92-13.76,11.66-21.54,16.26l-.53-.92c3.08-3.94,6.33-8.56,5.41-13.48-.65-3.35-3.12-6.02-5.64-8.27-4.29-3.78-9.07-6.98-13.17-10.95-4.1-3.98-7.56-8.97-8.23-14.64-.86-7.45,3.15-14.48,4.72-21.81.63-2.94.84-6.07-.33-8.84-2.63-6.23-10.56-7.66-16.85-10.17-5.62-2.27-10.91-6.49-12.48-12.34-2.27-8.5,3.78-17.2,2.96-25.96-.57-6.11-4.92-11.58-10.54-13.91l51.2-39.86c8.68,7.52,16.17,17.5,16.26,28.88.04,7.21-2.88,14.07-4.96,20.97-.82,2.78-1.53,5.68-1.02,8.52.8,4.35,4.27,7.64,7.47,10.72,6.6,6.33,13.25,14.03,13.13,23.18-.12,10.27-8.88,19.42-7.35,29.57.98,6.49,5.98,11.66,7.98,17.89,2.74,8.62-.67,18.24-6.49,25.16Z"/>
        </g>
      </g>
    </g>
  </g>
</svg>