<?xml version="1.0" encoding="UTF-8"?>
<svg id="Layer_1" data-name="Layer 1" xmlns="http://www.w3.org/2000/svg" viewBox="0 0 1440 1024">
  <defs>
    <style>
      .cls-1, .cls-2, .cls-3 {
        fill: #fff;
      }

      .cls-4 {
        fill: #fafafa;
      }

      .cls-4, .cls-2 {
        opacity: .2;
      }

      .cls-5 {
        fill: #f5f5f5;
      }

      .cls-6 {
        fill: #232f3e;
      }

      .cls-7 {
        fill: #e1e1e1;
      }

      .cls-3 {
        opacity: .6;
      }

      .cls-8 {
        fill: #ececec;
      }
    </style>
  </defs>
  <rect class="cls-8" x="121.01" y="835.99" width="1197.98" height=".6"/>
  <g>
    <path class="cls-5" d="m1151.73,826.63l-1.12-165.26-24.55-20.74-11.37-54.66-14.71-17.17-7.92-38.26-13.42,17.43-7.59,104.63-7.59-11.98-6.05-40.69-12.12,13.04-15.17,3.79-8.85,86.45-225.12,26.88-46.92-40.15-19.08-78.23-19.77-20.41-6.02-37.71-18.9,6.55v39.8l-16.08,9.24-6.87,80.76-20.17,27.93-5.74-49.91s-15.45-12.36-18.86-15.35c-3.41-2.99-22.91-57.25-19.97-61.31,2.94-4.06-4.22-39.27-4.22-39.27l-19.48,11.66v58.34l-20.33,5.15-3.06,25.43-51.84,8.38-8.34-38.96h-23.12l-7.26,22.2-21.04-.14-33.29,23.87-27.37-53.72-27.84,12.94-20.04-46.54-21.08,27.28-7.8,88.47-10.8,1.26-5.01-19.07-20.26,19.07v128.98h886.11Z"/>
    <path class="cls-5" d="m777.39,385.22h-124.31l.03-.03c-10.7-.3-19.28-9.04-19.28-19.81s8.88-19.84,19.84-19.84c1.98,0,3.89.3,5.7.84-.29-1.99-.45-4.02-.45-6.09,0-23.21,18.81-42.02,42.02-42.02,2.64,0,5.23.26,7.74.72,6.46-10.57,18.07-17.65,31.36-17.65,20.12,0,36.44,16.17,36.74,36.21.21,0,.41-.03.61-.03,18.69,0,33.85,15.15,33.85,33.85s-15.15,33.85-33.85,33.85Z"/>
    <path class="cls-5" d="m851.78,187.25h-46.76,0c-4.02-.12-7.25-3.41-7.25-7.46s3.34-7.46,7.46-7.46c.74,0,1.46.11,2.14.32-.11-.75-.17-1.51-.17-2.29,0-8.73,7.08-15.81,15.81-15.81,1,0,1.97.1,2.91.27,2.43-3.98,6.8-6.64,11.8-6.64,7.57,0,13.71,6.08,13.82,13.62.08,0,.15-.01.23-.01,7.03,0,12.73,5.7,12.73,12.73s-5.7,12.73-12.73,12.73Z"/>
    <path class="cls-5" d="m425.88,201.75h-46.76,0c-4.02-.12-7.25-3.41-7.25-7.46s3.34-7.46,7.46-7.46c.75,0,1.46.11,2.14.32-.11-.75-.17-1.51-.17-2.29,0-8.73,7.08-15.81,15.81-15.81,1,0,1.97.1,2.91.27,2.43-3.98,6.8-6.64,11.8-6.64,7.57,0,13.71,6.08,13.82,13.62.08,0,.15-.01.23-.01,7.03,0,12.73,5.7,12.73,12.73s-5.7,12.73-12.73,12.73Z"/>
    <path class="cls-5" d="m425.88,340.75h-46.76,0c-4.02-.12-7.25-3.41-7.25-7.46s3.34-7.46,7.46-7.46c.75,0,1.46.11,2.14.32-.11-.75-.17-1.51-.17-2.29,0-8.73,7.08-15.81,15.81-15.81,1,0,1.97.1,2.91.27,2.43-3.98,6.8-6.64,11.8-6.64,7.57,0,13.71,6.08,13.82,13.62.08,0,.15-.01.23-.01,7.03,0,12.73,5.7,12.73,12.73s-5.7,12.73-12.73,12.73Z"/>
    <path class="cls-5" d="m1114.59,376.51h-67.63v-.02c-5.81-.16-10.48-4.92-10.48-10.78s4.83-10.79,10.79-10.79c1.08,0,2.12.16,3.1.46-.16-1.08-.24-2.19-.24-3.31,0-12.62,10.23-22.86,22.86-22.86,1.44,0,2.85.14,4.21.39,3.51-5.75,9.83-9.6,17.06-9.6,10.95,0,19.82,8.79,19.99,19.7.11,0,.22-.02.33-.02,10.17,0,18.41,8.24,18.41,18.41s-8.24,18.41-18.41,18.41Z"/>
    <path class="cls-5" d="m608.45,224.96h-67.63v-.02c-5.81-.16-10.48-4.92-10.48-10.78s4.83-10.79,10.8-10.79c1.08,0,2.12.16,3.1.46-.16-1.08-.24-2.19-.24-3.31,0-12.63,10.24-22.86,22.86-22.86,1.44,0,2.85.14,4.21.39,3.51-5.75,9.83-9.6,17.06-9.6,10.95,0,19.82,8.79,19.99,19.7.11,0,.22-.02.33-.02,10.17,0,18.41,8.24,18.41,18.41s-8.24,18.41-18.41,18.41Z"/>
    <path class="cls-7" d="m822.71,600c-5.09-37.07,10.57-78.69,32.58-106.18,4.06-5.07,8.41-9.99,11.36-15.78,9.1-17.85-5.05-30.36-18.25-40.38-49.83-37.82,6.24-44.4,32.43-66.07,2.33-1.93,4.66-4.22,5.21-7.19.9-4.88-3.21-9.11-6.95-12.37-18.07-15.73-40.46-31.51-44.49-56.98-1.68-10.62.95-22.3,8.65-29.81,19.37-18.89,130.39,3.43,109.72-46.51-3.02-7.3-7.45-14.82-5.84-22.56,9.97-47.89,128.06-29.02,159.97-27.43-27.07-1.35-54.36,1.86-80.37,9.44-12.02,3.5-25.71,10.28-26.99,22.73-1.25,12.2,10.27,21.16,19.17,27.25,13.57,9.29,30.74,23.5,16.35,40.79-18.23,21.9-53.73,24.92-79.5,31.78-9,2.4-18.73,6.04-19.21,16.95-.27,6.21,2.42,12.14,5.44,17.57,6.45,11.6,14.69,22.26,19.75,34.52,5.01,12.14,5.49,28.62-3.12,39.92-16.54,21.7-46.36,15.73-25.06,51.75,26.85,45.41,25.43,98.86,5.7,146.92-9.92,24.16-28.07,52.05-56.89,53.8-15.99.97-31.62-7.57-41.76-19.97-10.15-12.42-15.78-26.92-17.87-42.2Z"/>
    <path class="cls-8" d="m283.58,781.7l39.6-7.9,8.92-108.23,27.01-18.71,9.41-92.82,24.27-27.32,11.29,21.29,18.43,33.64,6.15,32.99,10.45,29.46,22.57,35.3,20.26-18.09s11.04-17.92,16.33-20.26c5.28-2.33,26.9-4.32,26.9-4.32l30.05,28.84v22.43l30.74,16.39,18.91,19,11.31,13.97,21,10.91c46.17-31.86,160.61-121.26,185.97-239.98l28.8,27.05,20.49-32.19,16.12,33.92-11.32,35.69,19.75,18-8.43,36.06,23.5-36.06-12.63-25.53,9.66-22.45-7.15-33.23,22.21-10.04,28.32,43.27,19.38-34.5s24.07,180.05,225.28,328.12H240.35l43.23-54.71Z"/>
  </g>
  <g>
    <path class="cls-6" d="m802.01,241.17c-1.44,73.58-45.67,104.03-45.67,104.03,1.08-4.07,2.01-8,2.78-11.81.31-1.51.58-2.97.84-4.43.26-1.46.5-2.92.72-4.34.29-1.77.5-3.52.72-5.25.1-.86.19-1.73.29-2.56.12-1.03.22-2.04.29-3.02.07-.89.14-1.75.19-2.61.1-1.13.14-2.25.19-3.35.07-1.1.1-2.2.12-3.28-2.52,13.8-7.33,21.85-7.33,21.85.31-50.94-38.79-65.41-38.79-65.41l11.48-8.34,22.57-16.36c2.2,4.24,4.07,8.34,5.65,12.36l3.16-.5,32.68-5.32,10.11-1.65Z"/>
    <path class="cls-2" d="m762.48,304.54c.17-6.64-.17-12.65-.79-18.09-1.08,12.39-3.76,21.32-5.3,25.59-2.61-11.19-5.92-20.82-9.54-29.04,5.94,2.18,12.7,2.9,19.65,1.77,8.79-1.44,16.34-5.58,21.73-11.24.19.05.38.1.6.14-6.92,33.9-23.67,53.55-29.71,59.71.31-1.51.6-2.97.84-4.43.26-1.46.5-2.9.72-4.34.29-1.77.5-3.52.72-5.25.12-.86.22-1.73.29-2.56.12-1.03.22-2.04.29-3.02.07-.89.14-1.75.19-2.61.1-1.15.17-2.25.19-3.35.07-1.1.1-2.2.12-3.28Z"/>
    <path class="cls-6" d="m846.03,227.67c-1.19-7.34-6.77-13-14.08-15.41-3.24-16.27-20.75-26.88-39.68-23.8-4.37.71-8.42,2.12-12.07,4.03-4.84-3.19-11.18-4.65-17.78-3.58-2.95.48-5.68,1.44-8.13,2.74-6-2.24-12.85-3-19.9-1.86-15.54,2.53-27.25,13.51-29.8,26.46-10.22,3.58-16.82,12.98-15.24,22.69.53,3.23,1.91,6.12,3.91,8.57-1,3.7-1.28,7.6-.64,11.53,2.73,16.8,20.59,27.88,39.89,24.73,5.64-.92,10.76-2.98,15.14-5.81,6.86,3.58,15.24,5.07,23.93,3.65,8.79-1.43,16.33-5.58,21.71-11.25,5.16,1.39,10.82,1.75,16.61.81,15.41-2.51,27.05-13.33,29.73-26.15,4.86-4.56,7.46-10.88,6.41-17.36Z"/>
    <path class="cls-2" d="m839.63,245.03c-2.68,12.82-14.33,23.65-29.73,26.14-5.8.96-11.45.6-16.6-.79-5.39,5.65-12.94,9.8-21.73,11.24-8.67,1.41-17.06-.07-23.91-3.64-4.38,2.83-9.51,4.89-15.14,5.8-19.31,3.14-37.16-7.93-39.89-24.73-.65-3.93-.36-7.83.62-11.52-1.99-2.47-3.38-5.34-3.91-8.58-1.58-9.73,5.03-19.12,15.24-22.69.77-3.79,2.28-7.38,4.46-10.69,5.27-7.95,14.35-13.99,25.35-15.79,7.07-1.15,13.92-.36,19.91,1.87,2.44-1.29,5.18-2.25,8.12-2.73,6.61-1.08,12.96.38,17.78,3.57,3.67-1.92,7.72-3.31,12.08-4.03,10.04-1.63,19.69.58,27.03,5.46.02,0,.05.02.07.05,6.45,4.31,11.07,10.66,12.58,18.28,7.33,2.42,12.89,8.07,14.09,15.43,1.05,6.47-1.53,12.79-6.4,17.35Z"/>
    <path class="cls-2" d="m832.13,228.28c0,13.73-13.42,24.87-29.97,24.87-2.49,0-4.89-.26-7.21-.74-2.4,11.74-14.69,20.68-29.52,20.68-11.98,0-22.28-5.85-27.07-14.28-3.74,1.39-7.88,2.2-12.27,2.2-16.53,0-29.97-11.14-29.97-24.89,0-8.12,4.7-15.29,11.96-19.84-.19-1.13-.34-2.3-.34-3.47,0-2.52.46-4.96,1.29-7.24,5.27-7.95,14.35-13.99,25.35-15.79,7.07-1.15,13.92-.36,19.91,1.87,2.44-1.29,5.18-2.25,8.12-2.73,6.61-1.08,12.96.38,17.78,3.57,3.67-1.92,7.72-3.31,12.08-4.03,10.04-1.63,19.69.58,27.03,5.46.02,0,.05.02.07.05,5.2,4.48,8.39,10.57,8.39,17.27,0,1.22-.14,2.44-.34,3.64,2.97,3.86,4.72,8.46,4.72,13.39Z"/>
    <g>
      <path class="cls-1" d="m733.65,247.52l.48,2.93-14.11,2.3-3.06-18.82,13.74-2.24.48,2.93-10.24,1.67.8,4.89,9.09-1.48.47,2.88-9.09,1.48.84,5.19,10.62-1.73Z"/>
      <path class="cls-1" d="m750.34,247.81l-4.74-4.88c-.24.06-.48.1-.72.14l-4.25.69.89,5.48-3.5.57-3.06-18.82,7.74-1.26c4.95-.81,8.42,1.22,9.1,5.39.46,2.85-.65,5.18-3.04,6.59l5.33,5.48-3.76.61Zm-7.31-15.09l-4.09.67,1.22,7.5,4.09-.67c3.07-.5,4.42-2.16,4.04-4.52-.39-2.37-2.19-3.48-5.26-2.98Z"/>
      <path class="cls-1" d="m769.98,244.61l-4.74-4.88c-.24.07-.48.1-.72.14l-4.25.69.89,5.48-3.49.57-3.06-18.82,7.74-1.26c4.95-.8,8.42,1.22,9.1,5.39.46,2.85-.65,5.18-3.04,6.6l5.33,5.48-3.76.61Zm-7.31-15.09l-4.09.66,1.22,7.5,4.09-.66c3.07-.5,4.42-2.16,4.04-4.52-.39-2.37-2.19-3.48-5.26-2.98Z"/>
      <path class="cls-1" d="m774.44,234.23c-.91-5.57,2.73-10.38,8.56-11.33,5.83-.95,10.8,2.44,11.71,8.03.91,5.59-2.73,10.38-8.56,11.32-5.83.95-10.8-2.46-11.71-8.02Zm16.75-2.73c-.63-3.84-3.9-6.15-7.69-5.54-3.79.62-6.16,3.85-5.54,7.69.62,3.84,3.9,6.15,7.69,5.53,3.79-.62,6.16-3.85,5.54-7.69Z"/>
      <path class="cls-1" d="m812.26,237.73l-4.74-4.88c-.24.06-.48.1-.72.14l-4.25.69.89,5.48-3.49.57-3.06-18.82,7.74-1.26c4.95-.8,8.42,1.22,9.1,5.39.46,2.85-.65,5.18-3.04,6.59l5.33,5.48-3.76.61Zm-7.31-15.09l-4.09.67,1.22,7.5,4.09-.67c3.07-.5,4.42-2.16,4.04-4.52s-2.19-3.48-5.26-2.98Z"/>
    </g>
  </g>
  <path class="cls-6" d="m1029.19,697.16c-6.69-7.66-6.84-56.28-6.84-56.28,0,0-33.42-109.62-33.42-115.93s-12.73-22.24-12.73-22.24h-17.51s-8.75-15.69-14.32-24.5c-5.57-8.81-7.16-29.47-7.16-33.73s-38.71-57.4-38.71-57.4l-28.83-41.87-16.02,4s-9.55,16.16-11.14,16.41c-1.59.25-12.73,8.62-12.73,8.62l-19.9,6.12-13.57,22.53-19.06-27.6-32.2-24.83-30.03,12.44-33.27-18.64-9.55-23.37-34.66-20.25-55.37-22.04-15.49,30.6-23.75,47.63-33.08,29.04s-18.97,52.37-15.18,68.61c3.79,16.25-18.09,26.31-18.09,26.31l-27.73,30.28-75.47,215.39-10.06,33.89,67.84,47.13,25.17,8.11,28.91-2.78,15.05,15.05,27.82,7.26h9.55l21.59,14.68,23.77-18.37,36.61,22.65s23.45,12.4,24.46,13.25c1.01.85,24.51,0,24.51,0l31.6-25.91,25.01,9.97s5.42-.64,9.21,2.7c3.79,3.34,25.08,13.63,25.08,13.63l10.28,8.13,26.58-24.45s20.03,5.2,24.33,5.12c4.3-.08,28.64,5.72,28.64,5.72l16.32-3.06,10.98-1.69,34.81-13.88,14.33-32.53s46.25-15.02,48.72-14.26c2.47.76,21.87-1.3,21.87-1.3l20.39-7.81,21.18-17.03,33.78-10.31s-35.81-55.52-42.5-63.17Z"/>
  <path class="cls-4" d="m450.95,553.68l-16.78-.8,14.64-41.83,27.74-30.28s21.89-10.06,18.08-26.3c-3.78-16.26,15.19-68.62,15.19-68.62l25.83-22.67,6.54,18.62-21.75,47.07-7.97,61.83-32.89,23.83-28.65,39.14Z"/>
  <polygon class="cls-4" points="710.37 626.02 727.09 620.6 735.84 614.04 744.59 598.99 755.74 604.43 758.13 591.29 767.68 578.9 778.35 540.22 785.99 583.92 762.9 667.4 762.9 698.86 724.05 658.19 710.37 640.88 710.37 626.02"/>
  <path class="cls-4" d="m800.62,546.56l-4.28-21.61,9.56-26.86,31.82-25.53,7.97-17.01,7.95-32.43,16.01,9.46s.84,5.96,3.1,10.43c2.23,4.45,24.22,19.35,23.64,21.89-.3,1.35,2.86,8.47,5.89,14.84l-32.63,15.72-39.99,82.6-18.81,6.13-7.6-13.61-2.61-24.02Z"/>
  <path class="cls-4" d="m869.64,396l8.75-21.76-8.75-29.03,28.85,41.87s38.7,53.16,38.7,57.42,1.59,24.92,7.16,33.72c5.57,8.82,14.32,24.49,14.32,24.49l-28.91,28.06-10.5-17.29,2.8-25.55,3.98-19.63-16.86,8.11c-.68-4.62-1.29-8.06-1.65-8.95-1.39-3.4-9.05-18.71-9.05-18.71l-8.83-24.06-11.27-12.54-8.75-16.15Z"/>
  <path class="cls-4" d="m956.86,516.69l19.33-13.98s12.71,15.94,12.71,22.24,33.43,115.93,33.43,115.93v.45l-7.16,4.92-27.06-20.24-1.59-10.54-3.18-42.54-41.4-31.38,14.91-24.88Z"/>
  <path class="cls-4" d="m1071.69,760.34l-19.15-12.97s-19.9,4.24-23.07,4.9c-3.18.69-14.32-2.37-18.81-4.9-4.49-2.54-27.08,24.37-27.08,24.37l-27.1-.84-2.6-14.13-15.39-15.5-30.96-21.16s5.73,22.99,6.62,27.27c.88,4.28-12.03,27.2-17.78,33.29-5.73,6.11-10.16,12.64-12.55,14.28-2.37,1.66-19.09,1.76-23.07.54-3.98-1.2-7.16-3.89-11.45-7.27-4.29-3.38-15.61-2.58-21.97-5.98-6.38-3.4-24.66-3.63-24.66-3.63l-17.98-18.26s-11.49,17.63-14.93,22.62c-3.44,4.99-6.1-1.57-8.23-2.3-2.11-.71-17.76-2.69-23.34-5.25-5.57-2.58-18.17-9.25-18.17-9.25l-27.2,17.61-26.88,20.11h-41.6l-7.89-2.84-28.32,5.55s-2.76-3.94-6.36-8.06c-3.6-4.11-6.22-10.32-6.22-10.32l1.37-40.84s-17.8,33.16-18.87,36.41c-1.07,3.23-15.45,7.42-15.45,7.42l-19.23,9.85-35.2-9.85-25.23-13.98v-24.75l-13.58,16.11-30.98,4.77-17.52-11.51-37.58-1.51,10.06-33.89,27.5-78.47,15.67-17.74,15.31-11.33,18.57,3.96s15.91,6.24,18.57,4.54c2.66-1.7,14.87-8.49,14.87-8.49l10.8,3.4,8.13,18.58-17.34,16.28s-.52,18.45-1.59,21.29c-1.07,2.84-1.59,13.03-2.66,15.87-1.07,2.84.52,7.96-1.59,11.35-2.13,3.4-4.24,11.33-5.83,13.03-1.55,1.68-7.56,18.21-7.95,19.25l16.44-24.34s2.66-3.98,4.24-10.21c1.59-6.24,5.63-24.95,10.24-30.62,4.61-5.68,12.57-20.71,12.57-20.71h14.32l32.89-5.81h20.42l10.36,32.19v15.87l4.77-20.41s-9.56-23.55-9.56-27.66,1.07-27.35,1.07-27.35l8.49-13.61,2.65-26.67-5.71-42.9v-38.19l5.71-17.12-12.73,17.68-1.59,14.75-5.83,6.62-8.49-.97-6.38-18.13-15.91,7.35-11.67-10.77s1.07-22.11,1.07-24.95,8.49-33.83,8.49-33.83l2.11-12.69,6.36,15.89-2.11,11.91,6.9-15.12-10.62-38.21,5.31-17.01-1.09-37.4,18.13-36.36,15.49-30.6,16.82,18.15,22.29,9.96,7.95,19.55,9.56,16.15-37.4,31.85-19.21,58.34-15.81,27.23-4.77,34.02,9.21-33.18,18.23-22.47,11.14-34.52,13.14-29.42,40.6-25.03,46.47,25.03,14.89,28.47c-13.04-.71-44.66.95-44.66.95l-32.63,34.97-27.92,80.84v36.21s12.81,22.39,12.81,28.24,15.91,15.08,15.91,15.08v15.05l11.93-5.63h14.32l18.31,10.49,4.67,14.43v.02l-.46,3.55-22.51,9.35s-7.95,15.18-10.34,17.72c-2.39,2.56-13.52,30.64-15.13,34.88-1.59,4.26-12.73,26.39-12.73,26.39l-10.34,16.15,25.47-21.27s7.16-20.41,8.75-22.97c1.59-2.54,14.32-24.67,14.32-24.67l14.32-15.33,16.76-5.1,15.09,11.83,3.82,23.05,3.16,11.91,5.89,28.09.5,18.71,4.93-28.06-.8-11.91-.78-18.73v-13.59l9.53,4.39,21.51,30.47,7.16,18.73,6.36,18.71-2.39-47.63v-13.61l5.57-21.27s9.56-23.83,14.32-34.04c4.79-10.19,11.19-30.43,11.19-30.43l17.6,15.38,5.43,10.82,13.54,27.2-8.07-26.04v-.02l8.07-11.96h23.19l8.73,5.48h12.63v49.57l14.1,43.38v-42.54l3.72-6.04,20.38-.62,21.48.71,15.93,26.39-3.98-26.39,7.87-11.91,13.62-11.18v-10.92l16.72,22.11,23.07,37.44,11.89,3.33c.62,1.91,1.31,3.42,2.11,4.32,6.7,7.66,42.51,63.18,42.51,63.18Z"/>
  <path class="cls-6" d="m589.02,580.06l-4.67-55.28-12.08-12.08-10.28.87-1.63-19.32-12.08-12.08-38.68,3.26,31.24-77.77-12.08-12.08-55.32,4.67-56.93,135.62,3.82,45.31,12.08,12.08,72-6.08,1.96,23.24,12.08,12.08,52.35-4.42-3.06-36.25,21.26-1.79Zm-88.75-61.28l-4.19.35,3.49-8.68.7,8.33Z"/>
  <path class="cls-2" d="m589.02,580.06l-4.67-55.28-12.08-12.08-10.28.87-1.63-19.32-12.08-12.08-38.68,3.26,31.24-77.77-12.08-12.08-55.32,4.67-56.93,135.62,3.82,45.31,12.08,12.08,72-6.08,1.96,23.24,12.08,12.08,52.35-4.42-3.06-36.25,21.26-1.79Zm-88.75-61.28l-4.19.35,3.49-8.68.7,8.33Z"/>
  <path class="cls-3" d="m576.94,568.3l-21.26,1.79,3.06,36.25-52.35,4.42-3.06-36.25-82.98,7-3.82-45.31,56.93-135.62,55.32-4.67-50.23,125.02,21.72-1.83-2.73-32.32,50.75-4.28,2.73,32.32,21.26-1.79,4.67,55.28Z"/>
  <path class="cls-6" d="m702.88,356.64c-50-3.06-88.17,35.3-92.47,105.5-.41,6.64-.48,13.03-.23,19.16-2.42,67.17,30.34,107.93,79.13,110.92,50,3.06,88.17-35.3,92.47-105.5.41-6.64.48-13.03.23-19.16,2.42-67.18-30.34-107.94-79.13-110.92Zm14.84,112.07c-2.5,40.85-12.47,52.99-24.9,52.23-10.09-.62-17.53-9.48-18.64-34.62.07-1.99.17-4.03.3-6.17,2.5-40.85,12.47-53,24.9-52.23,10.09.62,17.53,9.48,18.64,34.62-.07,1.99-.17,4.03-.3,6.17Z"/>
  <path class="cls-2" d="m702.88,356.64c-50-3.06-88.17,35.3-92.47,105.5-.41,6.64-.48,13.03-.23,19.16-2.42,67.17,30.34,107.93,79.13,110.92,50,3.06,88.17-35.3,92.47-105.5.41-6.64.48-13.03.23-19.16,2.42-67.18-30.34-107.94-79.13-110.92Zm14.84,112.07c-2.5,40.85-12.47,52.99-24.9,52.23-10.09-.62-17.53-9.48-18.64-34.62.07-1.99.17-4.03.3-6.17,2.5-40.85,12.47-53,24.9-52.23,10.09.62,17.53,9.48,18.64,34.62-.07,1.99-.17,4.03-.3,6.17Z"/>
  <path class="cls-3" d="m610.41,462.45c4.3-70.2,42.46-108.56,92.47-105.5,50,3.06,83.2,45.8,78.9,116-4.3,70.2-42.46,108.56-92.47,105.49-50-3.06-83.2-45.8-78.9-115.99Zm107.31,6.57c2.5-40.85-5.91-54.12-18.34-54.88-12.43-.76-22.4,11.38-24.9,52.23-2.5,40.85,5.91,54.12,18.34,54.88,12.43.76,22.4-11.38,24.9-52.23Z"/>
  <path class="cls-6" d="m996.33,536.99l-23.51-1.87,2.57-32.33-56.13-4.46-10.76,6.62,60.46-90.86-61.19-4.87-18.12,6.04-85.43,123.97-3.61,45.33,91.78,7.3-2.88,36.26,57.9,4.61,18.12-6.04,2.29-28.83,5.99.48,18.12-6.04,4.4-55.3Zm-97.17-7.73l-6.49-.52,7.42-11.16-.93,11.67Z"/>
  <path class="cls-2" d="m996.33,536.99l-23.51-1.87,2.57-32.33-56.13-4.46-10.76,6.62,60.46-90.86-61.19-4.87-18.12,6.04-85.43,123.97-3.61,45.33,91.78,7.3-2.88,36.26,57.9,4.61,18.12-6.04,2.29-28.83,5.99.48,18.12-6.04,4.4-55.3Zm-97.17-7.73l-6.49-.52,7.42-11.16-.93,11.67Z"/>
  <path class="cls-3" d="m991.93,592.3l-23.51-1.87-2.88,36.26-57.9-4.61,2.88-36.26-91.78-7.3,3.61-45.33,85.43-123.97,61.19,4.87-76.29,114.66,24.02,1.91,2.57-32.33,56.13,4.46-2.57,32.33,23.51,1.87-4.4,55.3Z"/>
  <path class="cls-6" d="m394.84,812.81c.05,0,.09-.02.15-.02-.06-.02-.11-.04-.17-.06.02.03.02.05.02.08Z"/>
  <path class="cls-6" d="m465.89,804.16c-.23.05-.4.17-.53.39-.09.15-.11.33-.14.51.25-.21.5-.41.72-.63-.01-.08-.02-.17-.05-.27Z"/>
  <path class="cls-6" d="m394.31,811.96c-.02.15-.03.29.02.43.09.18.28.27.48.34-.06-.31-.18-.56-.43-.74-.03-.01-.04-.02-.07-.03Z"/>
  <path class="cls-6" d="m738.41,771.29c.05,0,.1,0,.15.01-.05-.03-.1-.06-.16-.09.01.03,0,.05,0,.08Z"/>
  <path class="cls-1" d="m394.84,812.81c.05,0,.09-.02.15-.02-.06-.02-.11-.04-.17-.06.02.03.02.05.02.08Z"/>
  <path class="cls-1" d="m394.31,811.96c-.02.15-.03.29.02.43.09.18.28.27.48.34-.06-.31-.18-.56-.43-.74-.03-.01-.04-.02-.07-.03Z"/>
</svg>