<?xml version="1.0" encoding="UTF-8"?>
<svg id="Layer_1" data-name="Layer 1" xmlns="http://www.w3.org/2000/svg" viewBox="0 0 1440 1024">
  <defs>
    <style>
      .cls-1 {
        fill: #f0f0f0;
      }

      .cls-2 {
        fill: #f5f5f5;
      }

      .cls-3 {
        opacity: .3;
      }

      .cls-3, .cls-4 {
        fill: #ffbd5c;
      }

      .cls-5 {
        fill: #232f3e;
      }

      .cls-6 {
        fill: #e1e1e1;
      }

      .cls-7 {
        fill: #ececec;
      }
    </style>
  </defs>
  <g>
    <path class="cls-7" d="m644.48,422.32l1.1-32.19-19.76-6.46c-.81-11-2.65-21.86-5.27-32.33l16.75-12.35-11.38-30.24-20.72,1.67c-4.94-9.78-10.74-19.08-17.25-27.8l10.73-17.91-22.07-23.54-18.52,9.48c-8.34-7.09-17.14-13.51-26.55-19.19l3-20.56-29.39-13.34-13.47,15.78c-10.26-3.33-20.89-5.82-31.89-7.47l-5.01-20.16-32.28-1.11-6.37,19.77c-11.09.9-21.86,2.65-32.33,5.27l-12.44-16.67-30.24,11.3,1.67,20.72c-9.78,5.02-19.08,10.82-27.81,17.33l-17.83-10.73-23.63,21.98,9.48,18.61c-7.09,8.26-13.51,17.14-19.11,26.56l-20.56-3.08-13.42,29.39,15.87,13.47c-3.33,10.26-5.91,20.97-7.47,31.89l-20.24,5.09-1.1,32.19,19.85,6.46c.81,11.08,2.65,21.86,5.27,32.32l-16.75,12.35,11.38,30.24,20.72-1.67c4.94,9.78,10.74,19.08,17.25,27.81l-10.73,17.91,22.07,23.55,18.52-9.49c8.26,7.09,17.14,13.52,26.55,19.2l-3.09,20.56,29.39,13.34,13.55-15.78c10.26,3.33,20.89,5.82,31.89,7.47l5.01,20.16,32.28,1.11,6.38-19.77c11.08-.89,21.86-2.65,32.32-5.27l12.35,16.67,30.24-11.3-1.59-20.72c9.78-5.02,19-10.83,27.81-17.33l17.83,10.73,23.63-21.98-9.48-18.61c7.09-8.26,13.51-17.14,19.11-26.56l20.56,3.09,13.42-29.39-15.87-13.47c3.33-10.26,5.9-20.89,7.47-31.89l20.16-5.09Zm-217.53,104.29c-70.5-2.42-125.71-61.54-123.29-132.04,2.42-70.59,61.54-125.79,132.04-123.37,70.5,2.42,125.71,61.53,123.29,132.12-2.42,70.5-61.54,125.71-132.04,123.29Z"/>
    <path class="cls-7" d="m1195.39,315.87l8.12-7.58-3.24-6.39c2.48-2.88,4.68-5.98,6.6-9.17l7.1,1.07,4.6-10.15-5.46-4.65c1.18-3.59,2.03-7.27,2.57-10.99l6.99-1.75.36-11.12-6.83-2.2c-.31-3.76-.88-7.47-1.8-11.16l5.75-4.28-3.91-10.42-7.13.56c-1.69-3.31-3.68-6.51-5.95-9.6l3.69-6.14-7.6-8.14-6.37,3.27c-2.92-2.49-5.98-4.68-9.17-6.6l1.03-7.1-10.13-4.62-4.65,5.46c-3.61-1.16-7.29-2.01-11.01-2.55l-1.73-6.96-11.12-.4-2.22,6.85c-3.74.29-7.48.88-11.14,1.82l-4.26-5.76-10.44,3.89.58,7.15c-3.31,1.69-6.55,3.67-9.6,5.95l-6.18-3.7-8.12,7.58,3.26,6.42c-2.5,2.9-4.68,5.98-6.6,9.17l-7.1-1.07-4.6,10.15,5.46,4.64c-1.18,3.59-2.03,7.27-2.57,10.99l-6.99,1.75-.36,11.12,6.83,2.2c.29,3.74.88,7.48,1.79,11.16l-5.76,4.26,3.91,10.42,7.15-.54c1.69,3.31,3.67,6.51,5.95,9.6l-3.69,6.14,7.6,8.14,6.37-3.27c2.92,2.48,5.98,4.68,9.17,6.6l-1.05,7.08,10.13,4.62,4.66-5.44c3.61,1.16,7.27,1.99,11.01,2.55l1.73,6.97,11.12.4,2.23-6.85c3.74-.29,7.48-.88,11.14-1.82l4.26,5.77,10.44-3.89-.58-7.15c3.31-1.69,6.53-3.65,9.6-5.95l6.16,3.67Zm-57.85-46.87c-5.97-6.4-5.63-16.43.77-22.4,6.4-5.98,16.43-5.64,22.41.76,5.97,6.4,5.63,16.43-.77,22.41-6.4,5.97-16.43,5.63-22.4-.77Z"/>
    <path class="cls-7" d="m899.05,646.37l-25.33-17.5s0-.04-.01-.06c-2.5-9.2-5.96-18.06-10.19-26.39l6.49-25.47-36.75-39.36-25.87,4.74c-8.01-4.78-16.61-8.83-25.61-11.96-.02,0-.04-.01-.06-.02l-15.73-26.48-53.81-1.84-17.5,25.33s-.07.02-.1.02c-9.19,2.51-18.04,5.95-26.36,10.18l-25.46-6.49-39.35,36.75,4.73,25.81s0,.01-.01.02c-4.88,8.1-8.84,16.7-11.97,25.71l-26.48,15.72-1.84,53.81,25.36,17.51c2.5,9.27,5.85,18.11,10.16,26.5t0,0l-6.47,25.39,36.75,39.35,25.71-4.7c8.11,4.8,16.72,8.85,25.84,11.99,0,0,.01,0,.02,0l15.7,26.44,53.81,1.84,17.48-25.32c9.3-2.5,18.17-5.96,26.58-10.19,0,0,0,0,0,0l25.34,6.46,39.35-36.74-4.73-25.82c4.88-8.1,8.84-16.71,11.97-25.71,0,0,0,0,0,0l26.49-15.73,1.84-53.81Zm-167.69,81.8c-33.45-1.15-59.58-29.23-58.44-62.58,1.15-33.45,29.13-59.58,62.58-58.44,33.45,1.15,59.58,29.13,58.44,62.58-1.14,33.35-29.13,59.58-62.58,58.44Z"/>
    <path class="cls-7" d="m956.77,493.55c-.06,0-.12,0-.18,0l-42.42-1.45c-1.76-.06-3.37-1.01-4.27-2.53l-11.42-19.24c-6.07-2.2-12.06-4.98-17.84-8.28l-18.39,3.36c-1.74.33-3.51-.27-4.71-1.56l-28.97-31.02c-1.2-1.29-1.67-3.1-1.23-4.81l4.63-18.15c-2.81-5.75-5.16-11.89-7-18.3l-18.45-12.74c-1.45-1-2.29-2.67-2.23-4.43l1.45-42.42c.06-1.76,1.01-3.37,2.53-4.27l19.27-11.44c2.29-6.26,5.06-12.21,8.26-17.76l-3.38-18.45c-.32-1.73.27-3.51,1.56-4.71l31.03-28.97c1.29-1.21,3.1-1.67,4.81-1.23l18.21,4.64c5.89-2.87,12.01-5.23,18.25-7.03l12.73-18.44c1-1.45,2.64-2.35,4.43-2.23l42.42,1.45c1.76.06,3.37,1.01,4.27,2.53l11.45,19.27c6.08,2.23,12.02,5,17.7,8.26l18.51-3.39c1.74-.32,3.51.27,4.71,1.56l28.97,31.03c1.2,1.29,1.67,3.1,1.23,4.81l-4.64,18.22c2.87,5.89,5.23,12.01,7.03,18.24l18.43,12.73c1.45,1,2.29,2.67,2.23,4.43l-1.45,42.43c-.06,1.76-1.01,3.37-2.53,4.27l-19.28,11.45c-2.28,6.25-5.05,12.21-8.25,17.74l3.38,18.46c.32,1.73-.27,3.51-1.56,4.71l-31.03,28.97c-1.29,1.21-3.1,1.67-4.81,1.23l-18.13-4.62c-5.98,2.89-12.13,5.24-18.34,7.03l-12.72,18.42c-.97,1.4-2.56,2.23-4.26,2.23Zm-39.42-11.7l36.77,1.26,12.18-17.63c.7-1.01,1.73-1.74,2.91-2.05,6.77-1.82,13.49-4.4,19.98-7.66.01,0,.02,0,.03-.02,1.08-.53,2.34-.7,3.57-.38l17.24,4.39,26.89-25.11-3.22-17.57c-.23-1.24,0-2.52.66-3.6,3.55-5.89,6.56-12.34,8.94-19.19.39-1.22,1.22-2.24,2.31-2.87l18.43-10.95,1.26-36.77-17.65-12.19c-.92-.64-1.61-1.56-1.97-2.62-.04-.13-.08-.27-.12-.41-1.85-6.76-4.41-13.39-7.63-19.73-.57-1.12-.71-2.4-.4-3.62l4.42-17.34-25.11-26.89-17.61,3.22c-1.24.23-2.51,0-3.58-.65-6.12-3.66-12.59-6.67-19.22-8.98-.37-.13-.75-.3-1.08-.5-.71-.44-1.31-1.05-1.74-1.77l-10.96-18.45-36.77-1.26-12.19,17.65c-.72,1.05-1.81,1.79-3.05,2.09-6.8,1.86-13.42,4.42-19.73,7.62-1.12.57-2.41.71-3.62.4l-17.33-4.42-26.89,25.11,3.22,17.57c.2,1.1.04,2.24-.46,3.24-.07.14-.15.28-.23.42-3.56,5.91-6.57,12.39-8.95,19.25-.4,1.15-1.2,2.13-2.25,2.75l-18.44,10.95-1.26,36.77,17.66,12.2c1.01.69,1.74,1.72,2.06,2.91,1.9,7.05,4.47,13.73,7.62,19.89.18.35.32.72.42,1.11.21.83.21,1.7,0,2.53l-4.4,17.28,25.11,26.89,17.49-3.2c1.23-.22,2.49,0,3.56.64,6.23,3.69,12.73,6.71,19.32,8.98,1.19.38,2.22,1.18,2.88,2.29l10.94,18.42Zm60.71-232.27h.02-.02Zm-38,185.81c-.91,0-1.81-.02-2.72-.05-42.74-1.46-76.32-37.43-74.85-80.16,1.47-42.74,37.48-76.31,80.16-74.85,42.74,1.46,76.32,37.43,74.85,80.17-.71,20.68-9.43,39.85-24.56,54-14.48,13.54-33.17,20.9-52.88,20.9Zm-.09-144.77c-36.01,0-65.9,28.65-67.14,64.91-1.27,37.04,27.83,68.2,64.87,69.47,17.95.6,35.06-5.8,48.18-18.07,13.11-12.26,20.67-28.88,21.29-46.79,1.27-37.04-27.83-68.2-64.87-69.47-.78-.03-1.56-.04-2.33-.04Z"/>
    <g>
      <polygon class="cls-6" points="1054.49 188.23 1036.91 183.51 1032.2 165.94 1039.08 159.06 1046.34 174.09 1061.37 181.35 1054.49 188.23"/>
      <path class="cls-6" d="m1055.58,176.47c3.2-3.2,3.2-8.42,0-11.62-3.2-3.2-8.4-3.18-11.6.02l8.74-13.11,11.72,5.93,2.57,12.32-11.44,6.47Z"/>
      <path class="cls-1" d="m1037.69,160.45l12.88-12.88,17.57,4.72,4.72,17.57-12.88,12.88-17.57-4.72-4.72-17.57Zm23.38,10.53c3.2-3.2,3.2-8.42,0-11.62-3.2-3.2-8.4-3.18-11.6.02-3.2,3.2-3.2,8.37,0,11.57,3.2,3.2,8.4,3.23,11.6.02Z"/>
    </g>
    <g>
      <polygon class="cls-6" points="336.17 657.08 345.6 654.55 348.13 645.12 344.44 641.43 340.55 649.5 332.48 653.39 336.17 657.08"/>
      <path class="cls-6" d="m335.58,650.77c-1.72-1.72-1.72-4.52,0-6.24,1.72-1.72,4.51-1.71,6.22.01l-4.69-7.04-6.29,3.18-1.38,6.61,6.14,3.47Z"/>
      <path class="cls-1" d="m345.19,642.17l-6.91-6.91-9.43,2.53-2.53,9.43,6.91,6.91,9.43-2.53,2.53-9.43Zm-12.55,5.65c-1.72-1.72-1.72-4.52,0-6.24s4.51-1.71,6.22.01,1.72,4.49,0,6.21c-1.72,1.72-4.51,1.73-6.22.01Z"/>
    </g>
    <g>
      <path class="cls-1" d="m302.22,140.07l7.83,7.83c2.04,2.04,5.37,2.04,7.41,0h0c2.04-2.04,2.04-5.37,0-7.41l-7.83-7.83c-2.04-2.04-5.37-2.04-7.41,0h0c-2.04,2.04-2.04,5.37,0,7.41Z"/>
      <path class="cls-6" d="m296.71,120.58c6.03-2.17,12.57.67,14.6,6.33,2.03,5.66-1.21,12.01-7.24,14.17-6.03,2.17-12.57-.67-14.6-6.33-2.03-5.66,1.21-12.01,7.24-14.17Z"/>
      <rect class="cls-1" x="298.71" y="118.45" width="3.36" height="24.75" transform="translate(278.81 457.76) rotate(-109.76)"/>
    </g>
  </g>
  <ellipse id="_Path_" data-name="&amp;lt;Path&amp;gt;" class="cls-2" cx="727.59" cy="876.41" rx="474.98" ry="27.74"/>
  <g>
    <path class="cls-5" d="m327.58,225.77c-2.45-10.79-1.36-19.87,3.29-27.25,4.64-7.38,12.33-12.28,23.06-14.72,11-2.5,20.14-1.47,27.44,3.08,7.29,4.55,12.15,12.15,14.57,22.78,1.76,7.72,1.9,14.35.42,19.89-1.48,5.54-4.36,10.24-8.65,14.1-4.29,3.87-10.1,6.63-17.43,8.3-7.45,1.7-13.89,1.91-19.31.65-5.42-1.26-10.24-4.12-14.44-8.57-4.2-4.45-7.18-10.53-8.94-18.26Zm20.44-4.55c1.52,6.67,3.85,11.18,6.99,13.53,3.14,2.35,6.85,3.04,11.11,2.07,4.39-1,7.46-3.19,9.21-6.6,1.75-3.4,1.79-8.8.11-16.19-1.41-6.22-3.7-10.48-6.86-12.78-3.16-2.3-6.89-2.96-11.19-1.98-4.12.94-7.09,3.15-8.92,6.63-1.83,3.48-1.98,8.59-.45,15.32Z"/>
    <path class="cls-5" d="m405.68,217.69c-1.66-7.3-.56-13.88,3.29-19.73,3.85-5.85,9.97-9.73,18.36-11.64,9.59-2.18,17.46-1.05,23.62,3.4,4.95,3.58,8.18,8.65,9.67,15.2,1.67,7.37.6,13.95-3.21,19.77-3.81,5.81-10.03,9.7-18.66,11.66-7.69,1.75-14.36,1.21-19.99-1.62-6.93-3.51-11.29-9.19-13.07-17.04Zm18.38-4.22c.97,4.27,2.55,7.23,4.74,8.88,2.19,1.65,4.6,2.18,7.21,1.58,2.64-.6,4.59-2.1,5.83-4.5,1.24-2.4,1.36-5.82.34-10.27-.94-4.15-2.5-7.04-4.68-8.68-2.17-1.64-4.52-2.17-7.05-1.6-2.68.61-4.65,2.14-5.92,4.6-1.28,2.45-1.43,5.78-.48,9.99Z"/>
    <path class="cls-5" d="m479.15,245.17l-15.02-66.09,17.17-3.91,1.61,7.08c1.7-3.51,3.42-6.02,5.16-7.52,2.35-2.02,5.15-3.4,8.4-4.14,6.4-1.46,11.91-.13,16.52,3.97,4.62,4.1,7.74,9.76,9.38,16.97,1.81,7.96,1.28,14.48-1.58,19.54-2.86,5.06-7.21,8.25-13.04,9.58-2.82.64-5.51.75-8.06.31-2.55-.43-4.95-1.39-7.22-2.86l5.2,22.85-18.53,4.21Zm8.84-46.2c.86,3.79,2.3,6.42,4.3,7.89s4.23,1.93,6.67,1.38c2.13-.49,3.72-1.77,4.77-3.86,1.04-2.09,1.09-5.23.13-9.44-.88-3.88-2.28-6.55-4.2-8.03-1.92-1.48-3.96-1.97-6.12-1.48-2.34.53-4.09,1.9-5.23,4.08-1.15,2.19-1.25,5.34-.31,9.46Z"/>
    <path class="cls-5" d="m530.23,200.42l17.82-5.85c1.24,1.99,2.65,3.3,4.21,3.93,1.56.62,3.47.68,5.73.17,2.46-.56,4.25-1.52,5.37-2.88.87-1.02,1.18-2.11.91-3.28-.3-1.32-1.22-2.18-2.77-2.59-1.11-.28-3.88-.32-8.32-.1-6.62.34-11.28.32-13.98-.06-2.69-.39-5.15-1.51-7.36-3.37-2.21-1.86-3.64-4.24-4.3-7.12-.72-3.15-.42-6.08.9-8.78,1.31-2.7,3.45-4.98,6.41-6.84,2.96-1.86,7.14-3.4,12.55-4.63,5.71-1.3,10.02-1.82,12.94-1.57,2.92.25,5.49,1.09,7.73,2.51,2.24,1.42,4.31,3.56,6.22,6.41l-17.01,5.67c-.8-1.43-1.81-2.39-3.02-2.87-1.66-.64-3.51-.72-5.56-.26-2.07.47-3.5,1.18-4.28,2.13-.78.95-1.05,1.95-.81,3,.27,1.17,1.07,1.92,2.41,2.24,1.34.33,4.08.27,8.21-.16,6.26-.69,11.01-.77,14.27-.21,3.25.55,5.93,1.79,8.03,3.72,2.1,1.92,3.45,4.25,4.08,6.98.63,2.76.4,5.64-.67,8.63-1.07,2.99-3.23,5.67-6.47,8.03-3.24,2.36-7.95,4.25-14.14,5.66-8.75,1.99-15.26,2.15-19.54.5-4.28-1.65-7.47-4.66-9.56-9.01Z"/>
    <path class="cls-5" d="m590.03,139.83l20.11-.11.09,15.44-3.71,31.04-12.44.07-3.97-31-.09-15.44Zm.98,51.17l18.77-.11.09,16.59-18.77.11-.09-16.59Z"/>
  </g>
  <path class="cls-5" d="m334.01,318.33c-.15,0-.3-.03-.44-.08-11.03-4.27-17.62-8.44-21.05-13.45-2.49.5-5.28.17-7.92-1.09-2.57-1.22-5.04-3.35-6.81-6.42-1.65,1.28-3.7,1.62-5.94.92-2.49-.78-5.08-2.88-7.23-5.91-1.37.99-2.77,1.14-3.8,1.05-7.28-.59-17.15-15.09-17.86-30.54-.03-.67.49-1.25,1.17-1.28.66-.06,1.25.49,1.28,1.17.67,14.66,10.07,27.76,15.61,28.21.9.09,1.65-.19,2.28-.68-3.33-5.84-5.05-14.16-2.51-23.06,2.11-7.36,3.97-10.24,6.2-9.71,4.22,1.05,3.67,17.08,1.43,27.65-.51,2.4-1.24,4.12-2.07,5.35,1.93,2.85,4.22,4.78,6.23,5.41,1.79.56,3.12.09,4.1-.85-1.93-4.74-2.32-11.21.29-19.45,3.44-10.85,4.82-11.14,5.65-11.32.58-.12,1.17.07,1.58.54,2.26,2.56-.44,19.41-3.29,27.74-.37,1.08-.83,2.03-1.37,2.84,1.52,2.98,3.76,5.01,6.11,6.13,1.88.89,3.81,1.22,5.57,1.06-.22-.46-.42-.93-.6-1.41-1.94-5.26-.99-11.33,2.9-18.56,2.58-4.8,4.69-7.03,6.63-7.04h0c.58,0,1.65.21,2.42,1.62,2.14,3.94.59,16.95-3.63,23.4-1,1.52-2.37,2.67-3.96,3.43,3.28,4.32,9.51,8.12,19.47,11.98.63.24.94.95.7,1.58-.19.49-.65.78-1.14.78Zm-13.85-40.35s-1.39,0-4.48,5.75c-3.54,6.58-4.45,11.99-2.76,16.55.21.56.45,1.1.74,1.64,1.31-.56,2.43-1.47,3.24-2.71,3.43-5.24,5.07-16.02,3.8-20.23-.26-.86-.53-1.01-.53-1.01Zm-17.57-10.32c-.63,1.19-1.69,3.64-3.28,8.65-2.1,6.63-2.11,11.96-.94,16.04.08-.21.16-.41.23-.61,2.88-8.42,4.29-20.03,4-24.07Zm-16.13-7.72c-.41.38-1.6,1.92-3.31,7.89-2.25,7.87-.86,15.05,1.78,20.2.51-1.06.86-2.29,1.1-3.44,2.54-12.03,1.8-22.91.43-24.66Z"/>
  <path class="cls-5" d="m547.04,475.22c-3.74,0-7.67-.85-11.17-2.91-.58-.34-.78-1.09-.44-1.68.34-.59,1.09-.78,1.68-.44,8.74,5.13,20.03,1.55,22.36-2.19.27-.44.52-1,.36-1.64-3.46.37-7.71-.55-12.57-3.59-6.23-3.9-6.72-5.06-6.68-5.98.02-.55.34-1.03.84-1.28,2.44-1.24,13.49,3.86,18.09,6.88.6.4,1.11.83,1.52,1.28,2.04-.5,3.61-1.55,4.66-2.81.72-.86,1.2-1.81,1.44-2.75-.16.02-.33.04-.49.06-3.92.39-7.85-1.29-12.03-5.16-2.88-2.66-3.99-4.49-3.62-5.94.12-.46.51-1.29,1.76-1.6,3.39-.84,11.75,2.72,15.17,6.47.77.84,1.29,1.83,1.57,2.9,3.2-1.5,6.58-4.87,10.58-10.46.39-.55,1.16-.68,1.71-.28.55.39.68,1.16.28,1.71-4.63,6.47-8.49,10.13-12.36,11.63-.15,1.72-.86,3.48-2.13,5-1.24,1.49-3.05,2.77-5.34,3.46.24,1.1.02,2.27-.69,3.41-2.07,3.33-7.99,5.92-14.5,5.92Zm-2.18-16.99c.82.61,2,1.41,3.69,2.47,3.32,2.08,6.29,3.04,8.82,3.24-4.06-2.52-9.37-4.74-12.51-5.71Zm8.55-10.41c.14.38.68,1.39,2.86,3.4,3.64,3.37,6.95,4.86,10.12,4.52.26-.03.52-.06.78-.12-.17-.74-.53-1.43-1.06-2.02-3.45-3.78-11.02-6.17-12.7-5.78Z"/>
  <path class="cls-4" d="m779.86,281.24l.32-9.28-5.7-1.86c-.23-3.17-.76-6.3-1.52-9.32l4.83-3.56-3.28-8.72-5.97.48c-1.42-2.82-3.1-5.5-4.97-8.01l3.09-5.16-6.36-6.79-5.34,2.73c-2.41-2.04-4.94-3.9-7.65-5.53l.87-5.93-8.47-3.85-3.88,4.55c-2.96-.96-6.02-1.68-9.19-2.15l-1.44-5.81-9.3-.32-1.84,5.7c-3.2.26-6.3.76-9.32,1.52l-3.59-4.8-8.72,3.26.48,5.97c-2.82,1.45-5.5,3.12-8.01,5l-5.14-3.09-6.81,6.34,2.73,5.36c-2.04,2.38-3.9,4.94-5.51,7.66l-5.93-.89-3.87,8.47,4.57,3.88c-.96,2.96-1.7,6.05-2.15,9.19l-5.84,1.47-.32,9.28,5.72,1.86c.23,3.19.77,6.3,1.52,9.32l-4.83,3.56,3.28,8.72,5.97-.48c1.42,2.82,3.1,5.5,4.97,8.01l-3.09,5.16,6.36,6.79,5.34-2.73c2.38,2.04,4.94,3.9,7.65,5.53l-.89,5.93,8.47,3.84,3.91-4.55c2.96.96,6.02,1.68,9.19,2.15l1.44,5.81,9.3.32,1.84-5.7c3.19-.26,6.3-.76,9.32-1.52l3.56,4.8,8.72-3.26-.46-5.97c2.82-1.45,5.48-3.12,8.02-5l5.14,3.09,6.81-6.34-2.73-5.36c2.04-2.38,3.9-4.94,5.51-7.66l5.93.89,3.87-8.47-4.57-3.88c.96-2.96,1.7-6.02,2.15-9.19l5.81-1.47Zm-62.7,30.06c-20.32-.7-36.23-17.74-35.54-38.06.7-20.35,17.74-36.26,38.06-35.56,20.32.7,36.23,17.74,35.54,38.08-.7,20.32-17.74,36.23-38.06,35.54Z"/>
  <path class="cls-3" d="m818.53,451.69l.67-6.26-3.76-1.53c-.01-2.15-.2-4.28-.56-6.35l3.43-2.18-1.74-6.05-4.07.03c-.82-1.98-1.79-3.87-2.93-5.66l2.32-3.33-3.93-4.89-3.75,1.56c-1.5-1.48-3.11-2.86-4.88-4.09l.91-3.98-5.52-3.03-2.88,2.91c-1.98-.84-4.02-1.46-6.07-1.93l-.69-4.01-6.25-.7-1.53,3.76c-2.15.01-4.25.23-6.36.59l-2.17-3.46-6.05,1.77.03,4.07c-1.95.82-3.85,1.79-5.66,2.93l-3.33-2.35-4.89,3.93,1.56,3.75c-1.46,1.5-2.86,3.11-4.1,4.88l-3.96-.88-3.03,5.52,2.88,2.85c-.81,2.01-1.46,4.02-1.93,6.1l-4.01.66-.67,6.26,3.76,1.56c-.02,2.12.2,4.25.56,6.33l-3.46,2.17,1.77,6.05h4.07c.82,1.94,1.79,3.84,2.93,5.63l-2.35,3.33,3.93,4.92,3.78-1.59c1.5,1.48,3.11,2.86,4.88,4.1l-.91,3.98,5.52,3.03,2.88-2.88c1.98.81,4.02,1.43,6.07,1.9l.69,4.01,6.25.7,1.53-3.76c2.12-.01,4.25-.23,6.36-.58l2.17,3.46,6.02-1.77v-4.07c1.95-.82,3.84-1.79,5.66-2.93l3.3,2.35,4.92-3.93-1.59-3.75c1.48-1.5,2.86-3.11,4.12-4.88l3.96.88,3.03-5.52-2.88-2.85c.81-2.01,1.43-4.02,1.9-6.07l4.04-.69Zm-31.54-2.43c-2.9,5.29-9.57,7.24-14.86,4.34-5.29-2.91-7.21-9.56-4.31-14.85,2.9-5.29,9.54-7.21,14.83-4.31,5.29,2.91,7.24,9.54,4.34,14.83Z"/>
  <path class="cls-5" d="m853.24,345.82l-7.3-5.04s0-.01,0-.02c-.72-2.65-1.72-5.21-2.94-7.61l1.87-7.34-10.59-11.34-7.46,1.37c-2.31-1.38-4.79-2.55-7.38-3.45,0,0-.01,0-.02,0l-4.53-7.63-15.51-.53-5.04,7.3s-.02,0-.03,0c-2.65.72-5.2,1.72-7.6,2.93l-7.34-1.87-11.34,10.59,1.36,7.44s0,0,0,0c-1.41,2.34-2.55,4.81-3.45,7.41l-7.63,4.53-.53,15.51,7.31,5.05c.72,2.67,1.69,5.22,2.93,7.64t0,0l-1.87,7.32,10.59,11.34,7.41-1.36c2.34,1.38,4.82,2.55,7.45,3.46,0,0,0,0,0,0l4.53,7.62,15.51.53,5.04-7.3c2.68-.72,5.24-1.72,7.66-2.94,0,0,0,0,0,0l7.31,1.86,11.34-10.59-1.36-7.44c1.41-2.34,2.55-4.82,3.45-7.41,0,0,0,0,0,0l7.63-4.53.53-15.51Zm-48.34,23.58c-9.64-.33-17.17-8.43-16.84-18.04.33-9.64,8.4-17.17,18.04-16.84,9.64.33,17.17,8.4,16.84,18.04-.33,9.61-8.4,17.17-18.04,16.84Z"/>
  <path class="cls-4" d="m906.53,222.04l1.28-3.08s0,0,0,0c.92-.47,1.78-1.04,2.56-1.68l2.84.11,3.33-4.78-1.09-2.63c.32-.96.56-1.96.68-2.98,0,0,0,0,0,0l2.45-2.27-1.03-5.74-3.08-1.28s0,0,0,0c-.47-.92-1.04-1.77-1.68-2.56l.11-2.84-4.78-3.33-2.63,1.09s0,0,0,0c-.97-.33-1.97-.56-2.99-.68l-2.27-2.45-5.74,1.03-1.28,3.08c-.92.48-1.78,1.03-2.57,1.68t0,0l-2.83-.11-3.33,4.78,1.08,2.61c-.32.97-.56,1.97-.68,3.01,0,0,0,0,0,0l-2.44,2.26,1.03,5.74,3.08,1.28c.48.93,1.04,1.79,1.68,2.58,0,0,0,0,0,0l-.11,2.83,4.78,3.33,2.63-1.09c.97.33,1.97.56,2.99.68,0,0,0,0,0,0l2.27,2.45,5.74-1.03Zm-12.46-15.89c-.64-3.57,1.74-6.97,5.3-7.61,3.57-.64,6.97,1.73,7.61,5.3.64,3.57-1.73,6.97-5.3,7.61-3.56.64-6.97-1.73-7.61-5.3Z"/>
  <path class="cls-4" d="m839.32,205.79l-1.87-1.58c3.25-3.85,7.86-8.73,14.72-12.32l1.14,2.17c-7.31,3.82-11.98,9.36-13.98,11.73Z"/>
  <path class="cls-4" d="m858.88,191.86l-.97-2.25c9.27-3.97,18.95-5.52,28.76-4.61l-.23,2.44c-9.41-.9-18.68.61-27.56,4.42Z"/>
  <path class="cls-4" d="m854.25,208.8l-2.02-1.38c5.03-7.39,14.97-13.83,24.18-15.65l.48,2.4c-8.63,1.71-17.93,7.73-22.63,14.63Z"/>
  <path class="cls-5" d="m691.69,444.56c-.33,0-.65-.13-.88-.37l-5.14-5.29c-2.62-.25-5.2-.73-7.71-1.44l-8,3.53c-.38.17-.82.13-1.17-.1l-13.41-8.89c-.35-.23-.55-.62-.55-1.04l.13-8.73c-1.63-2.03-3.08-4.23-4.33-6.56l-6.87-2.67c-.39-.15-.67-.49-.76-.9l-3.2-15.77c-.08-.41.05-.83.35-1.12l5.29-5.13c.25-2.6.73-5.19,1.43-7.72l-3.53-8c-.17-.38-.13-.82.1-1.17l8.89-13.41c.23-.35.56-.56,1.04-.55l8.72.13c2.05-1.64,4.25-3.09,6.56-4.32l2.67-6.88c.15-.39.49-.67.9-.76l15.77-3.2c.41-.08.83.05,1.12.35l5.13,5.29c2.61.24,5.2.73,7.72,1.43l7.99-3.52c.38-.17.82-.13,1.17.1l13.41,8.89c.35.23.55.62.55,1.04l-.13,8.73c1.63,2.03,3.08,4.23,4.32,6.55l6.88,2.67c.39.15.67.49.76.9l3.2,15.77c.08.41-.05.83-.35,1.12l-5.3,5.14c-.24,2.57-.72,5.16-1.43,7.7l3.53,8.01c.17.38.13.83-.1,1.17l-8.89,13.41c-.23.35-.6.52-1.04.55l-8.73-.13c-2.03,1.62-4.23,3.07-6.55,4.31l-2.67,6.89c-.15.39-.49.67-.9.76l-15.77,3.2c-.08.02-.16.02-.24.02Zm-13.81-9.63c.12,0,.23.02.35.05,2.62.77,5.35,1.28,8.11,1.51.3.02.57.16.78.37l4.99,5.14,14.46-2.93,2.6-6.69c.11-.28.31-.51.58-.64,2.46-1.28,4.78-2.8,6.9-4.53.22-.18.48-.31.79-.28l8.5.13,8.15-12.3-3.44-7.8c-.12-.26-.13-.56-.05-.84.78-2.67,1.28-5.4,1.51-8.11.02-.3.15-.57.37-.78l5.14-4.99-2.93-14.46-6.68-2.59c-.28-.11-.52-.32-.65-.59-1.27-2.45-2.8-4.76-4.53-6.87-.18-.22-.28-.51-.28-.8l.13-8.51-12.3-8.15-7.78,3.43c-.26.11-.56.13-.84.06-2.66-.77-5.39-1.28-8.14-1.51-.3-.02-.57-.16-.78-.37l-4.98-5.14-14.46,2.93-2.59,6.68c-.11.28-.31.51-.58.64-2.44,1.27-4.76,2.8-6.9,4.54-.22.18-.52.31-.8.28l-8.5-.13-8.15,12.3,3.44,7.79c.15.33.14.72-.02,1.04-.69,2.45-1.2,5.18-1.43,7.92-.02.29-.15.57-.37.78l-5.14,4.99,2.93,14.46,6.68,2.59c.3.11.54.34.67.63,1.27,2.43,2.79,4.74,4.52,6.84.18.22.29.51.28.8l-.13,8.5,12.3,8.15,7.8-3.44c.16-.07.33-.11.49-.11Zm12.05-7.93c-6.19,0-12.45-1.75-17.99-5.42-7.27-4.82-12.22-12.17-13.96-20.72-1.74-8.55-.04-17.25,4.78-24.52h0c9.96-15,30.26-19.12,45.25-9.19,15,9.95,19.11,30.25,9.17,45.26-6.27,9.46-16.67,14.59-27.25,14.59Zm-25.13-49.31c-4.45,6.72-6.02,14.78-4.42,22.68,1.61,7.9,6.19,14.71,12.91,19.16,13.88,9.2,32.65,5.39,41.84-8.48,9.2-13.88,5.39-32.66-8.48-41.86-13.87-9.19-32.65-5.38-41.86,8.5h0Z"/>
  <g>
    <path class="cls-5" d="m317.28,876.85c-5.83,0-13.71-3.53-17.97-9.67-.39-.55-.25-1.32.31-1.7.56-.39,1.32-.25,1.7.31,4.57,6.6,14.65,10.12,19.12,8.04.47-.22.85-.5,1.14-.83-4-1.85-7.65-5.46-8.64-10.98-.56-3.11-1-7.3,1.57-7.88,3.51-.79,8.11,7.71,9.88,14.15.33,1.19.43,2.29.32,3.29,1.55.42,3.07.53,4.38.34,1.06-.15,2.57-.59,3.37-1.83-2.98-2.01-4.98-5.56-5.65-10.26-.95-6.7-.24-7.87.5-8.44.48-.37,1.1-.44,1.69-.19,2.62,1.11,5.79,10.62,6.4,16,.07.59.07,1.16,0,1.7,1,.4,2.11.62,3.3.64,2.12.12,4.22-.55,5.9-1.54-.35-.22-.68-.46-.98-.72-2.54-2.17-3.57-5.64-3.14-10.61.33-3.84,1.21-5.94,2.75-6.6.54-.24,1.64-.46,2.96.59,2.64,2.11,5.12,8.81,4.23,13.61-.18.99-.61,1.95-1.23,2.82,4.5.78,10.82-.49,16.28-1.83.65-.16,1.32.24,1.48.89s-.24,1.32-.89,1.48c-6.64,1.64-13.78,2.98-18.83,1.51-2.24,1.78-5.4,2.87-8.57,2.85-1.44-.03-2.79-.29-4.02-.75-.97,1.64-2.76,2.76-5.2,3.11-1.63.24-3.54.09-5.48-.47-.55.92-1.38,1.66-2.48,2.17-1.17.55-2.61.81-4.21.81Zm-2.12-20.28c-.14.38-.4,1.61.21,5.01.8,4.51,3.72,7.5,6.96,9.08-.02-.52-.11-1.1-.28-1.73-1.92-7-5.58-11.83-6.88-12.36Zm13.65-2.14c-.01.92.07,2.47.43,5.04.5,3.5,1.79,6.18,3.72,7.89-.57-4.92-2.76-10.61-4.15-12.94Zm15.41-2.13h0s-.92.47-1.28,4.56c-.36,4.12.39,6.92,2.29,8.54.43.37.92.68,1.47.93.69-.77,1.17-1.62,1.33-2.52.66-3.55-1.03-8.75-2.93-10.85-.49-.55-.81-.65-.88-.65Z"/>
    <g>
      <polygon class="cls-5" points="675.84 895.37 682.48 883.86 675.84 872.35 668.73 872.35 672.75 883.86 668.73 895.37 675.84 895.37"/>
      <path class="cls-5" d="m669.2,889.86c-3.31,0-6-2.69-6-6s2.69-5.98,6-5.98l-11.29-2.26-2.99,9.12,5.04,7.69,9.25-2.57Z"/>
      <path class="cls-4" d="m670.16,872.35h-13.3l-6.64,11.51,6.64,11.51h13.3l6.64-11.51-6.64-11.51Zm-6.64,17.52c-3.31,0-6-2.69-6-6s2.69-5.98,6-5.98,5.98,2.67,5.98,5.98-2.67,6-5.98,6Z"/>
    </g>
    <g>
      <polygon class="cls-4" points="1138.88 871.58 1133.95 863.03 1138.88 854.48 1144.16 854.48 1141.18 863.03 1144.16 871.58 1138.88 871.58"/>
      <path class="cls-4" d="m1143.81,867.48c2.46,0,4.46-2,4.46-4.46s-2-4.44-4.46-4.44l8.38-1.68,2.22,6.77-3.74,5.71-6.87-1.91Z"/>
      <path class="cls-5" d="m1143.1,854.48h9.88l4.93,8.55-4.93,8.55h-9.88l-4.93-8.55,4.93-8.55Zm4.93,13.01c2.46,0,4.46-2,4.46-4.46s-2-4.44-4.46-4.44-4.44,1.98-4.44,4.44,1.98,4.46,4.44,4.46Z"/>
    </g>
    <g>
      <path class="cls-5" d="m955.29,882.93h11.07c2.88,0,5.24-2.36,5.24-5.24h0c0-2.88-2.36-5.24-5.24-5.24h-11.07c-2.88,0-5.24,2.36-5.24,5.24h0c0,2.88,2.36,5.24,5.24,5.24Z"/>
      <path class="cls-4" d="m937.61,873.04c2.73-5.8,9.36-8.42,14.8-5.85,5.44,2.57,7.64,9.34,4.9,15.14s-9.36,8.42-14.8,5.85c-5.44-2.57-7.64-9.34-4.9-15.14Z"/>
      <rect class="cls-5" x="945.79" y="865.31" width="3.36" height="24.75" transform="translate(1430.16 2075.61) rotate(-154.76)"/>
    </g>
  </g>
  <path class="cls-5" d="m539.83,506.2c-2.92-19.48-10.05-36.49-21.38-51.03-11.33-14.53-27.54-25.04-48.59-31.53-21.06-6.49-47.93-7.28-80.62-2.39l-17.05,2.55-2.35-32.91,127.69-19.12-12.57-83.92-219.24,32.84,13.51,202.85,95.71-14.33c13.51-2.02,23.95-2.62,31.31-1.8,7.35.83,12.72,2.84,16.09,6.03,3.37,3.19,5.41,7.14,6.12,11.86,1.27,8.49-1.85,15.55-9.36,21.17-7.52,5.63-17.56,9.38-30.13,11.26-13.83,2.07-28.74,2.3-44.73.67-15.99-1.62-31.67-5.46-47.04-11.51l-25.43,87.69c19.06,7.11,40.59,11.44,64.61,12.98,24.01,1.54,47.33.62,69.96-2.77,35.2-5.27,63.05-15.15,83.54-29.62,20.49-14.47,34.66-31.38,42.54-50.72,7.87-19.33,10.35-38.74,7.43-58.24Z"/>
  <path class="cls-5" d="m955.41,600.22c-20.45-16.88-35.11-39.16-43.98-66.84-8.87-27.68-10.57-59.75-5.11-96.21,5.46-36.46,16.49-66.62,33.08-90.49,16.59-23.86,37.14-40.87,61.63-51.03,24.5-10.14,51.36-13.03,80.59-8.66,29.23,4.38,54.08,15.01,74.52,31.89,20.45,16.88,35.11,39.17,43.98,66.84,8.87,27.68,10.57,59.75,5.11,96.21-5.46,36.47-16.49,66.63-33.08,90.49-16.59,23.87-37.13,40.88-61.63,51.03-24.49,10.15-51.36,13.04-80.59,8.66-29.23-4.38-54.07-15.01-74.52-31.89Zm108.33-61.87c6.41-4.18,12.18-12.15,17.32-23.92,5.14-11.76,9.28-28.17,12.44-49.24,3.2-21.37,4.06-38.35,2.57-50.95-1.49-12.59-4.69-21.83-9.59-27.71-4.91-5.87-10.97-9.36-18.2-10.44-7.23-1.08-14.05.47-20.46,4.65-6.41,4.18-12.17,12.08-17.29,23.68-5.11,11.61-9.27,28.1-12.47,49.47-3.16,21.06-4,37.97-2.54,50.72,1.46,12.75,4.65,22.07,9.55,27.94,4.9,5.88,10.97,9.36,18.2,10.44,7.23,1.08,14.05-.46,20.46-4.65Z"/>
  <path class="cls-5" d="m863.38,280.51c-1.42-13.07-4.04-24.68-7.83-34.83-3.8-10.15-9.5-20.11-17.12-29.86-7.62-9.75-17.99-18.22-31.12-25.4-13.13-7.17-30.46-12.17-51.99-14.97-44.81-5.84-79.74,2.12-104.81,23.86-25.07,21.75-41.55,63.4-49.48,124.97-3.22,25.04-4.02,48.19-2.39,69.44,1.62,21.25,5.52,38.35,11.7,51.28,8.45,18.18,20.42,32.69,35.89,43.54,15.46,10.85,36.65,18.03,63.57,21.54,48.01,6.25,83.58-2.96,106.73-27.65,23.15-24.69,38.5-66.42,46.07-125.19,3.37-26.22,3.63-51.79.78-76.72Zm-27.51,73.28c-6.79,52.77-19.91,89.84-39,110.19-14.16,15.1-35.4,21.95-64.95,20.94,0,0,0,0,0,0-5.89-.2-12.16-.73-18.64-1.58-22.43-2.92-39.78-8.6-51.58-16.87-11.64-8.16-20.45-18.9-26.93-32.84l-.12-.25c-4.71-9.86-7.79-23.89-9.15-41.72-1.48-19.32-.73-40.84,2.25-63.94,8.74-67.91,26.8-96.24,40.41-108.05,15.87-13.77,37.29-19.99,65.48-19.03,5.78.2,11.89.71,18.18,1.53,18.09,2.36,32.41,6.36,42.55,11.9,9.82,5.37,17.5,11.54,22.81,18.34,5.89,7.54,10.3,15.18,13.12,22.71,3,8.01,5.11,17.54,6.29,28.31,2.61,22.81,2.36,46.43-.72,70.36Z"/>
</svg>