<?xml version="1.0" encoding="UTF-8"?>
<svg id="Layer_1" data-name="Layer 1" xmlns="http://www.w3.org/2000/svg" viewBox="0 0 1440 1024">
  <defs>
    <style>
      .cls-1 {
        fill: #fff;
      }

      .cls-2 {
        fill: #2b3a47;
      }

      .cls-3 {
        fill: #f5f5f5;
      }

      .cls-4 {
        fill: #232f3e;
      }

      .cls-5 {
        fill: #ffbd5c;
      }

      .cls-6 {
        fill: #e1e1e1;
      }

      .cls-7 {
        opacity: .4;
      }

      .cls-8 {
        fill: #ececec;
      }

      .cls-9 {
        fill: #1a2e35;
      }
    </style>
  </defs>
  <path class="cls-8" d="m510.37,868.09c-6.14,3.17-11.08,8.6-13.65,15.02-6.75-7.1-10.81-16.7-11.19-26.49-7.73,3.1-12.91,11.61-12.13,19.9-11.99-11.19-23.99-22.38-35.98-33.56-1.85,13.21-3.7,26.42-5.55,39.64-6.88-19.57-16.87-38.04-29.49-54.51-.26,14.96-.51,29.93-.77,44.89-17.24-34.71-43.28-65-75.02-87.24,9.41,20.82,18.88,41.85,23.58,64.21-8.8-17.72-23.69-32.35-41.57-40.84,19.47,26.32,33.22,55.96,40.43,87.89l172.55.11s-7.33-19,5.47-25.39l-16.69-3.64Z"/>
  <circle class="cls-8" cx="485.25" cy="238.57" r="112.18" transform="translate(-26.57 413) rotate(-45)"/>
  <path class="cls-8" d="m1146.89,731.38c-36.43,20.2-62.33,58.31-67.72,99.61.51-34.72,6.19-69.37,16.79-102.44-25,30.29-40.08,68.62-42.43,107.82-1.58-21.83-3.16-43.65-4.74-65.48-15.52,30.05-16.88,65.16-17.91,98.97-6.63-13.97-15.92-26.68-27.23-37.25,4.37,20.77,8.82,43.94,13.18,64.7l89.49-.21-1.66-17.89c-5.39-52.24,10.06-106.34,42.22-147.85Z"/>
  <path class="cls-3" d="m1046.45,340.38c1.19-8.67-11.04-15.8-20.23-16.54-4.38-.35-8.94.32-13.09-1.13-9-3.14-12.59-14.76-21.37-18.46-6.56-2.77-14.12-.3-20.48,2.9-6.36,3.2-12.65,7.23-19.76,7.69-6.18.4-12.9-1.9-18.31,1.12-4.03,2.25-6.14,6.9-9.86,9.64-3.63,2.68-8.38,3.25-12.89,3.49-4.51.25-9.18.29-13.29,2.17-4.11,1.88-7.5,6.22-6.65,10.66l155.91-1.54Z"/>
  <path class="cls-8" d="m831.33,164.23c1.04-7.54-9.6-13.74-17.6-14.39-3.81-.31-7.77.28-11.39-.98-7.83-2.73-10.95-12.84-18.59-16.06-5.71-2.41-12.28-.26-17.82,2.52-5.53,2.79-11,6.29-17.19,6.69-5.38.34-11.22-1.65-15.93.98-3.51,1.96-5.34,6-8.58,8.38-3.16,2.33-7.29,2.83-11.21,3.04-3.92.21-7.98.25-11.56,1.89-3.57,1.64-6.53,5.41-5.79,9.27l135.63-1.34Z"/>
  <path class="cls-8" d="m537.42,466.29c1.45-10.53-13.41-19.18-24.57-20.08-5.32-.43-10.85.38-15.89-1.37-10.93-3.81-15.29-17.92-25.95-22.42-7.97-3.36-17.15-.37-24.87,3.52-7.73,3.89-15.36,8.78-23.99,9.34-7.51.48-15.66-2.3-22.23,1.36-4.9,2.73-7.46,8.37-11.97,11.7-4.41,3.26-10.17,3.95-15.65,4.24-5.48.3-11.15.35-16.13,2.64-4.99,2.28-9.11,7.56-8.08,12.94l189.34-1.87Z"/>
  <g>
    <g>
      <circle class="cls-8" cx="983.39" cy="432.5" r="53.48" transform="translate(-87.77 350.44) rotate(-19.36)"/>
      <path class="cls-1" d="m965.41,434.47c-4.22,2.32-9.52.79-11.85-3.43-2.32-4.22-.79-9.52,3.43-11.85,4.22-2.33,9.52-.79,11.85,3.43,2.32,4.22.79,9.52-3.43,11.85Z"/>
      <path class="cls-1" d="m981.49,411.48c-2.45,1.35-5.54.46-6.89-2-1.35-2.45-.46-5.54,2-6.89,2.45-1.35,5.54-.46,6.89,2,1.35,2.45.46,5.54-2,6.89Z"/>
    </g>
    <path class="cls-6" d="m946.96,393.33c-.7.66-61.57-18.34-64.08-3.41-2.51,14.93,42.7,46.98,93.31,67.65,50.61,20.67,105.9,34.57,110.44,19.93,4.54-14.64-49.75-45.42-49.75-45.42l-.48,7.52s33.57,18.2,31.46,30.96c-2.1,12.77-43.47,2.47-89.35-18.94-45.88-21.41-83.31-45.91-79.11-55.23,4.2-9.32,42.07,2.86,42.07,2.86l5.49-5.93Z"/>
    <path class="cls-1" d="m1002.16,388.51c-.24.63-4.69-1.06-12.08-1.68-7.31-.66-17.81.23-27.71,5.41-9.89,5.21-16.58,13.36-20.18,19.75-3.69,6.43-4.82,11.05-5.47,10.89-.46-.06-.36-5.02,2.87-12.23,1.6-3.58,4.06-7.64,7.53-11.56,3.45-3.93,7.97-7.66,13.34-10.52,5.4-2.8,11.03-4.4,16.22-5.01,5.2-.62,9.93-.35,13.79.36,7.77,1.43,11.91,4.17,11.7,4.58Z"/>
  </g>
  <g>
    <circle class="cls-6" cx="1063.37" cy="231.85" r="34.95" transform="translate(-16.8 365.01) rotate(-19.33)"/>
    <path class="cls-3" d="m1074.76,218.46c.07-3.15,2.69-5.64,5.83-5.56,3.15.07,5.64,2.69,5.56,5.83-.07,3.15-2.69,5.64-5.83,5.56-3.15-.07-5.64-2.69-5.56-5.83Z"/>
    <path class="cls-3" d="m1086.16,231.77c.04-1.83,1.56-3.28,3.39-3.24,1.83.04,3.28,1.56,3.24,3.39-.04,1.83-1.56,3.28-3.39,3.24-1.83-.04-3.28-1.56-3.24-3.39Z"/>
    <path class="cls-3" d="m1081.71,241.95c.68.02,1.21.58,1.19,1.25-.02.68-.58,1.21-1.25,1.19s-1.21-.58-1.19-1.25c.02-.68.58-1.21,1.25-1.19Z"/>
  </g>
  <path class="cls-9" d="m1125.36,897.12c0,.27-183.12.49-408.96.49s-409-.22-409-.49,183.08-.49,409-.49,408.96.22,408.96.49Z"/>
  <g>
    <path class="cls-9" d="m434.2,897.12s-.12-.32-.25-.93c-.14-.73-.31-1.62-.52-2.7-.41-2.35-1.09-5.74-2.02-9.9-1.85-8.32-4.94-19.73-9.96-31.73-2.54-5.98-5.33-11.52-8.11-16.41-1.47-2.4-2.79-4.73-4.22-6.79-.7-1.04-1.37-2.04-2.02-3.01-.69-.93-1.35-1.83-1.98-2.69-1.23-1.74-2.48-3.21-3.54-4.53-1.04-1.34-2-2.43-2.81-3.31-.72-.83-1.32-1.51-1.81-2.07-.41-.48-.61-.75-.58-.77.02-.02.27.19.73.63.52.53,1.17,1.17,1.95,1.95.85.84,1.86,1.91,2.95,3.22,1.1,1.29,2.4,2.73,3.67,4.46.65.85,1.34,1.75,2.04,2.67.69.95,1.36,1.96,2.08,3,1.47,2.05,2.83,4.38,4.32,6.79,2.84,4.91,5.68,10.47,8.23,16.49,5.05,12.08,8.05,23.58,9.73,31.96.84,4.19,1.41,7.61,1.71,9.99.14,1.09.25,2,.34,2.73.07.63.09.96.05.96Z"/>
    <path class="cls-9" d="m381.82,840.49c.02-.06,1.01.27,2.79.94.9.32,1.98.74,3.18,1.35,1.21.59,2.63,1.19,4.08,2.09,1.48.83,3.1,1.77,4.72,2.94,1.69,1.08,3.34,2.44,5.11,3.84,3.42,2.92,6.94,6.44,10.15,10.53,3.16,4.13,5.69,8.42,7.67,12.46.91,2.06,1.82,4,2.44,5.9.73,1.87,1.23,3.66,1.67,5.31.5,1.63.73,3.15,1,4.48.29,1.32.43,2.47.51,3.42.2,1.89.28,2.93.21,2.94-.22.03-.53-4.17-2.39-10.65-.48-1.62-1.01-3.38-1.76-5.21-.64-1.87-1.58-3.77-2.5-5.79-1.99-3.97-4.51-8.18-7.63-12.25-3.17-4.04-6.61-7.52-9.96-10.44-1.73-1.4-3.34-2.77-4.99-3.86-1.59-1.18-3.16-2.14-4.61-3.01-5.8-3.42-9.8-4.77-9.71-4.98Z"/>
    <path class="cls-9" d="m429.78,784.11s.08.4.13,1.16c.04.87.1,1.97.17,3.33.11,2.89.32,7.08.64,12.24.63,10.33,1.9,24.58,4.23,40.2,2.35,15.62,5.33,29.62,7.75,39.68,1.21,5.03,2.24,9.09,2.98,11.89.33,1.32.6,2.39.82,3.23.18.74.25,1.14.22,1.15-.03,0-.17-.37-.41-1.09-.26-.83-.59-1.88-.99-3.19-.85-2.77-1.98-6.81-3.28-11.83-2.6-10.03-5.69-24.04-8.05-39.7-2.34-15.65-3.5-29.95-3.95-40.31-.23-5.18-.34-9.37-.33-12.27,0-1.36.01-2.47.01-3.34.01-.76.04-1.16.07-1.16Z"/>
    <path class="cls-9" d="m364.04,868.71c.03-.06.53.17,1.41.64.88.46,2.12,1.21,3.6,2.19,2.97,1.96,6.88,5.02,10.6,9.01,3.71,4,6.47,8.13,8.21,11.24.87,1.55,1.52,2.84,1.92,3.75.41.91.6,1.43.54,1.46-.14.07-1.18-1.87-3.05-4.85-1.88-2.99-4.68-6.98-8.34-10.92-3.66-3.93-7.44-7.02-10.28-9.11-2.84-2.09-4.7-3.26-4.62-3.4Z"/>
    <path class="cls-9" d="m393.94,866.05c.14,0,.34,1.73.62,4.54.28,2.81.66,6.68,1.17,10.95.52,4.27,1.07,8.12,1.47,10.92.4,2.79.62,4.53.48,4.56-.13.02-.59-1.67-1.17-4.44-.57-2.77-1.24-6.63-1.76-10.92-.52-4.29-.79-8.19-.89-11.02-.1-2.83-.06-4.58.07-4.59Z"/>
    <path class="cls-9" d="m676.19,798.26s.03.35,0,1.02c-.05.77-.1,1.73-.17,2.89-.18,2.51-.4,6.14-.6,10.64-.41,8.98-.55,21.41.29,35.11.87,13.69,2.56,26.01,4.09,34.87.76,4.43,1.42,8.01,1.92,10.48.21,1.15.39,2.09.53,2.85.11.65.15,1,.12,1.01-.03,0-.14-.32-.31-.97-.19-.75-.43-1.68-.71-2.81-.61-2.44-1.38-6.01-2.23-10.44-1.7-8.85-3.51-21.2-4.38-34.94-.85-13.74-.6-26.21,0-35.2.29-4.5.61-8.13.91-10.63.14-1.16.26-2.11.36-2.88.09-.66.16-1,.19-1Z"/>
    <path class="cls-9" d="m691.41,851.9c.14.04-.39,2.51-1.15,6.51-.76,4-1.69,9.55-2.38,15.73-.68,6.18-.97,11.8-1.1,15.87-.13,4.07-.14,6.6-.29,6.6-.07,0-.15-.63-.23-1.77-.09-1.14-.15-2.8-.18-4.84-.05-4.09.14-9.75.82-15.97.69-6.21,1.73-11.78,2.67-15.76.47-1.99.89-3.59,1.22-4.69.33-1.1.54-1.69.61-1.68Z"/>
    <path class="cls-9" d="m876.95,808.87s.07.31.11.9c.04.71.08,1.56.13,2.59.1,2.41.23,5.62.39,9.53.35,8.04.99,19.15,2.09,31.38,1.11,12.23,2.48,23.27,3.59,31.25.54,3.87.99,7.06,1.33,9.44.13,1.02.25,1.87.34,2.57.07.59.09.9.05.91-.03,0-.12-.3-.25-.88-.14-.69-.31-1.53-.52-2.54-.44-2.21-1-5.42-1.64-9.4-1.28-7.96-2.76-19-3.88-31.26-1.11-12.25-1.64-23.38-1.81-31.44-.09-4.03-.11-7.29-.08-9.55.02-1.03.04-1.89.05-2.6.02-.59.05-.91.09-.91Z"/>
    <path class="cls-9" d="m898.03,852.39c.15.05-.65,2.49-1.73,6.47-1.07,3.99-2.34,9.55-3.12,15.79-.77,6.25-.9,11.95-.83,16.08.07,4.13.25,6.68.09,6.7-.07,0-.19-.63-.34-1.78-.17-1.15-.32-2.82-.44-4.9-.25-4.15-.23-9.92.55-16.23.79-6.31,2.17-11.91,3.43-15.87.63-1.98,1.19-3.57,1.63-4.64.43-1.08.7-1.66.77-1.64Z"/>
    <path class="cls-9" d="m1148.6,792.65s-.32.3-.97.79c-.74.54-1.7,1.23-2.89,2.09-.64.45-1.34.95-2.1,1.49-.76.56-1.53,1.23-2.39,1.92-1.68,1.41-3.71,2.89-5.69,4.83-1.02.94-2.08,1.93-3.18,2.95-1.11,1.02-2.13,2.22-3.27,3.38-2.3,2.3-4.47,5.02-6.8,7.83-4.47,5.78-8.92,12.49-12.74,20.01-3.74,7.57-6.45,15.15-8.38,22.19-.84,3.55-1.72,6.92-2.15,10.14-.24,1.61-.58,3.14-.73,4.65-.15,1.5-.29,2.94-.42,4.32-.35,2.75-.29,5.25-.39,7.45-.02,1.1-.09,2.12-.07,3.06.04.93.07,1.79.1,2.57.04,1.47.08,2.65.11,3.57.01.82,0,1.25-.03,1.25-.03,0-.09-.42-.17-1.24-.07-.92-.17-2.1-.29-3.57-.06-.79-.12-1.65-.19-2.58-.04-.94,0-1.97,0-3.08.04-2.21-.07-4.73.25-7.5.11-1.39.23-2.84.36-4.35.13-1.51.45-3.07.67-4.69.41-3.25,1.26-6.65,2.08-10.24,1.9-7.11,4.61-14.78,8.38-22.41,3.85-7.59,8.37-14.34,12.91-20.13,2.37-2.82,4.57-5.54,6.92-7.83,1.15-1.16,2.2-2.35,3.33-3.37,1.13-1.01,2.21-1.99,3.25-2.92,2.02-1.92,4.09-3.37,5.81-4.75.88-.67,1.67-1.32,2.45-1.86.78-.52,1.5-.99,2.16-1.43,1.23-.8,2.23-1.45,3-1.95.69-.44,1.06-.65,1.08-.62Z"/>
    <path class="cls-9" d="m1137.42,843.8c.11.15-2.82,2.26-7.02,6.24-2.11,1.98-4.48,4.5-6.94,7.42-2.42,2.96-4.91,6.36-7.22,10.12-2.28,3.78-4.15,7.55-5.67,11.06-1.47,3.53-2.62,6.79-3.41,9.57-1.61,5.57-2.13,9.14-2.32,9.11-.07,0,.03-.91.25-2.52.1-.81.26-1.8.51-2.93.24-1.13.48-2.44.88-3.84.71-2.84,1.8-6.15,3.24-9.74,1.49-3.57,3.36-7.4,5.67-11.23,2.34-3.81,4.88-7.23,7.37-10.19,2.53-2.93,4.97-5.42,7.16-7.35,1.06-1.01,2.11-1.81,3-2.55.89-.75,1.69-1.34,2.37-1.8,1.33-.94,2.08-1.44,2.12-1.38Z"/>
  </g>
  <path class="cls-5" d="m676.22,838.91c-2.82,34.39-30.51,62.27-85.97,57.72-26.9-2.2-54.57-12.01-72.34-26.87l6.59-33.44,13.98.5c13.79,12.3,33.51,20.33,53.75,21.99,22.46,1.84,37.1-6.45,38.4-22.26,1.25-15.25-7.92-26.05-43.14-28.94l-49.64-4.07,18.94-108.44,118.41,9.7-2.95,36.05-80.97-6.64-6.07,36.63,15.81,1.3c57.4,4.7,78.03,32.36,75.21,66.74Z"/>
  <g class="cls-7">
    <path d="m676.22,838.91c-2.82,34.39-30.51,62.27-85.97,57.72-26.9-2.2-54.57-12.01-72.34-26.87l6.59-33.44,13.98.5c13.79,12.3,33.51,20.33,53.75,21.99,22.46,1.84,37.1-6.45,38.4-22.26,1.25-15.25-7.92-26.05-43.14-28.94l-49.64-4.07,18.94-108.44,118.41,9.7-2.95,36.05-80.97-6.64-6.07,36.63,15.81,1.3c57.4,4.7,78.03,32.36,75.21,66.74Z"/>
  </g>
  <path class="cls-5" d="m662.15,837.72c-2.82,34.39-30.51,62.27-85.97,57.72-26.9-2.2-54.57-12.01-72.34-26.87l20.56-32.93c13.79,12.3,33.51,20.33,53.75,21.99,22.46,1.84,37.1-6.45,38.4-22.26,1.25-15.25-7.92-26.05-43.14-28.94l-49.64-4.07,18.94-108.44,118.41,9.7-2.95,36.05-80.98-6.64-6.07,36.63,15.81,1.3c57.4,4.7,78.03,32.35,75.21,66.74Z"/>
  <g>
    <path class="cls-5" d="m700.08,802.41c-8.26-64.5,22.8-105.65,70.82-111.8,48.3-6.19,88.45,25.85,96.7,90.35,8.26,64.49-22.52,105.61-70.82,111.8-48.02,6.15-88.45-25.85-96.7-90.34Zm122.01-15.62c-5.68-44.39-23.68-60.82-46.3-57.92-22.34,2.86-35.61,23.29-29.93,67.68,5.68,44.39,23.68,60.82,46.02,57.96,22.62-2.9,35.89-23.32,30.21-67.72Z"/>
    <g class="cls-7">
      <path d="m700.08,802.41c-8.26-64.5,22.8-105.65,70.82-111.8,48.3-6.19,88.45,25.85,96.7,90.35,8.26,64.49-22.52,105.61-70.82,111.8-48.02,6.15-88.45-25.85-96.7-90.34Zm122.01-15.62c-5.68-44.39-23.68-60.82-46.3-57.92-22.34,2.86-35.61,23.29-29.93,67.68,5.68,44.39,23.68,60.82,46.02,57.96,22.62-2.9,35.89-23.32,30.21-67.72Z"/>
    </g>
  </g>
  <path class="cls-5" d="m683.58,806.03c-8.26-64.5,22.8-105.65,70.82-111.8,48.3-6.19,88.45,25.85,96.7,90.35,8.26,64.49-22.52,105.61-70.82,111.8-48.02,6.15-88.45-25.85-96.7-90.34Zm122.01-15.62c-5.68-44.39-23.68-60.82-46.3-57.92-22.34,2.86-35.61,23.29-29.93,67.68,5.68,44.39,23.68,60.82,46.02,57.96,22.62-2.9,35.89-23.32,30.21-67.72Z"/>
  <path class="cls-5" d="m1036.06,633.55c15.17,29.45,6.34,68.12-43.33,93.7-24.46,12.6-53.15,18.85-76.29,15.61l-11.58-32.69,11.36-6.36c18.37,3.17,39.8-.6,58.03-9.99,20.22-10.41,28.46-25.08,21.13-39.31-6.81-13.23-20.79-16.45-43.76-4.62l-18.47,9.52-13.76-26.71,14.99-59.21-74.39,38.32-16.71-32.45,122.32-63,13.5,26.21-16.3,65.25c34.03-11.21,60.03.03,73.28,25.75Z"/>
  <g class="cls-7">
    <path d="m1036.06,633.55c15.17,29.45,6.34,68.12-43.33,93.7-24.46,12.6-53.15,18.85-62.58,14.98l-25.29-32.07,11.36-6.36c18.37,3.17,39.8-.6,58.03-9.99,20.22-10.41,28.46-25.08,21.13-39.31-6.81-13.23-20.79-16.45-43.76-4.62l-18.47,9.52-13.76-26.71,14.99-59.21-74.39,38.32-16.71-32.45,122.32-63,13.5,26.21-16.3,65.25c34.03-11.21,60.03.03,73.28,25.75Z"/>
  </g>
  <path class="cls-5" d="m1024.7,639.92c15.17,29.46,6.34,68.12-43.33,93.7-24.46,12.6-53.15,18.85-76.29,15.61l-.22-39.05c18.37,3.17,39.8-.6,58.03-9.99,20.22-10.41,28.46-25.08,21.13-39.31-6.81-13.23-20.79-16.45-43.76-4.62l-18.47,9.52-13.76-26.71,14.99-59.21-74.39,38.32-16.71-32.45,122.32-63,13.5,26.21-16.3,65.25c34.03-11.21,60.03.03,73.28,25.75Z"/>
  <path class="cls-9" d="m1068.7,635.5c.06-.02.39,1.03.94,2.95.28.96.6,2.13.89,3.52.3,1.38.7,2.95.97,4.71.66,3.5,1.18,7.73,1.49,12.43.25,4.71.26,9.91-.16,15.34-.46,5.43-1.31,10.56-2.31,15.17-1.06,4.6-2.25,8.68-3.47,12.03-.55,1.7-1.19,3.18-1.71,4.49-.51,1.32-1.01,2.43-1.45,3.33-.85,1.8-1.34,2.79-1.4,2.76s.33-1.06,1.07-2.9c.38-.92.83-2.04,1.3-3.37.47-1.33,1.07-2.82,1.58-4.52,1.13-3.36,2.25-7.43,3.26-12.01.95-4.58,1.76-9.67,2.22-15.06.42-5.39.43-10.54.23-15.22-.26-4.67-.71-8.87-1.28-12.37-.23-1.76-.58-3.33-.83-4.71-.24-1.39-.51-2.57-.74-3.54-.44-1.94-.65-3.02-.59-3.04Z"/>
  <path class="cls-9" d="m1083.92,692.96c-.15-.05.72-2.66,1.68-6.97.96-4.31,1.88-10.37,1.9-17.1,0-6.74-.89-12.8-1.85-17.11-.95-4.32-1.81-6.92-1.66-6.97.06-.02.33.61.76,1.78.44,1.16.98,2.89,1.54,5.04,1.12,4.31,2.13,10.44,2.13,17.26-.02,6.82-1.05,12.94-2.18,17.25-.56,2.16-1.1,3.88-1.55,5.04-.44,1.17-.7,1.8-.76,1.78Z"/>
  <path class="cls-9" d="m831.47,653.84c-.01.06-.48.02-1.33-.11-.85-.11-2.06-.43-3.5-.93-1.45-.5-3.12-1.29-4.86-2.34-1.72-1.09-3.51-2.45-5.17-4.11-1.64-1.68-2.99-3.49-4.06-5.22-1.03-1.75-1.81-3.42-2.29-4.88-.49-1.45-.79-2.66-.9-3.51-.12-.85-.16-1.32-.1-1.33.17-.03.49,1.83,1.61,4.61.55,1.4,1.36,2.99,2.4,4.66,1.08,1.65,2.4,3.38,3.99,5.01,1.61,1.61,3.33,2.95,4.97,4.04,1.67,1.06,3.25,1.89,4.64,2.45,2.77,1.15,4.63,1.49,4.59,1.65Z"/>
  <path class="cls-9" d="m840.45,650.94c-.02.09-1.81-.25-4.5-1.41-2.68-1.15-6.21-3.24-9.47-6.32-3.25-3.09-5.51-6.52-6.8-9.14-1.29-2.63-1.73-4.39-1.64-4.42.15-.06.8,1.62,2.21,4.11,1.41,2.49,3.69,5.76,6.86,8.78,3.17,3,6.55,5.12,9.11,6.4,2.56,1.29,4.27,1.85,4.22,2Z"/>
  <path class="cls-4" d="m427.31,499.06v223.45l-25.2-24.48-11.81,5.57s26.34,35.72,37.02,49.79v143.62h31.09v-397.94h-31.09Z"/>
  <g>
    <g>
      <g>
        <polygon class="cls-4" points="643.19 594.9 311.46 667.3 292.23 579.19 623.96 506.79 630.57 537.08 617.12 552.81 634.66 555.84 643.19 594.9"/>
        <path class="cls-9" d="m623.96,506.79s-.56.17-1.66.43c-1.15.27-2.77.64-4.9,1.14-4.36.98-10.72,2.41-18.91,4.26-16.51,3.66-40.41,8.95-70.13,15.53-59.57,13.06-142.47,31.24-235.98,51.74l.54-.83c3,14.42,6.16,29.65,9.37,45.1,3.15,15.15,6.25,30.1,9.18,44.24l-.84-.55c93.73-20.67,176.83-38.99,236.55-52.16,29.82-6.51,53.8-11.75,70.37-15.37,8.24-1.77,14.63-3.14,19.01-4.08,2.14-.44,3.78-.79,4.93-1.03,1.11-.22,1.69-.3,1.69-.3,0,0-.56.17-1.66.44-1.15.27-2.78.65-4.91,1.15-4.37,1-10.74,2.45-18.95,4.33-16.55,3.72-40.49,9.1-70.28,15.79-59.69,13.28-142.76,31.77-236.45,52.61l-.7.16-.15-.7c-2.94-14.14-6.04-29.08-9.19-44.23-3.21-15.45-6.37-30.68-9.36-45.1l-.14-.69.68-.15c93.55-20.33,176.49-38.34,236.08-51.29,29.76-6.4,53.69-11.55,70.22-15.11,8.22-1.74,14.6-3.09,18.97-4.01,2.14-.44,3.77-.77,4.92-1.01,1.11-.22,1.68-.3,1.68-.3Z"/>
      </g>
      <path class="cls-2" d="m636.05,569.94s-1.19.21-3.46.55c-2.26.41-5.65.68-9.92,1.6-8.59,1.58-20.84,4.76-35.56,9.94-14.75,5.12-31.85,12.44-51.02,20.11-9.58,3.85-19.75,7.63-30.48,11-10.7,3.45-22.09,6.12-33.9,7.74-11.82,1.76-23.54,1.75-34.76,1.28-11.24-.47-22.03-1.48-32.33-2.21-10.29-.73-20.09-1.27-29.26-1.06-9.17.21-17.7,1.01-25.36,2.47-15.35,2.85-27.08,8.12-34.34,12.91-1.85,1.16-3.44,2.26-4.76,3.3-1.35,1-2.48,1.86-3.32,2.65-1.73,1.51-2.66,2.28-2.66,2.28,0,0,.88-.83,2.59-2.36.83-.8,1.95-1.68,3.29-2.69,1.31-1.06,2.9-2.18,4.74-3.35,7.25-4.86,19-10.22,34.39-13.12,7.68-1.5,16.23-2.32,25.42-2.55,9.19-.24,19.01.29,29.31,1,10.3.71,21.1,1.71,32.32,2.17,11.21.46,22.88.47,34.66-1.29,11.78-1.61,23.13-4.27,33.81-7.7,10.71-3.36,20.87-7.12,30.45-10.96,19.17-7.64,36.3-14.93,51.08-20.01,14.76-5.13,27.05-8.26,35.65-9.78,4.28-.89,7.68-1.13,9.95-1.5,2.28-.3,3.48-.43,3.48-.43Z"/>
      <path class="cls-2" d="m626.69,535.89s-1.21-.16-3.49-.52c-2.38-.37-5.73-.89-10-1.56-8.69-1.28-21.3-3.12-36.99-3.9-15.62-.62-34.66-.22-54.49,6.1-1.23.4-2.48.77-3.72,1.21-1.22.48-2.45.96-3.68,1.45-2.49.92-4.93,2.05-7.38,3.21-4.89,2.35-9.69,5.14-14.47,8.15-9.56,6.02-18.91,13.08-28.75,19.94-9.82,6.89-19.87,13.03-30.16,17.79-10.25,4.82-20.53,8.58-30.48,11.61-19.95,5.98-38.5,8.99-54.07,11.07-15.59,2.03-28.28,3.02-37.05,3.71-8.76.67-13.62.94-13.62.94,0,0,1.21-.13,3.51-.32,2.4-.2,5.78-.48,10.09-.84,8.75-.76,21.44-1.8,37.01-3.89,15.55-2.13,34.08-5.17,53.98-11.17,9.92-3.03,20.18-6.79,30.4-11.61,10.26-4.75,20.27-10.87,30.07-17.75,9.83-6.85,19.19-13.91,28.78-19.94,4.79-3.01,9.61-5.81,14.53-8.17,2.46-1.16,4.91-2.3,7.42-3.22,1.24-.49,2.48-.97,3.7-1.45,1.24-.44,2.5-.81,3.74-1.21,19.93-6.32,39.03-6.67,54.67-6,15.72.83,28.32,2.73,37,4.08,8.68,1.38,13.46,2.3,13.46,2.3Z"/>
      <path class="cls-2" d="m466.63,543.7s-.45.47-1.36,1.33c-1.01.95-2.33,2.19-3.97,3.73-.88.82-1.84,1.71-2.88,2.68-1.08.95-2.31,1.92-3.6,2.99-2.62,2.1-5.49,4.65-8.99,7.04-1.72,1.24-3.52,2.53-5.39,3.88-1.88,1.34-3.96,2.55-6.05,3.9-4.14,2.77-8.85,5.25-13.75,7.95-9.96,5.1-21.28,9.99-33.6,13.88-12.37,3.77-24.47,6.15-35.57,7.59-5.57.54-10.85,1.17-15.84,1.23-2.49.07-4.89.25-7.19.21-2.3-.05-4.52-.1-6.64-.15-4.23.01-8.04-.46-11.39-.71-1.67-.15-3.23-.25-4.66-.42-1.41-.21-2.71-.41-3.89-.58-2.22-.34-4.01-.61-5.38-.82-1.23-.19-1.87-.33-1.87-.33,0,0,.65.05,1.89.21,1.38.18,3.17.42,5.39.72,1.19.16,2.48.34,3.89.53,1.43.16,2.99.24,4.66.38,3.35.22,7.15.66,11.37.63,2.11.03,4.33.07,6.63.11,2.3.02,4.7-.17,7.18-.25,4.97-.08,10.24-.72,15.79-1.28,11.06-1.46,23.13-3.86,35.46-7.61,12.29-3.89,23.59-8.74,33.53-13.8,4.89-2.69,9.6-5.14,13.74-7.89,2.09-1.34,4.17-2.54,6.06-3.86,1.87-1.33,3.68-2.62,5.4-3.84,3.51-2.36,6.39-4.88,9.02-6.96,1.3-1.06,2.54-2.01,3.63-2.95,1.05-.96,2.02-1.84,2.91-2.64,1.67-1.51,3.01-2.72,4.04-3.65.93-.83,1.44-1.24,1.44-1.24Z"/>
      <path class="cls-2" d="m357.03,650.79c.08-.02-1,1.49-3.88,1.75-1.37.2-3.15.05-4.93.84-.88.38-1.62,1.17-1.89,2.22-.33,1.02.15,2.29,1.33,2.59,1.13.32,2.45.02,3.78-.17,1.33-.22,2.71-.52,4.11-.9,2.79-.79,5.76-1.85,8.57-3.48,1.37-.85,2.7-1.9,3.6-3.3.91-1.38,1.21-3.19.56-4.79-.63-1.59-1.96-2.92-3.56-3.71-1.61-.81-3.45-1.16-5.32-1.35-7.54-.69-14.78.49-21.03,2.43-6.27,1.95-11.64,4.49-16.02,6.83-4.38,2.35-7.81,4.46-10.17,5.94-1.05.67-1.95,1.23-2.71,1.71-.62.39-.96.57-.96.57,0,0,4.93-3.73,13.65-8.57,4.37-2.4,9.75-4.99,16.05-6.98,6.29-1.98,13.6-3.2,21.24-2.5,1.9.19,3.81.55,5.52,1.41,1.71.84,3.14,2.26,3.83,4.01.72,1.76.37,3.8-.62,5.28-.98,1.5-2.37,2.59-3.79,3.46-2.9,1.66-5.88,2.7-8.72,3.48-1.42.38-2.82.67-4.16.88-1.34.17-2.66.49-3.97.12-.63-.19-1.21-.64-1.47-1.25-.27-.6-.25-1.25-.09-1.82.3-1.15,1.17-2.03,2.11-2.41,1.9-.8,3.68-.6,5.04-.77,1.38-.12,2.41-.47,3.02-.85.62-.37.85-.7.88-.67Z"/>
      <path class="cls-2" d="m377.9,567.73s-.48.41-1.62.63c-1.09.19-3.04.14-4.67-1.47l-.13-.13.17-.09c3.5-1.94,8.91-4.26,15.79-5.16,3.44-.4,7.19-.66,11.16.08.97.28,1.97.68,2.73,1.48.79.78,1.03,2.13.5,3.15-1.18,2.06-3.51,2.55-5.43,3.34-12.2,4.54-24.1,5.67-32.56,5.44-8.5-.21-13.64-1.46-13.64-1.46,0-.02.33.01.95.09.79.1,1.68.21,2.7.34,2.35.27,5.76.58,9.99.63,8.42.12,20.24-1.07,32.35-5.58,1.93-.76,4.19-1.35,5.12-3.05.42-.83.25-1.87-.4-2.52-.64-.68-1.56-1.06-2.47-1.33-3.77-.71-7.58-.49-10.95-.12-6.82.84-12.2,3.07-15.72,4.92l.04-.23c1.49,1.54,3.37,1.66,4.43,1.52,1.12-.16,1.63-.53,1.65-.48Z"/>
      <path class="cls-2" d="m634.51,581.61s-.63.16-1.77.36c-1.14.18-2.79.5-4.8.95-4.03.89-9.54,2.48-15.3,5.04-5.76,2.57-10.64,5.58-14,7.97-1.68,1.2-3.02,2.2-3.92,2.93-.91.72-1.42,1.1-1.45,1.07-.03-.03.44-.47,1.31-1.24.86-.78,2.17-1.84,3.83-3.08,3.32-2.49,8.2-5.58,14-8.17,5.81-2.57,11.37-4.12,15.45-4.91,2.04-.4,3.7-.66,4.86-.77,1.15-.13,1.79-.18,1.8-.14Z"/>
      <path class="cls-2" d="m627.41,521.93s-.44.09-1.24.15c-.8.07-1.96.1-3.4.06-2.87-.06-6.85-.51-11.08-1.71-4.23-1.2-7.85-2.91-10.33-4.36-1.24-.72-2.22-1.36-2.86-1.84-.65-.47-1-.75-.97-.78.06-.08,1.52.92,4.03,2.26,2.51,1.35,6.11,2.98,10.29,4.17,4.18,1.18,8.1,1.69,10.94,1.85,2.84.17,4.62.09,4.62.19Z"/>
    </g>
    <g>
      <path class="cls-1" d="m413.31,592.87l1.08,5.14-21.42,4.52-5.84-27.67,20.91-4.41,1.08,5.14-14.55,3.07,1.27,6.01,12.85-2.71,1.05,4.98-12.85,2.71,1.35,6.41,15.06-3.18Z"/>
      <path class="cls-1" d="m437.13,593.21l-6.96-6.58-.31.07-5.57,1.18,1.63,7.71-6.41,1.35-5.84-27.67,11.98-2.53c7.39-1.56,12.82,1.3,14.13,7.51.88,4.15-.58,7.64-3.85,9.94l8.08,7.58-6.88,1.45Zm-10.74-21.19l-5.22,1.1,2.03,9.65,5.22-1.1c3.91-.82,5.5-3.06,4.87-6.06-.64-3.04-2.99-4.41-6.91-3.58Z"/>
      <path class="cls-1" d="m466.18,587.08l-6.96-6.58-.32.07-5.57,1.18,1.63,7.71-6.4,1.35-5.84-27.67,11.98-2.53c7.39-1.56,12.82,1.3,14.13,7.51.88,4.15-.58,7.64-3.85,9.94l8.08,7.59-6.88,1.45Zm-10.75-21.19l-5.22,1.1,2.03,9.65,5.22-1.1c3.91-.82,5.51-3.06,4.87-6.06-.64-3.04-2.99-4.41-6.91-3.58Z"/>
      <path class="cls-1" d="m472.95,571.21c-1.73-8.22,3.39-15.66,12.12-17.5,8.7-1.84,16.42,2.85,18.16,11.12,1.74,8.26-3.42,15.67-12.12,17.5-8.73,1.84-16.42-2.9-18.16-11.12Zm23.8-5.02c-1.11-5.26-5.58-8.07-10.52-7.03-4.94,1.04-7.9,5.42-6.79,10.68,1.11,5.26,5.58,8.07,10.52,7.03,4.94-1.04,7.9-5.42,6.79-10.68Z"/>
      <path class="cls-1" d="m528.6,573.92l-6.96-6.58-.32.07-5.57,1.18,1.63,7.71-6.4,1.35-5.84-27.67,11.98-2.53c7.39-1.56,12.83,1.3,14.13,7.51.88,4.15-.58,7.64-3.85,9.94l8.08,7.59-6.88,1.45Zm-10.75-21.18l-5.22,1.1,2.03,9.65,5.22-1.1c3.91-.83,5.51-3.06,4.87-6.07-.64-3.04-2.99-4.41-6.91-3.58Z"/>
    </g>
    <g>
      <path class="cls-1" d="m343.48,639.86l.46-1.72c1.64,1.05,4.27,1.52,6.77.99,3.56-.75,4.8-2.57,4.4-4.45-1.1-5.22-12.15.46-13.64-6.59-.59-2.8,1.08-5.68,5.92-6.71,2.15-.45,4.51-.3,6.26.44l-.34,1.75c-1.86-.72-3.87-.83-5.56-.48-3.48.74-4.71,2.61-4.31,4.52,1.1,5.22,12.16-.41,13.63,6.53.59,2.8-1.13,5.67-6,6.69-2.86.6-5.87.19-7.6-.98Z"/>
      <path class="cls-1" d="m373.2,629.15l-11.97,2.52c.85,2.95,3.55,4.46,6.68,3.79,1.74-.37,3.16-1.32,3.98-2.8l1.35,1.02c-.96,1.79-2.77,3.03-5.03,3.5-4.46.94-8.15-1.46-9.05-5.71-.9-4.25,1.44-7.89,5.46-8.74,4.03-.85,7.56,1.5,8.47,5.8.03.16.05.39.1.6Zm-12.28,1.08l10.15-2.14c-.84-2.75-3.29-4.28-6.09-3.69-2.77.59-4.4,2.98-4.06,5.83Z"/>
      <path class="cls-1" d="m382.74,618.93l.4,1.88c-.16.03-.33.04-.47.07-2.99.63-4.41,2.92-3.7,6.3l1.54,7.29-1.93.41-3.02-14.31,1.85-.39.59,2.81c.5-2.1,2.11-3.49,4.75-4.05Z"/>
      <path class="cls-1" d="m398.91,615.63l-3.35,15.66-1.99.42-9.36-12.98,2.01-.42,7.93,11.06,2.84-13.33,1.9-.4Z"/>
      <path class="cls-1" d="m400.25,610.63c-.15-.73.34-1.49,1.13-1.66.79-.17,1.54.3,1.7,1.04.17.79-.3,1.54-1.12,1.72-.79.17-1.55-.33-1.71-1.09Zm1.39,4.42l1.93-.41,3.02,14.31-1.93.41-3.02-14.31Z"/>
      <path class="cls-1" d="m409.03,620.97c-.9-4.27,1.57-7.92,5.84-8.82,2.42-.51,4.66.01,6.2,1.65l-1.24,1.28c-1.28-1.23-2.95-1.59-4.61-1.24-3.13.66-4.94,3.37-4.24,6.72.71,3.37,3.46,5.1,6.59,4.44,1.66-.35,3.05-1.33,3.72-2.98l1.65.68c-.75,2.09-2.59,3.5-5.01,4.01-4.27.9-8.01-1.47-8.91-5.74Z"/>
      <path class="cls-1" d="m438.14,615.46l-11.97,2.52c.85,2.95,3.55,4.45,6.68,3.79,1.74-.37,3.16-1.32,3.98-2.81l1.35,1.02c-.96,1.79-2.77,3.03-5.03,3.51-4.46.94-8.15-1.46-9.05-5.71-.9-4.25,1.43-7.89,5.46-8.74,4.03-.85,7.56,1.5,8.47,5.8.03.16.05.39.1.61Zm-12.28,1.08l10.15-2.14c-.83-2.75-3.29-4.28-6.09-3.69-2.78.58-4.4,2.98-4.06,5.83Z"/>
      <path class="cls-1" d="m460.52,602.63l3.02,14.31-1.85.39-.55-2.61c-.64,1.96-2.28,3.35-4.56,3.84-3.65.77-6.47-.77-7.34-4.88l-1.75-8.3,1.93-.41,1.71,8.11c.64,3.05,2.55,4.26,5.27,3.69,2.99-.63,4.46-2.96,3.78-6.22l-1.59-7.51,1.93-.41Z"/>
      <path class="cls-1" d="m480.39,604.72l1.75,8.3-1.93.41-1.71-8.11c-.64-3.02-2.54-4.24-5.26-3.67-3.08.65-4.6,2.96-3.92,6.23l1.58,7.51-1.93.41-3.02-14.31,1.85-.39.56,2.64c.67-1.96,2.39-3.37,4.86-3.9,3.48-.73,6.3.77,7.17,4.88Z"/>
      <path class="cls-1" d="m496.34,600.76l1.87,8.87-1.85.39-.47-2.23c-.56,1.65-2.06,2.91-4.43,3.41-3.24.68-5.58-.59-6.1-3.06-.47-2.21.56-4.35,4.67-5.22l4.54-.96-.18-.87c-.52-2.45-2.19-3.49-4.85-2.92-1.85.39-3.46,1.41-4.41,2.69l-1.18-1.26c1.18-1.53,3.16-2.68,5.42-3.16,3.7-.78,6.19.63,6.97,4.33Zm-.97,4.98l-.49-2.34-4.49.95c-2.78.58-3.44,1.86-3.13,3.33.35,1.66,1.9,2.41,4.19,1.93,2.17-.46,3.56-1.83,3.93-3.87Z"/>
      <path class="cls-1" d="m512.21,591.73l-3.35,15.65-1.99.42-9.36-12.98,2.01-.42,7.93,11.06,2.84-13.33,1.9-.4Z"/>
      <path class="cls-1" d="m526.45,594.41l1.87,8.87-1.85.39-.47-2.24c-.56,1.65-2.06,2.91-4.43,3.41-3.24.68-5.58-.59-6.1-3.06-.47-2.21.56-4.35,4.67-5.22l4.54-.96-.18-.87c-.52-2.45-2.19-3.49-4.85-2.93-1.85.39-3.45,1.41-4.41,2.69l-1.18-1.26c1.18-1.53,3.16-2.68,5.42-3.16,3.7-.78,6.18.63,6.96,4.33Zm-.97,4.98l-.49-2.34-4.49.95c-2.77.58-3.44,1.86-3.13,3.33.35,1.66,1.9,2.41,4.19,1.93,2.17-.46,3.56-1.83,3.93-3.87Z"/>
      <path class="cls-1" d="m529.18,583.43c-.15-.73.34-1.49,1.13-1.66.79-.17,1.54.3,1.7,1.04.17.79-.3,1.54-1.12,1.72-.79.17-1.54-.33-1.71-1.09Zm1.39,4.43l1.93-.41,3.02,14.31-1.93.41-3.02-14.31Z"/>
      <path class="cls-1" d="m536.66,580.43l1.93-.41,4.26,20.19-1.93.41-4.26-20.19Z"/>
      <path class="cls-1" d="m557.17,587.93l1.87,8.87-1.85.39-.47-2.23c-.56,1.65-2.06,2.91-4.43,3.41-3.24.68-5.58-.59-6.1-3.06-.47-2.21.56-4.35,4.67-5.22l4.54-.96-.18-.87c-.52-2.45-2.19-3.49-4.85-2.93-1.85.39-3.45,1.41-4.41,2.69l-1.18-1.26c1.18-1.53,3.16-2.68,5.42-3.16,3.7-.78,6.18.63,6.97,4.33Zm-.97,4.98l-.49-2.34-4.49.95c-2.77.58-3.44,1.86-3.13,3.33.35,1.66,1.9,2.41,4.19,1.93,2.17-.46,3.56-1.83,3.93-3.87Z"/>
      <path class="cls-1" d="m577.29,585.47c.91,4.33-1.51,7.94-5.59,8.8-2.37.5-4.57-.12-6.15-1.8l.6,2.83-1.85.39-4.26-20.19,1.93-.41,1.81,8.6c.81-2.1,2.56-3.49,4.85-3.98,4.08-.86,7.75,1.43,8.66,5.76Zm-1.93.41c-.71-3.35-3.49-5.09-6.51-4.45-3.05.65-4.86,3.35-4.16,6.7.71,3.35,3.46,5.1,6.51,4.46,3.02-.64,4.86-3.36,4.15-6.71Z"/>
      <path class="cls-1" d="m578.51,571.61l1.93-.41,4.26,20.19-1.93.41-4.26-20.19Z"/>
      <path class="cls-1" d="m601.17,581.06l-11.97,2.52c.85,2.95,3.55,4.45,6.68,3.79,1.74-.37,3.16-1.32,3.99-2.8l1.35,1.02c-.96,1.79-2.77,3.03-5.03,3.5-4.46.94-8.15-1.46-9.05-5.71-.9-4.25,1.43-7.89,5.46-8.74,4.03-.85,7.56,1.5,8.47,5.8.03.16.05.39.1.6Zm-12.28,1.08l10.15-2.14c-.84-2.75-3.29-4.28-6.09-3.69-2.78.59-4.4,2.98-4.06,5.83Z"/>
    </g>
  </g>
</svg>