<svg width="187" height="56" viewBox="0 0 187 56" fill="none" xmlns="http://www.w3.org/2000/svg">
<path d="M52.7931 9.92C52.7931 9.45 52.7331 8.98 52.6331 8.52C51.5731 3.5 47.2731 0.01 42.1231 0C31.9931 0 21.8531 0 11.7231 0C10.7631 0 9.79306 0.0300001 8.85306 0.19C3.69306 1.09 -0.00693876 5.61 0.0130612 10.47C0.0330612 16.24 0.0130612 22 0.0130612 27.77C0.0130612 33.57 -0.0269388 39.37 0.0330612 45.17C0.0730612 48.79 1.69306 51.65 4.61306 53.75C6.45306 55.08 8.56306 55.64 10.8231 55.64C18.7031 55.64 26.5831 55.65 34.4631 55.66C37.1531 55.66 39.8431 55.69 42.5331 55.65C49.0731 55.54 52.8031 50.17 52.8031 45.57C52.8131 33.69 52.8031 21.81 52.7931 9.93V9.92ZM43.8031 51.49C43.3131 51.61 42.8031 51.67 42.3031 51.67C31.8031 51.67 21.3031 51.64 10.8031 51.7C7.48306 51.72 4.23306 48.87 4.03306 45.28C3.96306 44.03 3.99306 42.76 3.99306 41.51C3.99306 31.27 3.99306 21.03 4.02306 10.79C4.02306 7.45 6.48306 4.57 9.76306 4.03C10.1931 3.96 10.6331 3.96 11.0731 3.96C21.3831 3.96 31.6931 3.99 42.0031 3.94C44.5731 3.93 47.5331 5.78 48.4231 8.49C48.6631 9.21 48.7831 9.99 48.7831 10.75C48.8131 16.46 48.8031 22.18 48.8031 27.89C48.8031 33.52 48.7631 39.14 48.8131 44.77C48.8431 48.34 46.4231 50.86 43.8131 51.51L43.8031 51.49Z" fill="white"/>
<path d="M16.5031 48.33C15.9131 48.33 15.3131 48.33 14.7231 48.33C11.4331 48.26 8.26305 45.39 7.91305 42.11C7.81305 41.14 7.86305 40.16 7.82305 39.18C7.80305 38.61 7.49305 38.27 7.02305 38.26C6.55305 38.25 6.23305 38.59 6.21305 39.16C6.19305 39.68 6.21305 40.21 6.21305 40.73C6.21305 40.92 6.21305 41.11 6.21305 41.31C6.08305 44.74 8.72305 48.63 12.6731 49.62C13.9031 49.93 15.2331 49.83 16.5231 49.88C17.1131 49.9 17.5431 49.54 17.5231 49.11C17.5031 48.67 17.0831 48.34 16.5031 48.33Z" fill="white"/>
<path d="M46.7031 39.96C46.7031 39.73 46.7031 39.51 46.7031 39.28C46.7031 38.68 46.3931 38.3 45.9231 38.28C45.4531 38.26 45.1231 38.61 45.0931 39.22C45.0531 39.99 45.0531 40.76 45.0431 41.52C44.9931 44.76 42.4731 47.71 39.2631 48.21C38.3231 48.36 37.3531 48.29 36.3931 48.34C35.8331 48.37 35.5531 48.66 35.5731 49.15C35.5931 49.59 35.8931 49.87 36.4231 49.88C37.1231 49.89 37.8231 49.88 38.5231 49.88C40.4731 49.86 42.1831 49.15 43.6331 47.88C45.8231 45.97 46.8731 43.55 46.7031 40.63C46.7031 40.4 46.7031 40.18 46.7031 39.95V39.96Z" fill="white"/>
<path d="M36.4931 7.33999C37.0531 7.33999 37.6131 7.33999 38.1731 7.33999C41.2231 7.31999 45.0131 10.11 45.0731 14.05C45.0731 14.66 45.0731 15.27 45.1231 15.88C45.1531 16.34 45.4531 16.61 45.9131 16.64C46.3331 16.66 46.7131 16.3 46.6931 15.82C46.6431 14.57 46.6831 13.29 46.4231 12.08C45.7931 9.17 42.5631 5.55999 37.7331 5.82999C37.4531 5.82999 36.9631 5.81999 36.4731 5.82999C35.8831 5.84999 35.5831 6.09999 35.5831 6.54999C35.5831 6.99999 35.9531 7.32999 36.5031 7.32999L36.4931 7.33999Z" fill="white"/>
<path d="M6.99306 16.64C7.38306 16.66 7.78306 16.28 7.81306 15.83C7.84306 15.27 7.80306 14.71 7.84306 14.16C7.88306 13.59 7.90306 13 8.08306 12.46C8.87306 10.02 10.5131 8.32999 12.9831 7.64999C14.1131 7.33999 15.3631 7.41999 16.5531 7.33999C17.0931 7.29999 17.4831 6.98999 17.4831 6.54999C17.4831 6.13999 17.1031 5.81999 16.5731 5.80999C16.0831 5.79999 15.5931 5.80999 15.1031 5.80999C15.1031 5.76999 12.9731 5.87999 12.0231 6.23999C8.00306 7.74999 5.71306 11.18 6.24306 15.92C6.29306 16.37 6.56306 16.62 7.00306 16.64H6.99306Z" fill="white"/>
<path d="M45.8731 25.55C45.6331 23.18 45.0231 20.92 43.9831 18.78C43.5931 17.97 42.9931 17.22 42.7931 16.37C42.5931 15.51 42.7931 14.56 42.7531 13.66C42.7331 13.16 42.6731 12.64 42.4731 12.19C41.8131 10.64 40.1431 9.89 38.4231 10.34C37.9131 10.48 37.5031 10.49 37.0331 10.17C34.9331 8.73 32.6131 7.77 30.1131 7.33C28.7631 7.09 27.4231 6.95 26.5631 5.7C26.5431 5.68 26.5031 5.68 26.4531 5.66C26.0431 6.03 25.6431 6.42 25.2131 6.77C25.0631 6.89 24.8531 6.99 24.6631 7C21.7131 7.29 18.9631 8.2 16.4631 9.79C16.0031 10.08 15.6331 10.17 15.0831 10.03C13.7231 9.69 12.4631 10.03 11.4731 11.03C10.4931 12.02 10.2331 13.25 10.6531 14.56C10.8231 15.09 10.7631 15.48 10.4331 15.88C10.2531 16.09 10.1131 16.34 9.97306 16.58C8.24306 19.4 7.20306 22.44 6.97306 25.75C6.96306 25.95 6.83306 26.17 6.69306 26.31C6.24306 26.79 5.76306 27.24 5.26306 27.72C5.76306 28.19 6.23306 28.61 6.67306 29.05C6.82306 29.21 6.95306 29.43 7.00306 29.64C7.33306 31.08 7.55306 32.56 7.98306 33.97C8.65306 36.21 9.76306 38.25 11.2831 40.06C11.1631 40.26 11.0431 40.44 10.9431 40.62C10.4531 41.48 10.3031 42.4 10.5131 43.35C11.0131 45.67 13.3531 46.81 15.6731 45.92C15.8631 45.85 16.1631 45.83 16.3231 45.92C18.3731 47.17 20.5831 48.02 22.9631 48.38C24.3031 48.58 25.6431 48.65 26.4231 50.06C26.8531 49.66 27.1931 49.38 27.4931 49.07C27.7931 48.76 28.1131 48.65 28.5431 48.61C31.4531 48.36 34.1831 47.51 36.7131 46.03C37.0131 45.86 37.2231 45.81 37.5631 45.95C39.9531 46.95 42.8631 45.4 42.7631 42.59C42.7231 41.53 42.7831 40.46 42.7431 39.39C42.7231 38.93 42.8431 38.55 43.0731 38.17C44.6331 35.51 45.5531 32.64 45.8731 29.57C45.8931 29.4 45.9831 29.21 46.1131 29.09C46.5831 28.62 47.0731 28.18 47.6831 27.62C47.1831 27.18 46.6931 26.79 46.2631 26.33C46.0631 26.12 45.9131 25.81 45.8831 25.53L45.8731 25.55ZM30.7931 31.67C30.9231 31.67 31.0531 31.67 31.1831 31.67C32.9531 31.67 34.7131 31.67 36.4831 31.67C37.1131 31.67 37.6931 31.84 38.1431 32.3C38.6831 32.85 38.8631 33.67 38.5531 34.33C38.2131 35.07 37.5931 35.41 36.7931 35.41C32.9331 35.41 29.0831 35.41 25.2231 35.41C24.5331 35.41 23.8331 35.41 23.1431 35.41C22.8031 35.41 22.4731 35.36 22.3331 35C22.1831 34.61 22.3331 34.29 22.6231 34.02C23.8831 32.86 25.1431 31.7 26.3831 30.53C28.7931 28.26 31.2331 26.01 33.6031 23.7C35.2931 22.05 35.2531 19.2 33.6031 17.66C32.9931 17.09 32.2631 16.76 31.4331 16.76C27.5231 16.74 23.6131 16.75 19.7031 16.75C19.6131 16.75 19.5231 16.76 19.4331 16.77V20.02C19.6431 20.02 19.8231 20.02 20.0031 20.02C23.0431 20.02 26.0831 20.01 29.1331 20.02C29.4931 20.02 29.9031 20.13 30.2031 20.32C30.8631 20.73 30.9631 21.52 30.4231 22.12C29.9131 22.7 29.3231 23.21 28.7631 23.74C25.6231 26.71 22.4931 29.68 19.3531 32.64C18.1631 33.76 17.6631 35.11 18.0431 36.72C18.3131 37.84 19.2331 38.62 20.3731 38.75C20.6731 38.78 20.9731 38.79 21.2631 38.79C26.2631 38.79 31.2631 38.79 36.2531 38.78C37.1931 38.78 37.9831 39.04 38.4031 39.94C38.9631 41.12 38.0931 42.49 36.6831 42.58C35.6131 42.65 34.5431 42.62 33.4631 42.62C29.1731 42.62 24.8831 42.62 20.5931 42.62C17.0031 42.61 14.3231 40.1 14.0231 36.55C13.8031 33.92 14.7231 31.77 16.6131 29.99C18.7831 27.96 20.9531 25.93 23.1331 23.9C23.1331 23.9 23.1331 23.87 23.1631 23.78C22.9631 23.78 22.7931 23.78 22.6231 23.78C21.2631 23.78 19.9031 23.78 18.5531 23.78C16.6631 23.78 15.5131 22.63 15.5031 20.73C15.5031 19.09 15.5031 17.44 15.5031 15.8C15.5031 14.17 16.6231 13.02 18.2631 13.01C22.7731 13 27.2831 12.98 31.7931 13.01C34.9731 13.03 38.0031 15.67 38.5831 18.86C39.1431 21.94 38.3131 24.57 35.9731 26.7C34.3131 28.22 32.6831 29.78 31.0431 31.32C30.9431 31.41 30.8331 31.48 30.7231 31.55L30.7931 31.66V31.67Z" fill="white"/>
<path d="M93.3572 23.57V14H61.0372V24.01H74.6372L60.8072 31.71V41.28H93.4372V31.26H79.6472L93.3572 23.57Z" fill="white"/>
<path d="M105.977 14L95.2172 41.28H109.157L110.167 38.4H118.617L119.627 41.28H133.567L122.767 14H105.987H105.977ZM112.437 30.03L114.377 23.9L116.317 30.03H112.427H112.437Z" fill="white"/>
<path d="M161.867 27.64V27.57C166.087 27.01 169.747 24.99 169.747 21.07C169.747 17.41 166.307 14.01 155.657 14.01H135.327V41.29H155.657C167.127 41.29 170.527 37.89 170.527 34.23C170.527 30.31 166.197 28.21 161.857 27.65L161.867 27.64ZM148.447 22.52H153.637C155.127 22.52 155.657 23.01 155.657 23.72C155.657 24.43 155.137 24.99 153.677 24.99H148.447V22.52ZM154.127 32.76H148.447V30.29H154.197C155.877 30.29 156.397 30.81 156.397 31.56C156.397 32.31 155.907 32.76 154.117 32.76H154.127Z" fill="white"/>
<path d="M186.917 14H172.307V41.28H186.917V14Z" fill="white"/>
</svg>
